Svasthi-Regular.ufo
<<<<<<< HEAD
<glyph name="numbersign" format="1">
  <advance width="640" height="640"/>
  <unicode hex="0023"/>
  <outline>
    <contour>
      <point x="437" y="356" type="curve"/>
      <point x="257" y="356" type="line"/>
      <point x="238" y="297"/>
      <point x="221" y="243"/>
      <point x="203" y="185" type="curve"/>
      <point x="384" y="185" type="line"/>
      <point x="402" y="243"/>
      <point x="419" y="298"/>
    </contour>
    <contour>
      <point x="497" y="356" type="line"/>
      <point x="478" y="297"/>
      <point x="461" y="243"/>
      <point x="443" y="185" type="curve"/>
      <point x="519" y="185" type="line" smooth="yes"/>
      <point x="536" y="185"/>
      <point x="549" y="171"/>
      <point x="549" y="155" type="curve" smooth="yes"/>
      <point x="549" y="139"/>
      <point x="535" y="125"/>
      <point x="519" y="125" type="curve" smooth="yes"/>
      <point x="424" y="125" type="line"/>
      <point x="412" y="87"/>
      <point x="400" y="47"/>
      <point x="386" y="3" type="curve" smooth="yes"/>
      <point x="381" y="-13"/>
      <point x="369" y="-20"/>
      <point x="357" y="-20" type="curve" smooth="yes"/>
      <point x="343" y="-20"/>
      <point x="330" y="-9"/>
      <point x="330" y="8" type="curve" smooth="yes"/>
      <point x="330" y="12"/>
      <point x="331" y="16"/>
      <point x="332" y="20" type="curve" smooth="yes"/>
      <point x="344" y="58"/>
      <point x="355" y="92"/>
      <point x="365" y="125" type="curve"/>
      <point x="184" y="125" type="line"/>
      <point x="172" y="87"/>
      <point x="160" y="47"/>
      <point x="146" y="3" type="curve" smooth="yes"/>
      <point x="141" y="-13"/>
      <point x="129" y="-20"/>
      <point x="117" y="-20" type="curve" smooth="yes"/>
      <point x="103" y="-20"/>
      <point x="90" y="-9"/>
      <point x="90" y="8" type="curve" smooth="yes"/>
      <point x="90" y="12"/>
      <point x="91" y="16"/>
      <point x="92" y="20" type="curve" smooth="yes"/>
      <point x="104" y="58"/>
      <point x="115" y="92"/>
      <point x="125" y="125" type="curve"/>
      <point x="57" y="125" type="line" smooth="yes"/>
      <point x="41" y="125"/>
      <point x="27" y="139"/>
      <point x="27" y="155" type="curve" smooth="yes"/>
      <point x="27" y="171"/>
      <point x="40" y="185"/>
      <point x="57" y="185" type="curve" smooth="yes"/>
      <point x="144" y="185" type="line"/>
      <point x="162" y="243"/>
      <point x="179" y="298"/>
      <point x="197" y="356" type="curve"/>
      <point x="121" y="356" type="line" smooth="yes"/>
      <point x="105" y="356"/>
      <point x="91" y="370"/>
      <point x="91" y="386" type="curve" smooth="yes"/>
      <point x="91" y="402"/>
      <point x="104" y="416"/>
      <point x="121" y="416" type="curve" smooth="yes"/>
      <point x="216" y="416" type="line"/>
      <point x="228" y="453"/>
      <point x="240" y="492"/>
      <point x="254" y="536" type="curve" smooth="yes"/>
      <point x="259" y="552"/>
      <point x="271" y="559"/>
      <point x="283" y="559" type="curve" smooth="yes"/>
      <point x="297" y="559"/>
      <point x="310" y="549"/>
      <point x="310" y="532" type="curve" smooth="yes"/>
      <point x="310" y="528"/>
      <point x="310" y="524"/>
      <point x="308" y="519" type="curve" smooth="yes"/>
      <point x="297" y="482"/>
      <point x="286" y="448"/>
      <point x="276" y="416" type="curve"/>
      <point x="456" y="416" type="line"/>
      <point x="468" y="453"/>
      <point x="480" y="492"/>
      <point x="494" y="536" type="curve" smooth="yes"/>
      <point x="499" y="552"/>
      <point x="511" y="559"/>
      <point x="523" y="559" type="curve" smooth="yes"/>
      <point x="537" y="559"/>
      <point x="550" y="549"/>
      <point x="550" y="532" type="curve" smooth="yes"/>
      <point x="550" y="528"/>
      <point x="550" y="524"/>
      <point x="548" y="519" type="curve" smooth="yes"/>
      <point x="537" y="482"/>
      <point x="526" y="448"/>
      <point x="516" y="416" type="curve"/>
      <point x="583" y="416" type="line" smooth="yes"/>
      <point x="600" y="416"/>
      <point x="613" y="402"/>
      <point x="613" y="386" type="curve" smooth="yes"/>
      <point x="613" y="370"/>
      <point x="599" y="356"/>
      <point x="583" y="356" type="curve" smooth="yes"/>
    </contour>
  </outline>
=======
<glyph name="numbersign" format="2">
	<unicode hex="0023"/>
	<advance width="720"/>
	<outline>
		<contour>
			<point x="474" y="356" type="curve"/>
			<point x="294" y="356" type="line"/>
			<point x="275" y="297"/>
			<point x="258" y="243"/>
			<point x="240" y="185" type="curve"/>
			<point x="421" y="185" type="line"/>
			<point x="439" y="243"/>
			<point x="456" y="298"/>
		</contour>
		<contour>
			<point x="534" y="356" type="line"/>
			<point x="515" y="297"/>
			<point x="498" y="243"/>
			<point x="480" y="185" type="curve"/>
			<point x="556" y="185" type="line" smooth="yes"/>
			<point x="573" y="185"/>
			<point x="586" y="171"/>
			<point x="586" y="155" type="curve" smooth="yes"/>
			<point x="586" y="139"/>
			<point x="572" y="125"/>
			<point x="556" y="125" type="curve" smooth="yes"/>
			<point x="461" y="125" type="line"/>
			<point x="449" y="87"/>
			<point x="437" y="47"/>
			<point x="423" y="3" type="curve" smooth="yes"/>
			<point x="418" y="-13"/>
			<point x="406" y="-20"/>
			<point x="394" y="-20" type="curve" smooth="yes"/>
			<point x="380" y="-20"/>
			<point x="367" y="-9"/>
			<point x="367" y="8" type="curve" smooth="yes"/>
			<point x="367" y="12"/>
			<point x="368" y="16"/>
			<point x="369" y="20" type="curve" smooth="yes"/>
			<point x="381" y="58"/>
			<point x="392" y="92"/>
			<point x="402" y="125" type="curve"/>
			<point x="221" y="125" type="line"/>
			<point x="209" y="87"/>
			<point x="197" y="47"/>
			<point x="183" y="3" type="curve" smooth="yes"/>
			<point x="178" y="-13"/>
			<point x="166" y="-20"/>
			<point x="154" y="-20" type="curve" smooth="yes"/>
			<point x="140" y="-20"/>
			<point x="127" y="-9"/>
			<point x="127" y="8" type="curve" smooth="yes"/>
			<point x="127" y="12"/>
			<point x="128" y="16"/>
			<point x="129" y="20" type="curve" smooth="yes"/>
			<point x="141" y="58"/>
			<point x="152" y="92"/>
			<point x="162" y="125" type="curve"/>
			<point x="94" y="125" type="line" smooth="yes"/>
			<point x="78" y="125"/>
			<point x="64" y="139"/>
			<point x="64" y="155" type="curve" smooth="yes"/>
			<point x="64" y="171"/>
			<point x="77" y="185"/>
			<point x="94" y="185" type="curve" smooth="yes"/>
			<point x="181" y="185" type="line"/>
			<point x="199" y="243"/>
			<point x="216" y="298"/>
			<point x="234" y="356" type="curve"/>
			<point x="158" y="356" type="line" smooth="yes"/>
			<point x="142" y="356"/>
			<point x="128" y="370"/>
			<point x="128" y="386" type="curve" smooth="yes"/>
			<point x="128" y="402"/>
			<point x="141" y="416"/>
			<point x="158" y="416" type="curve" smooth="yes"/>
			<point x="253" y="416" type="line"/>
			<point x="265" y="453"/>
			<point x="277" y="492"/>
			<point x="291" y="536" type="curve" smooth="yes"/>
			<point x="296" y="552"/>
			<point x="308" y="559"/>
			<point x="320" y="559" type="curve" smooth="yes"/>
			<point x="334" y="559"/>
			<point x="347" y="549"/>
			<point x="347" y="532" type="curve" smooth="yes"/>
			<point x="347" y="528"/>
			<point x="347" y="524"/>
			<point x="345" y="519" type="curve" smooth="yes"/>
			<point x="334" y="482"/>
			<point x="323" y="448"/>
			<point x="313" y="416" type="curve"/>
			<point x="493" y="416" type="line"/>
			<point x="505" y="453"/>
			<point x="517" y="492"/>
			<point x="531" y="536" type="curve" smooth="yes"/>
			<point x="536" y="552"/>
			<point x="548" y="559"/>
			<point x="560" y="559" type="curve" smooth="yes"/>
			<point x="574" y="559"/>
			<point x="587" y="549"/>
			<point x="587" y="532" type="curve" smooth="yes"/>
			<point x="587" y="528"/>
			<point x="587" y="524"/>
			<point x="585" y="519" type="curve" smooth="yes"/>
			<point x="574" y="482"/>
			<point x="563" y="448"/>
			<point x="553" y="416" type="curve"/>
			<point x="620" y="416" type="line" smooth="yes"/>
			<point x="637" y="416"/>
			<point x="650" y="402"/>
			<point x="650" y="386" type="curve" smooth="yes"/>
			<point x="650" y="370"/>
			<point x="636" y="356"/>
			<point x="620" y="356" type="curve" smooth="yes"/>
		</contour>
	</outline>
>>>>>>> origin/master
</glyph>
<<<<<<< HEAD
<glyph name="quotesingle" format="1">
  <advance width="172" height="172"/>
  <unicode hex="0027"/>
  <outline>
    <contour>
      <point x="118" y="810" type="curve" smooth="yes"/>
      <point x="118" y="779"/>
      <point x="103" y="757"/>
      <point x="86" y="739" type="curve"/>
      <point x="70" y="758"/>
      <point x="54" y="779"/>
      <point x="54" y="810" type="curve" smooth="yes"/>
      <point x="54" y="828"/>
      <point x="68" y="844"/>
      <point x="86" y="844" type="curve" smooth="yes"/>
      <point x="104" y="844"/>
      <point x="118" y="828"/>
    </contour>
  </outline>
=======
<glyph name="quotesingle" format="2">
	<unicode hex="0027"/>
	<advance width="117"/>
	<outline>
		<contour>
			<point x="90" y="810" type="curve" smooth="yes"/>
			<point x="90" y="779"/>
			<point x="75" y="757"/>
			<point x="58" y="739" type="curve"/>
			<point x="42" y="758"/>
			<point x="26" y="779"/>
			<point x="26" y="810" type="curve" smooth="yes"/>
			<point x="26" y="828"/>
			<point x="40" y="844"/>
			<point x="58" y="844" type="curve" smooth="yes"/>
			<point x="76" y="844"/>
			<point x="90" y="828"/>
		</contour>
	</outline>
>>>>>>> origin/master
</glyph>
<<<<<<< HEAD
<glyph name="parenleft" format="1">
  <advance width="311" height="311"/>
  <unicode hex="0028"/>
  <outline>
    <contour>
      <point x="87" y="274" type="curve" smooth="yes"/>
      <point x="87" y="500"/>
      <point x="165" y="697"/>
      <point x="277" y="822" type="curve" smooth="yes"/>
      <point x="284" y="830"/>
      <point x="287" y="840"/>
      <point x="287" y="849" type="curve" smooth="yes"/>
      <point x="287" y="866"/>
      <point x="275" y="877"/>
      <point x="258" y="877" type="curve" smooth="yes"/>
      <point x="249" y="877"/>
      <point x="238" y="871"/>
      <point x="232" y="864" type="curve" smooth="yes"/>
      <point x="116" y="730"/>
      <point x="26" y="518"/>
      <point x="26" y="274" type="curve" smooth="yes"/>
      <point x="26" y="30"/>
      <point x="116" y="-182"/>
      <point x="232" y="-316" type="curve" smooth="yes"/>
      <point x="238" y="-323"/>
      <point x="249" y="-329"/>
      <point x="258" y="-329" type="curve" smooth="yes"/>
      <point x="275" y="-329"/>
      <point x="287" y="-318"/>
      <point x="287" y="-301" type="curve" smooth="yes"/>
      <point x="287" y="-292"/>
      <point x="284" y="-282"/>
      <point x="277" y="-274" type="curve" smooth="yes"/>
      <point x="165" y="-149"/>
      <point x="87" y="48"/>
    </contour>
    <contour>
      <point x="87" y="274" type="curve" smooth="yes"/>
      <point x="87" y="500"/>
      <point x="165" y="697"/>
      <point x="277" y="822" type="curve" smooth="yes"/>
      <point x="284" y="830"/>
      <point x="287" y="840"/>
      <point x="287" y="849" type="curve" smooth="yes"/>
      <point x="287" y="866"/>
      <point x="275" y="877"/>
      <point x="258" y="877" type="curve" smooth="yes"/>
      <point x="249" y="877"/>
      <point x="238" y="871"/>
      <point x="232" y="864" type="curve" smooth="yes"/>
      <point x="116" y="730"/>
      <point x="26" y="518"/>
      <point x="26" y="274" type="curve" smooth="yes"/>
      <point x="26" y="30"/>
      <point x="116" y="-182"/>
      <point x="232" y="-316" type="curve" smooth="yes"/>
      <point x="238" y="-323"/>
      <point x="249" y="-329"/>
      <point x="258" y="-329" type="curve" smooth="yes"/>
      <point x="275" y="-329"/>
      <point x="287" y="-318"/>
      <point x="287" y="-301" type="curve" smooth="yes"/>
      <point x="287" y="-292"/>
      <point x="284" y="-282"/>
      <point x="277" y="-274" type="curve" smooth="yes"/>
      <point x="165" y="-149"/>
      <point x="87" y="48"/>
    </contour>
  </outline>
=======
<glyph name="parenleft" format="2">
	<unicode hex="0028"/>
	<advance width="396"/>
	<outline>
		<contour>
			<point x="71" y="274" type="curve" smooth="yes"/>
			<point x="71" y="518"/>
			<point x="124" y="700"/>
			<point x="277" y="864" type="curve" smooth="yes"/>
			<point x="288" y="876"/>
			<point x="309" y="878"/>
			<point x="321" y="867" type="curve" smooth="yes"/>
			<point x="332" y="857"/>
			<point x="331" y="833"/>
			<point x="321" y="823" type="curve" smooth="yes"/>
			<point x="172" y="667"/>
			<point x="132" y="500"/>
			<point x="132" y="274" type="curve" smooth="yes"/>
			<point x="132" y="48"/>
			<point x="172" y="-119"/>
			<point x="321" y="-275" type="curve" smooth="yes"/>
			<point x="331" y="-285"/>
			<point x="332" y="-309"/>
			<point x="321" y="-319" type="curve" smooth="yes"/>
			<point x="309" y="-330"/>
			<point x="288" y="-328"/>
			<point x="277" y="-316" type="curve" smooth="yes"/>
			<point x="124" y="-152"/>
			<point x="71" y="30"/>
		</contour>
	</outline>
>>>>>>> origin/master
</glyph>
<<<<<<< HEAD
<glyph name="parenright" format="1">
  <advance width="311" height="311"/>
  <unicode hex="0029"/>
  <outline>
    <contour>
      <point x="224" y="274" type="curve" smooth="yes"/>
      <point x="224" y="500"/>
      <point x="146" y="697"/>
      <point x="34" y="822" type="curve" smooth="yes"/>
      <point x="27" y="830"/>
      <point x="24" y="840"/>
      <point x="24" y="849" type="curve" smooth="yes"/>
      <point x="24" y="866"/>
      <point x="36" y="877"/>
      <point x="53" y="877" type="curve" smooth="yes"/>
      <point x="62" y="877"/>
      <point x="73" y="871"/>
      <point x="79" y="864" type="curve" smooth="yes"/>
      <point x="195" y="730"/>
      <point x="285" y="518"/>
      <point x="285" y="274" type="curve" smooth="yes"/>
      <point x="285" y="30"/>
      <point x="195" y="-182"/>
      <point x="79" y="-316" type="curve" smooth="yes"/>
      <point x="73" y="-323"/>
      <point x="62" y="-329"/>
      <point x="53" y="-329" type="curve" smooth="yes"/>
      <point x="36" y="-329"/>
      <point x="24" y="-318"/>
      <point x="24" y="-301" type="curve" smooth="yes"/>
      <point x="24" y="-292"/>
      <point x="27" y="-282"/>
      <point x="34" y="-274" type="curve" smooth="yes"/>
      <point x="146" y="-149"/>
      <point x="224" y="48"/>
    </contour>
    <contour>
      <point x="224" y="274" type="curve" smooth="yes"/>
      <point x="224" y="500"/>
      <point x="146" y="697"/>
      <point x="34" y="822" type="curve" smooth="yes"/>
      <point x="27" y="830"/>
      <point x="24" y="840"/>
      <point x="24" y="849" type="curve" smooth="yes"/>
      <point x="24" y="866"/>
      <point x="36" y="877"/>
      <point x="53" y="877" type="curve" smooth="yes"/>
      <point x="62" y="877"/>
      <point x="73" y="871"/>
      <point x="79" y="864" type="curve" smooth="yes"/>
      <point x="195" y="730"/>
      <point x="285" y="518"/>
      <point x="285" y="274" type="curve" smooth="yes"/>
      <point x="285" y="30"/>
      <point x="195" y="-182"/>
      <point x="79" y="-316" type="curve" smooth="yes"/>
      <point x="73" y="-323"/>
      <point x="62" y="-329"/>
      <point x="53" y="-329" type="curve" smooth="yes"/>
      <point x="36" y="-329"/>
      <point x="24" y="-318"/>
      <point x="24" y="-301" type="curve" smooth="yes"/>
      <point x="24" y="-292"/>
      <point x="27" y="-282"/>
      <point x="34" y="-274" type="curve" smooth="yes"/>
      <point x="146" y="-149"/>
      <point x="224" y="48"/>
    </contour>
  </outline>
=======
<glyph name="parenright" format="2">
	<unicode hex="0029"/>
	<advance width="402"/>
	<outline>
		<contour>
			<point x="313" y="274" type="curve" smooth="yes"/>
			<point x="313" y="518"/>
			<point x="260" y="700"/>
			<point x="107" y="864" type="curve" smooth="yes"/>
			<point x="96" y="876"/>
			<point x="75" y="878"/>
			<point x="63" y="867" type="curve" smooth="yes"/>
			<point x="52" y="857"/>
			<point x="53" y="833"/>
			<point x="63" y="823" type="curve" smooth="yes"/>
			<point x="212" y="667"/>
			<point x="252" y="500"/>
			<point x="252" y="274" type="curve" smooth="yes"/>
			<point x="252" y="48"/>
			<point x="212" y="-119"/>
			<point x="63" y="-275" type="curve" smooth="yes"/>
			<point x="53" y="-285"/>
			<point x="52" y="-309"/>
			<point x="63" y="-319" type="curve" smooth="yes"/>
			<point x="75" y="-330"/>
			<point x="96" y="-328"/>
			<point x="107" y="-316" type="curve" smooth="yes"/>
			<point x="260" y="-152"/>
			<point x="313" y="30"/>
		</contour>
	</outline>
>>>>>>> origin/master
</glyph>
<<<<<<< HEAD
<glyph name="asterisk" format="1">
  <advance width="506" height="506"/>
  <unicode hex="002A"/>
  <outline>
    <contour>
      <point x="223" y="320" type="line"/>
      <point x="223" y="499" type="line" smooth="yes"/>
      <point x="223" y="516"/>
      <point x="237" y="529"/>
      <point x="253" y="529" type="curve" smooth="yes"/>
      <point x="269" y="529"/>
      <point x="283" y="515"/>
      <point x="283" y="499" type="curve" smooth="yes"/>
      <point x="283" y="320" type="line"/>
      <point x="438" y="409" type="line" smooth="yes"/>
      <point x="453" y="417"/>
      <point x="471" y="412"/>
      <point x="479" y="398" type="curve" smooth="yes"/>
      <point x="487" y="384"/>
      <point x="482" y="366"/>
      <point x="468" y="358" type="curve" smooth="yes"/>
      <point x="313" y="268" type="line"/>
      <point x="468" y="178" type="line" smooth="yes"/>
      <point x="482" y="170"/>
      <point x="487" y="152"/>
      <point x="479" y="138" type="curve" smooth="yes"/>
      <point x="471" y="124"/>
      <point x="453" y="119"/>
      <point x="438" y="127" type="curve" smooth="yes"/>
      <point x="283" y="216" type="line"/>
      <point x="283" y="37" type="line" smooth="yes"/>
      <point x="283" y="21"/>
      <point x="269" y="7"/>
      <point x="253" y="7" type="curve" smooth="yes"/>
      <point x="237" y="7"/>
      <point x="223" y="20"/>
      <point x="223" y="37" type="curve" smooth="yes"/>
      <point x="223" y="216" type="line"/>
      <point x="68" y="127" type="line" smooth="yes"/>
      <point x="54" y="119"/>
      <point x="35" y="124"/>
      <point x="27" y="138" type="curve" smooth="yes"/>
      <point x="19" y="152"/>
      <point x="23" y="170"/>
      <point x="38" y="178" type="curve" smooth="yes"/>
      <point x="193" y="268" type="line"/>
      <point x="38" y="358" type="line" smooth="yes"/>
      <point x="23" y="366"/>
      <point x="19" y="384"/>
      <point x="27" y="398" type="curve" smooth="yes"/>
      <point x="35" y="412"/>
      <point x="54" y="417"/>
      <point x="68" y="409" type="curve" smooth="yes"/>
    </contour>
  </outline>
=======
<glyph name="asterisk" format="2">
	<unicode hex="002A"/>
	<advance width="587"/>
	<outline>
		<contour>
			<point x="261" y="320" type="line"/>
			<point x="261" y="499" type="line" smooth="yes"/>
			<point x="261" y="516"/>
			<point x="275" y="529"/>
			<point x="291" y="529" type="curve" smooth="yes"/>
			<point x="307" y="529"/>
			<point x="321" y="515"/>
			<point x="321" y="499" type="curve" smooth="yes"/>
			<point x="321" y="320" type="line"/>
			<point x="476" y="409" type="line" smooth="yes"/>
			<point x="491" y="417"/>
			<point x="509" y="412"/>
			<point x="517" y="398" type="curve" smooth="yes"/>
			<point x="525" y="384"/>
			<point x="520" y="366"/>
			<point x="506" y="358" type="curve" smooth="yes"/>
			<point x="351" y="268" type="line"/>
			<point x="506" y="178" type="line" smooth="yes"/>
			<point x="520" y="170"/>
			<point x="525" y="152"/>
			<point x="517" y="138" type="curve" smooth="yes"/>
			<point x="509" y="124"/>
			<point x="491" y="119"/>
			<point x="476" y="127" type="curve" smooth="yes"/>
			<point x="321" y="216" type="line"/>
			<point x="321" y="37" type="line" smooth="yes"/>
			<point x="321" y="21"/>
			<point x="307" y="7"/>
			<point x="291" y="7" type="curve" smooth="yes"/>
			<point x="275" y="7"/>
			<point x="261" y="20"/>
			<point x="261" y="37" type="curve" smooth="yes"/>
			<point x="261" y="216" type="line"/>
			<point x="106" y="127" type="line" smooth="yes"/>
			<point x="92" y="119"/>
			<point x="73" y="124"/>
			<point x="65" y="138" type="curve" smooth="yes"/>
			<point x="57" y="152"/>
			<point x="61" y="170"/>
			<point x="76" y="178" type="curve" smooth="yes"/>
			<point x="231" y="268" type="line"/>
			<point x="76" y="358" type="line" smooth="yes"/>
			<point x="61" y="366"/>
			<point x="57" y="384"/>
			<point x="65" y="398" type="curve" smooth="yes"/>
			<point x="73" y="412"/>
			<point x="92" y="417"/>
			<point x="106" y="409" type="curve" smooth="yes"/>
		</contour>
	</outline>
>>>>>>> origin/master
</glyph>
<<<<<<< HEAD
<glyph name="plus" format="1">
  <advance width="396" height="396"/>
  <unicode hex="002B"/>
  <outline>
    <contour>
      <point x="228" y="308" type="line"/>
      <point x="339" y="308" type="line" smooth="yes"/>
      <point x="356" y="308"/>
      <point x="369" y="294"/>
      <point x="369" y="278" type="curve" smooth="yes"/>
      <point x="369" y="262"/>
      <point x="355" y="248"/>
      <point x="339" y="248" type="curve" smooth="yes"/>
      <point x="228" y="248" type="line"/>
      <point x="228" y="127" type="line" smooth="yes"/>
      <point x="228" y="111"/>
      <point x="214" y="97"/>
      <point x="198" y="97" type="curve" smooth="yes"/>
      <point x="182" y="97"/>
      <point x="168" y="110"/>
      <point x="168" y="127" type="curve" smooth="yes"/>
      <point x="168" y="248" type="line"/>
      <point x="57" y="248" type="line" smooth="yes"/>
      <point x="41" y="248"/>
      <point x="27" y="262"/>
      <point x="27" y="278" type="curve" smooth="yes"/>
      <point x="27" y="294"/>
      <point x="40" y="308"/>
      <point x="57" y="308" type="curve" smooth="yes"/>
      <point x="168" y="308" type="line"/>
      <point x="168" y="429" type="line" smooth="yes"/>
      <point x="168" y="446"/>
      <point x="182" y="459"/>
      <point x="198" y="459" type="curve" smooth="yes"/>
      <point x="214" y="459"/>
      <point x="228" y="445"/>
      <point x="228" y="429" type="curve" smooth="yes"/>
    </contour>
  </outline>
=======
<glyph name="plus" format="2">
	<unicode hex="002B"/>
	<advance width="607"/>
	<outline>
		<contour>
			<point x="329" y="308" type="line"/>
			<point x="440" y="308" type="line" smooth="yes"/>
			<point x="457" y="308"/>
			<point x="470" y="294"/>
			<point x="470" y="278" type="curve" smooth="yes"/>
			<point x="470" y="262"/>
			<point x="456" y="248"/>
			<point x="440" y="248" type="curve" smooth="yes"/>
			<point x="329" y="248" type="line"/>
			<point x="329" y="127" type="line" smooth="yes"/>
			<point x="329" y="111"/>
			<point x="315" y="97"/>
			<point x="299" y="97" type="curve" smooth="yes"/>
			<point x="283" y="97"/>
			<point x="269" y="110"/>
			<point x="269" y="127" type="curve" smooth="yes"/>
			<point x="269" y="248" type="line"/>
			<point x="158" y="248" type="line" smooth="yes"/>
			<point x="142" y="248"/>
			<point x="128" y="262"/>
			<point x="128" y="278" type="curve" smooth="yes"/>
			<point x="128" y="294"/>
			<point x="141" y="308"/>
			<point x="158" y="308" type="curve" smooth="yes"/>
			<point x="269" y="308" type="line"/>
			<point x="269" y="429" type="line" smooth="yes"/>
			<point x="269" y="446"/>
			<point x="283" y="459"/>
			<point x="299" y="459" type="curve" smooth="yes"/>
			<point x="315" y="459"/>
			<point x="329" y="445"/>
			<point x="329" y="429" type="curve" smooth="yes"/>
		</contour>
	</outline>
>>>>>>> origin/master
</glyph>
<<<<<<< HEAD
<glyph name="comma" format="1">
  <advance width="172" height="172"/>
  <unicode hex="002C"/>
  <outline>
    <contour>
      <point x="119" y="23" type="curve" smooth="yes"/>
      <point x="119" y="-8"/>
      <point x="96" y="-61"/>
      <point x="61" y="-61" type="curve" smooth="yes"/>
      <point x="58" y="-61"/>
      <point x="57" y="-60"/>
      <point x="57" y="-58" type="curve" smooth="yes"/>
      <point x="57" y="-52"/>
      <point x="67" y="-38"/>
      <point x="67" y="-18" type="curve" smooth="yes"/>
      <point x="67" y="-8"/>
      <point x="65" y="3"/>
      <point x="58" y="16" type="curve" smooth="yes"/>
      <point x="56" y="20"/>
      <point x="54" y="27"/>
      <point x="54" y="32" type="curve" smooth="yes"/>
      <point x="54" y="50"/>
      <point x="68" y="64"/>
      <point x="86" y="64" type="curve" smooth="yes"/>
      <point x="107" y="64"/>
      <point x="119" y="46"/>
    </contour>
  </outline>
=======
<glyph name="comma" format="2">
	<unicode hex="002C"/>
	<advance width="213"/>
	<outline>
		<contour>
			<point x="139" y="23" type="curve" smooth="yes"/>
			<point x="139" y="-8"/>
			<point x="116" y="-61"/>
			<point x="81" y="-61" type="curve" smooth="yes"/>
			<point x="78" y="-61"/>
			<point x="77" y="-60"/>
			<point x="77" y="-58" type="curve" smooth="yes"/>
			<point x="77" y="-53"/>
			<point x="87" y="-39"/>
			<point x="87" y="-18" type="curve" smooth="yes"/>
			<point x="87" y="-8"/>
			<point x="85" y="3"/>
			<point x="78" y="16" type="curve" smooth="yes"/>
			<point x="76" y="20"/>
			<point x="74" y="27"/>
			<point x="74" y="32" type="curve" smooth="yes"/>
			<point x="74" y="50"/>
			<point x="88" y="64"/>
			<point x="106" y="64" type="curve" smooth="yes"/>
			<point x="127" y="64"/>
			<point x="139" y="46"/>
		</contour>
	</outline>
>>>>>>> origin/master
</glyph>
<<<<<<< HEAD
<glyph name="hyphen" format="1">
  <advance width="396" height="396"/>
  <unicode hex="002D"/>
  <outline>
    <contour>
      <point x="57" y="308" type="curve" smooth="yes"/>
      <point x="339" y="308" type="line" smooth="yes"/>
      <point x="356" y="308"/>
      <point x="369" y="294"/>
      <point x="369" y="278" type="curve" smooth="yes"/>
      <point x="369" y="262"/>
      <point x="355" y="248"/>
      <point x="339" y="248" type="curve" smooth="yes"/>
      <point x="57" y="248" type="line" smooth="yes"/>
      <point x="41" y="248"/>
      <point x="27" y="262"/>
      <point x="27" y="278" type="curve" smooth="yes"/>
      <point x="27" y="294"/>
      <point x="40" y="308"/>
    </contour>
  </outline>
=======
<glyph name="hyphen" format="2">
	<unicode hex="002D"/>
	<advance width="592"/>
	<outline>
		<contour>
			<point x="158" y="308" type="curve" smooth="yes"/>
			<point x="158" y="308"/>
			<point x="335" y="308"/>
			<point x="440" y="308" type="curve" smooth="yes"/>
			<point x="457" y="308"/>
			<point x="470" y="294"/>
			<point x="470" y="278" type="curve" smooth="yes"/>
			<point x="470" y="262"/>
			<point x="456" y="248"/>
			<point x="440" y="248" type="curve" smooth="yes"/>
			<point x="332" y="248"/>
			<point x="158" y="248"/>
			<point x="158" y="248" type="curve" smooth="yes"/>
			<point x="142" y="248"/>
			<point x="128" y="262"/>
			<point x="128" y="278" type="curve" smooth="yes"/>
			<point x="128" y="294"/>
			<point x="141" y="308"/>
		</contour>
	</outline>
>>>>>>> origin/master
</glyph>
<<<<<<< HEAD
<glyph name="period" format="1">
  <advance width="176" height="176"/>
  <unicode hex="002E"/>
  <outline>
    <contour>
      <point x="54" y="33" type="curve" smooth="yes"/>
      <point x="54" y="52"/>
      <point x="69" y="68"/>
      <point x="88" y="68" type="curve" smooth="yes"/>
      <point x="107" y="68"/>
      <point x="122" y="52"/>
      <point x="122" y="33" type="curve" smooth="yes"/>
      <point x="122" y="14"/>
      <point x="107" y="-1"/>
      <point x="88" y="-1" type="curve" smooth="yes"/>
      <point x="69" y="-1"/>
      <point x="54" y="14"/>
    </contour>
  </outline>
=======
<glyph name="period" format="2">
	<unicode hex="002E"/>
	<advance width="216"/>
	<outline>
		<contour>
			<point x="74" y="33" type="curve" smooth="yes"/>
			<point x="74" y="52"/>
			<point x="89" y="68"/>
			<point x="108" y="68" type="curve" smooth="yes"/>
			<point x="127" y="68"/>
			<point x="142" y="52"/>
			<point x="142" y="33" type="curve" smooth="yes"/>
			<point x="142" y="14"/>
			<point x="127" y="-1"/>
			<point x="108" y="-1" type="curve" smooth="yes"/>
			<point x="89" y="-1"/>
			<point x="74" y="14"/>
		</contour>
	</outline>
>>>>>>> origin/master
</glyph>
<<<<<<< HEAD
<glyph name="slash" format="1">
  <advance width="274" height="274"/>
  <unicode hex="002F"/>
  <outline>
    <contour>
      <point x="30" y="20" type="curve" smooth="yes"/>
      <point x="93" y="220"/>
      <point x="128" y="333"/>
      <point x="192" y="536" type="curve" smooth="yes"/>
      <point x="204" y="575"/>
      <point x="260" y="561"/>
      <point x="246" y="519" type="curve" smooth="yes"/>
      <point x="183" y="316"/>
      <point x="147" y="205"/>
      <point x="84" y="3" type="curve" smooth="yes"/>
      <point x="72" y="-36"/>
      <point x="17" y="-22"/>
    </contour>
  </outline>
=======
<glyph name="slash" format="2">
	<unicode hex="002F"/>
	<advance width="328"/>
	<outline>
		<contour>
			<point x="59" y="20" type="curve" smooth="yes"/>
			<point x="122" y="220"/>
			<point x="157" y="333"/>
			<point x="221" y="536" type="curve" smooth="yes"/>
			<point x="233" y="575"/>
			<point x="289" y="561"/>
			<point x="275" y="519" type="curve" smooth="yes"/>
			<point x="212" y="316"/>
			<point x="176" y="205"/>
			<point x="113" y="3" type="curve" smooth="yes"/>
			<point x="101" y="-36"/>
			<point x="46" y="-22"/>
		</contour>
	</outline>
>>>>>>> origin/master
</glyph>
<<<<<<< HEAD
<glyph name="zero" format="1">
  <advance width="484" height="484"/>
  <unicode hex="0030"/>
  <outline>
    <contour>
      <point x="244.514" y="485" type="curve" smooth="yes"/>
      <point x="133.264" y="485"/>
      <point x="85.7012" y="389.994"/>
      <point x="87.0137" y="257.5" type="curve" smooth="yes"/>
      <point x="88.3623" y="121.25"/>
      <point x="135.764" y="55"/>
      <point x="244.514" y="55" type="curve" smooth="yes"/>
      <point x="347.021" y="55"/>
      <point x="394.079" y="122.5"/>
      <point x="397.014" y="257.5" type="curve" smooth="yes"/>
      <point x="399.812" y="386.25"/>
      <point x="355.771" y="485"/>
    </contour>
    <contour>
      <point x="244.514" y="545" type="curve" smooth="yes"/>
      <point x="382.014" y="545"/>
      <point x="460.478" y="435"/>
      <point x="457.014" y="257.5" type="curve" smooth="yes"/>
      <point x="454.135" y="110"/>
      <point x="401.106" y="-5"/>
      <point x="244.514" y="-5" type="curve" smooth="yes"/>
      <point x="93.2637" y="-5"/>
      <point x="25.8945" y="108.75"/>
      <point x="27.0137" y="257.5" type="curve" smooth="yes"/>
      <point x="28.3486" y="435"/>
      <point x="102.014" y="545"/>
    </contour>
  </outline>
=======
<glyph name="zero" format="2">
	<unicode hex="0030"/>
	<advance width="449"/>
	<outline>
		<contour>
			<point x="218" y="388" type="curve" smooth="yes"/>
			<point x="129" y="388"/>
			<point x="91" y="312"/>
			<point x="92" y="206" type="curve" smooth="yes"/>
			<point x="93" y="97"/>
			<point x="131" y="44"/>
			<point x="218" y="44" type="curve" smooth="yes"/>
			<point x="300" y="44"/>
			<point x="338" y="98"/>
			<point x="340" y="206" type="curve" smooth="yes"/>
			<point x="342" y="309"/>
			<point x="307" y="388"/>
		</contour>
		<contour>
			<point x="218" y="436" type="curve" smooth="yes"/>
			<point x="328" y="436"/>
			<point x="391" y="348"/>
			<point x="388" y="206" type="curve" smooth="yes"/>
			<point x="386" y="88"/>
			<point x="343" y="-4"/>
			<point x="218" y="-4" type="curve" smooth="yes"/>
			<point x="97" y="-4"/>
			<point x="43" y="87"/>
			<point x="44" y="206" type="curve" smooth="yes"/>
			<point x="45" y="348"/>
			<point x="104" y="436"/>
		</contour>
	</outline>
>>>>>>> origin/master
</glyph>
<<<<<<< HEAD
<glyph name="one" format="1">
  <advance width="226" height="226"/>
  <unicode hex="0031"/>
  <outline>
    <contour>
      <point x="55" y="422" type="curve" smooth="yes"/>
      <point x="38" y="422"/>
      <point x="27" y="434"/>
      <point x="27" y="448" type="curve" smooth="yes"/>
      <point x="27" y="459"/>
      <point x="32" y="469"/>
      <point x="44" y="477" type="curve" smooth="yes"/>
      <point x="79" y="501"/>
      <point x="99" y="514"/>
      <point x="118" y="527" type="curve" smooth="yes"/>
      <point x="133" y="538"/>
      <point x="150" y="545"/>
      <point x="165" y="545" type="curve" smooth="yes"/>
      <point x="184" y="545"/>
      <point x="199" y="533"/>
      <point x="199" y="500" type="curve" smooth="yes"/>
      <point x="199" y="0" type="line"/>
      <point x="139" y="0" type="line"/>
      <point x="139" y="469" type="line"/>
      <point x="118" y="455"/>
      <point x="99" y="441"/>
      <point x="76" y="428" type="curve" smooth="yes"/>
      <point x="69" y="424"/>
      <point x="62" y="422"/>
    </contour>
  </outline>
=======
<glyph name="one" format="2">
	<unicode hex="0031"/>
	<advance width="369"/>
	<outline>
		<contour>
			<point x="183" y="428" type="curve" smooth="yes"/>
			<point x="158" y="411"/>
			<point x="148" y="405"/>
			<point x="117" y="383" type="curve" smooth="yes"/>
			<point x="103" y="373"/>
			<point x="101" y="356"/>
			<point x="109" y="345" type="curve" smooth="yes"/>
			<point x="116" y="336"/>
			<point x="129" y="335"/>
			<point x="140" y="342" type="curve" smooth="yes"/>
			<point x="168" y="360"/>
			<point x="172" y="363"/>
			<point x="190" y="375" type="curve"/>
			<point x="190" y="0" type="line"/>
			<point x="213" y="0"/>
			<point x="211" y="0"/>
			<point x="238" y="0" type="curve"/>
			<point x="238" y="392" type="line" smooth="yes"/>
			<point x="238" y="436"/>
			<point x="216" y="450"/>
		</contour>
	</outline>
>>>>>>> origin/master
</glyph>
<<<<<<< HEAD
<glyph name="two" format="1">
  <advance width="540" height="540"/>
  <unicode hex="0032"/>
  <outline>
    <contour>
      <point x="428" y="368" type="curve" smooth="yes"/>
      <point x="428" y="199"/>
      <point x="169" y="142"/>
      <point x="131" y="60" type="curve"/>
      <point x="482" y="60" type="line" smooth="yes"/>
      <point x="501" y="60"/>
      <point x="513" y="49"/>
      <point x="513" y="30" type="curve" smooth="yes"/>
      <point x="513" y="10"/>
      <point x="500" y="0"/>
      <point x="482" y="0" type="curve" smooth="yes"/>
      <point x="90" y="0" type="line" smooth="yes"/>
      <point x="59" y="0"/>
      <point x="44" y="18"/>
      <point x="44" y="39" type="curve" smooth="yes"/>
      <point x="44" y="49"/>
      <point x="48.2354" y="59.126"/>
      <point x="55" y="70" type="curve" smooth="yes"/>
      <point x="134" y="197"/>
      <point x="369" y="240"/>
      <point x="369" y="376" type="curve" smooth="yes"/>
      <point x="369" y="458"/>
      <point x="295" y="498"/>
      <point x="228" y="498" type="curve" smooth="yes"/>
      <point x="170" y="498"/>
      <point x="121" y="466"/>
      <point x="90" y="426" type="curve" smooth="yes"/>
      <point x="79" y="412"/>
      <point x="67" y="403"/>
      <point x="55" y="403" type="curve" smooth="yes"/>
      <point x="38" y="403"/>
      <point x="27" y="418"/>
      <point x="27" y="432" type="curve" smooth="yes"/>
      <point x="27" y="440"/>
      <point x="30" y="450"/>
      <point x="37" y="460" type="curve" smooth="yes"/>
      <point x="69" y="508"/>
      <point x="136" y="558"/>
      <point x="226" y="558" type="curve" smooth="yes"/>
      <point x="342" y="558"/>
      <point x="428" y="485"/>
    </contour>
  </outline>
=======
<glyph name="two" format="2">
	<unicode hex="0032"/>
	<advance width="505"/>
	<outline>
		<contour>
			<point x="414" y="0" type="curve" smooth="yes"/>
			<point x="316" y="0"/>
			<point x="199" y="0"/>
			<point x="100" y="0" type="curve" smooth="yes"/>
			<point x="63" y="0"/>
			<point x="54" y="32"/>
			<point x="72" y="56" type="curve" smooth="yes"/>
			<point x="149" y="158"/>
			<point x="308" y="196"/>
			<point x="322" y="280" type="curve" smooth="yes"/>
			<point x="335" y="359"/>
			<point x="270" y="398"/>
			<point x="211" y="398" type="curve" smooth="yes"/>
			<point x="164" y="398"/>
			<point x="125" y="373"/>
			<point x="100" y="341" type="curve" smooth="yes"/>
			<point x="89" y="327"/>
			<point x="76" y="318"/>
			<point x="63" y="325" type="curve" smooth="yes"/>
			<point x="49" y="333"/>
			<point x="45" y="349"/>
			<point x="58" y="368" type="curve" smooth="yes"/>
			<point x="84" y="406"/>
			<point x="137" y="446"/>
			<point x="209" y="446" type="curve" smooth="yes"/>
			<point x="308" y="446"/>
			<point x="380" y="380"/>
			<point x="370" y="276" type="curve" smooth="yes"/>
			<point x="359" y="161"/>
			<point x="167" y="113"/>
			<point x="133" y="48" type="curve"/>
			<point x="239" y="46"/>
			<point x="308" y="48"/>
			<point x="414" y="48" type="curve" smooth="yes"/>
			<point x="429" y="48"/>
			<point x="439" y="39"/>
			<point x="439" y="24" type="curve" smooth="yes"/>
			<point x="439" y="8"/>
			<point x="428" y="0"/>
		</contour>
	</outline>
>>>>>>> origin/master
</glyph>
<<<<<<< HEAD
<glyph name="three" format="1">
  <advance width="499" height="499"/>
  <unicode hex="0033"/>
  <outline>
    <contour>
      <point x="247" y="-209" type="curve" smooth="yes"/>
      <point x="341" y="-209"/>
      <point x="408" y="-141"/>
      <point x="408" y="-39" type="curve" smooth="yes"/>
      <point x="408" y="50"/>
      <point x="357" y="128"/>
      <point x="257" y="128" type="curve" smooth="yes"/>
      <point x="242" y="128"/>
      <point x="187" y="130"/>
      <point x="180" y="130" type="curve" smooth="yes"/>
      <point x="162" y="130"/>
      <point x="149" y="144"/>
      <point x="149" y="159" type="curve" smooth="yes"/>
      <point x="149" y="174"/>
      <point x="160" y="190"/>
      <point x="180" y="190" type="curve" smooth="yes"/>
      <point x="187.071" y="190"/>
      <point x="242" y="192"/>
      <point x="261" y="192" type="curve" smooth="yes"/>
      <point x="342" y="192"/>
      <point x="383" y="249"/>
      <point x="383" y="312" type="curve" smooth="yes"/>
      <point x="383" y="385"/>
      <point x="325" y="429"/>
      <point x="256" y="429" type="curve" smooth="yes"/>
      <point x="194" y="429"/>
      <point x="139.966" y="404.656"/>
      <point x="115" y="336" type="curve" smooth="yes"/>
      <point x="111" y="325"/>
      <point x="99" y="315"/>
      <point x="86" y="315" type="curve" smooth="yes"/>
      <point x="64.7432" y="315"/>
      <point x="53.1182" y="333.59"/>
      <point x="58" y="358" type="curve" smooth="yes"/>
      <point x="73" y="433"/>
      <point x="146" y="491"/>
      <point x="256" y="491" type="curve" smooth="yes"/>
      <point x="360" y="491"/>
      <point x="443" y="425"/>
      <point x="443" y="310" type="curve" smooth="yes"/>
      <point x="443" y="245"/>
      <point x="418" y="185"/>
      <point x="382" y="160" type="curve"/>
      <point x="446" y="118"/>
      <point x="472" y="36"/>
      <point x="472" y="-41" type="curve" smooth="yes"/>
      <point x="472" y="-168"/>
      <point x="392" y="-270"/>
      <point x="247" y="-270" type="curve" smooth="yes"/>
      <point x="152" y="-270"/>
      <point x="77.082" y="-221.93"/>
      <point x="36" y="-174" type="curve" smooth="yes"/>
      <point x="30" y="-167"/>
      <point x="27" y="-158"/>
      <point x="27" y="-150" type="curve" smooth="yes"/>
      <point x="27" y="-134"/>
      <point x="37" y="-118"/>
      <point x="54" y="-118" type="curve" smooth="yes"/>
      <point x="63" y="-118"/>
      <point x="74.8428" y="-123.146"/>
      <point x="86" y="-135" type="curve" smooth="yes"/>
      <point x="118" y="-169"/>
      <point x="169" y="-209"/>
    </contour>
  </outline>
=======
<glyph name="three" format="2">
	<unicode hex="0033"/>
	<advance width="453"/>
	<outline>
		<contour>
			<point x="163" y="104" type="curve" smooth="yes"/>
			<point x="169" y="104"/>
			<point x="213" y="102"/>
			<point x="225" y="102" type="curve" smooth="yes"/>
			<point x="310" y="102"/>
			<point x="351" y="33"/>
			<point x="346" y="-43" type="curve" smooth="yes"/>
			<point x="341" y="-117"/>
			<point x="289" y="-167"/>
			<point x="217" y="-167" type="curve" smooth="yes"/>
			<point x="155" y="-167"/>
			<point x="114" y="-135"/>
			<point x="88" y="-108" type="curve" smooth="yes"/>
			<point x="73" y="-92"/>
			<point x="59" y="-91"/>
			<point x="49" y="-100" type="curve" smooth="yes"/>
			<point x="39" y="-109"/>
			<point x="37" y="-126"/>
			<point x="48" y="-139" type="curve" smooth="yes"/>
			<point x="81" y="-177"/>
			<point x="141" y="-216"/>
			<point x="217" y="-216" type="curve" smooth="yes"/>
			<point x="330" y="-216"/>
			<point x="393" y="-137"/>
			<point x="397" y="-43" type="curve" smooth="yes"/>
			<point x="400" y="21"/>
			<point x="379" y="93"/>
			<point x="325" y="128" type="curve"/>
			<point x="355" y="149"/>
			<point x="376" y="202"/>
			<point x="374" y="257" type="curve" smooth="yes"/>
			<point x="370" y="344"/>
			<point x="305" y="393"/>
			<point x="224" y="393" type="curve" smooth="yes"/>
			<point x="136" y="393"/>
			<point x="78" y="346"/>
			<point x="66" y="286" type="curve" smooth="yes"/>
			<point x="62" y="265"/>
			<point x="71" y="255"/>
			<point x="86" y="252" type="curve" smooth="yes"/>
			<point x="97" y="250"/>
			<point x="108" y="259"/>
			<point x="111" y="269" type="curve" smooth="yes"/>
			<point x="130" y="324"/>
			<point x="175" y="343"/>
			<point x="224" y="343" type="curve" smooth="yes"/>
			<point x="276" y="343"/>
			<point x="320" y="311"/>
			<point x="325" y="260" type="curve" smooth="yes"/>
			<point x="330" y="206"/>
			<point x="297" y="154"/>
			<point x="228" y="154" type="curve" smooth="yes"/>
			<point x="213" y="154"/>
			<point x="169" y="152"/>
			<point x="163" y="152" type="curve" smooth="yes"/>
			<point x="150" y="151"/>
			<point x="136" y="139"/>
			<point x="136" y="127" type="curve" smooth="yes"/>
			<point x="136" y="115"/>
			<point x="148" y="105"/>
		</contour>
	</outline>
>>>>>>> origin/master
</glyph>
<<<<<<< HEAD
<glyph name="four" format="1">
  <advance width="557" height="557"/>
  <unicode hex="0034"/>
  <outline>
    <contour>
      <point x="413.057" y="426.25" type="curve" smooth="yes"/>
      <point x="414.307" y="281.25"/>
      <point x="413.057" y="60"/>
      <point x="413.057" y="60" type="curve"/>
      <point x="413.057" y="60"/>
      <point x="485.557" y="60"/>
      <point x="505.557" y="60" type="curve" smooth="yes"/>
      <point x="521.807" y="60"/>
      <point x="530.29" y="43.2998"/>
      <point x="530.29" y="27.5" type="curve" smooth="yes"/>
      <point x="530.29" y="13.75"/>
      <point x="520.557" y="0"/>
      <point x="505.557" y="0" type="curve" smooth="yes"/>
      <point x="488.057" y="0"/>
      <point x="413.057" y="0"/>
      <point x="413.057" y="0" type="curve"/>
      <point x="413.057" y="0"/>
      <point x="413.057" y="-136.25"/>
      <point x="413.057" y="-241.25" type="curve" smooth="yes"/>
      <point x="413.057" y="-260.595"/>
      <point x="397.213" y="-271.353"/>
      <point x="381.807" y="-271.023" type="curve" smooth="yes"/>
      <point x="367.235" y="-270.712"/>
      <point x="353.057" y="-259.955"/>
      <point x="353.057" y="-241.25" type="curve" smooth="yes"/>
      <point x="353.057" y="-136.25"/>
      <point x="353.057" y="0"/>
      <point x="353.057" y="0" type="curve"/>
      <point x="244.202" y="0"/>
      <point x="169.307" y="0"/>
      <point x="93.0566" y="0" type="curve" smooth="yes"/>
      <point x="26.8066" y="0"/>
      <point x="13.5137" y="48.75"/>
      <point x="39.3066" y="85" type="curve" smooth="yes"/>
      <point x="85.5566" y="150"/>
      <point x="185.557" y="293.75"/>
      <point x="301.807" y="452.5" type="curve" smooth="yes"/>
      <point x="346.659" y="513.75"/>
      <point x="412.367" y="506.25"/>
    </contour>
    <contour>
      <point x="353.057" y="60" type="line"/>
      <point x="353.057" y="416.25" type="line"/>
      <point x="95.5566" y="60" type="line"/>
    </contour>
  </outline>
=======
<glyph name="four" format="2">
	<unicode hex="0034"/>
	<advance width="470"/>
	<outline>
		<contour>
			<point x="343" y="341" type="curve" smooth="yes"/>
			<point x="344" y="225"/>
			<point x="343" y="48"/>
			<point x="343" y="48" type="curve"/>
			<point x="343" y="48"/>
			<point x="401" y="48"/>
			<point x="417" y="48" type="curve" smooth="yes"/>
			<point x="430" y="48"/>
			<point x="437" y="35"/>
			<point x="437" y="22" type="curve" smooth="yes"/>
			<point x="437" y="11"/>
			<point x="429" y="0"/>
			<point x="417" y="0" type="curve" smooth="yes"/>
			<point x="403" y="0"/>
			<point x="343" y="0"/>
			<point x="343" y="0" type="curve"/>
			<point x="343" y="0"/>
			<point x="343" y="-109"/>
			<point x="343" y="-193" type="curve" smooth="yes"/>
			<point x="343" y="-208"/>
			<point x="330" y="-217"/>
			<point x="318" y="-217" type="curve" smooth="yes"/>
			<point x="306" y="-217"/>
			<point x="295" y="-208"/>
			<point x="295" y="-193" type="curve" smooth="yes"/>
			<point x="295" y="-109"/>
			<point x="295" y="0"/>
			<point x="295" y="0" type="curve"/>
			<point x="208" y="0"/>
			<point x="148" y="0"/>
			<point x="87" y="0" type="curve" smooth="yes"/>
			<point x="34" y="0"/>
			<point x="23" y="39"/>
			<point x="44" y="68" type="curve" smooth="yes"/>
			<point x="81" y="120"/>
			<point x="161" y="235"/>
			<point x="254" y="362" type="curve" smooth="yes"/>
			<point x="290" y="411"/>
			<point x="342" y="405"/>
		</contour>
		<contour>
			<point x="295" y="48" type="line"/>
			<point x="295" y="333" type="line"/>
			<point x="89" y="48" type="line"/>
		</contour>
	</outline>
>>>>>>> origin/master
</glyph>
<<<<<<< HEAD
<glyph name="five" format="1">
  <advance width="543" height="543"/>
  <unicode hex="0035"/>
  <outline>
    <contour>
      <point x="166.595" y="129.644" type="curve" smooth="yes"/>
      <point x="352.917" y="166.118"/>
      <point x="424.095" y="80"/>
      <point x="420.345" y="-50" type="curve" smooth="yes"/>
      <point x="417.775" y="-139.1"/>
      <point x="346.595" y="-208.75"/>
      <point x="255.345" y="-208.75" type="curve" smooth="yes"/>
      <point x="197.845" y="-208.75"/>
      <point x="131.594" y="-190.001"/>
      <point x="86.5947" y="-135" type="curve" smooth="yes"/>
      <point x="72.2773" y="-117.5"/>
      <point x="52.8447" y="-112.5"/>
      <point x="36.5947" y="-126.25" type="curve" smooth="yes"/>
      <point x="24.1533" y="-136.777"/>
      <point x="24.3428" y="-159.165"/>
      <point x="34.0947" y="-170" type="curve" smooth="yes"/>
      <point x="101.595" y="-245"/>
      <point x="166.517" y="-270"/>
      <point x="255.345" y="-270" type="curve" smooth="yes"/>
      <point x="369.095" y="-270"/>
      <point x="480.338" y="-174.002"/>
      <point x="484.095" y="-50" type="curve" smooth="yes"/>
      <point x="491.595" y="197.5"/>
      <point x="276.595" y="211.25"/>
      <point x="157.845" y="188.75" type="curve"/>
      <point x="239.095" y="433.75" type="line"/>
      <point x="239.095" y="433.75"/>
      <point x="371.595" y="433.75"/>
      <point x="485.345" y="433.75" type="curve" smooth="yes"/>
      <point x="505.975" y="433.75"/>
      <point x="516.367" y="448.648"/>
      <point x="516.525" y="462.5" type="curve" smooth="yes"/>
      <point x="516.688" y="476.768"/>
      <point x="506.293" y="493.75"/>
      <point x="485.345" y="493.75" type="curve" smooth="yes"/>
      <point x="237.845" y="493.75" type="line" smooth="yes"/>
      <point x="205.345" y="493.75"/>
      <point x="188.978" y="480.873"/>
      <point x="177.845" y="445" type="curve" smooth="yes"/>
      <point x="155.345" y="372.5"/>
      <point x="129.095" y="290"/>
      <point x="98.2812" y="197.5" type="curve" smooth="yes"/>
      <point x="77.8154" y="136.062"/>
      <point x="119.095" y="120.344"/>
    </contour>
  </outline>
=======
<glyph name="five" format="2">
	<unicode hex="0035"/>
	<advance width="457"/>
	<outline>
		<contour>
			<point x="147" y="104" type="curve" smooth="yes"/>
			<point x="296" y="133"/>
			<point x="353" y="64"/>
			<point x="350" y="-40" type="curve" smooth="yes"/>
			<point x="348" y="-111"/>
			<point x="291" y="-167"/>
			<point x="218" y="-167" type="curve" smooth="yes"/>
			<point x="172" y="-167"/>
			<point x="119" y="-152"/>
			<point x="83" y="-108" type="curve" smooth="yes"/>
			<point x="72" y="-94"/>
			<point x="56" y="-90"/>
			<point x="43" y="-101" type="curve" smooth="yes"/>
			<point x="33" y="-109"/>
			<point x="33" y="-127"/>
			<point x="41" y="-136" type="curve" smooth="yes"/>
			<point x="95" y="-196"/>
			<point x="147" y="-216"/>
			<point x="218" y="-216" type="curve" smooth="yes"/>
			<point x="309" y="-216"/>
			<point x="398" y="-139"/>
			<point x="401" y="-40" type="curve" smooth="yes"/>
			<point x="407" y="158"/>
			<point x="235" y="169"/>
			<point x="140" y="151" type="curve"/>
			<point x="205" y="347" type="line"/>
			<point x="205" y="347"/>
			<point x="311" y="347"/>
			<point x="402" y="347" type="curve" smooth="yes"/>
			<point x="419" y="347"/>
			<point x="427" y="359"/>
			<point x="427" y="370" type="curve" smooth="yes"/>
			<point x="427" y="381"/>
			<point x="419" y="395"/>
			<point x="402" y="395" type="curve" smooth="yes"/>
			<point x="204" y="395" type="line" smooth="yes"/>
			<point x="178" y="395"/>
			<point x="165" y="385"/>
			<point x="156" y="356" type="curve" smooth="yes"/>
			<point x="138" y="298"/>
			<point x="117" y="232"/>
			<point x="92" y="158" type="curve" smooth="yes"/>
			<point x="76" y="109"/>
			<point x="109" y="96"/>
		</contour>
	</outline>
>>>>>>> origin/master
</glyph>
<<<<<<< HEAD
<glyph name="six" format="1">
  <advance width="507" height="507"/>
  <unicode hex="0036"/>
  <outline>
    <contour>
      <point x="480.75" y="211.25" type="curve" smooth="yes"/>
      <point x="483.2" y="87.5"/>
      <point x="397" y="-6.25"/>
      <point x="255.75" y="-6.25" type="curve" smooth="yes"/>
      <point x="109.5" y="-6.25"/>
      <point x="27" y="102.495"/>
      <point x="27" y="250" type="curve" smooth="yes"/>
      <point x="27" y="483.75"/>
      <point x="190.391" y="733.801"/>
      <point x="434.5" y="805" type="curve" smooth="yes"/>
      <point x="453.25" y="810.469"/>
      <point x="470.75" y="806.25"/>
      <point x="475.75" y="791.25" type="curve" smooth="yes"/>
      <point x="480.3" y="777.602"/>
      <point x="477.443" y="757.814"/>
      <point x="455.75" y="751.25" type="curve" smooth="yes"/>
      <point x="265.75" y="693.75"/>
      <point x="137" y="530"/>
      <point x="100.75" y="362.5" type="curve"/>
      <point x="128.25" y="402.5"/>
      <point x="195.75" y="426.25"/>
      <point x="258.25" y="426.25" type="curve" smooth="yes"/>
      <point x="374.5" y="426.25"/>
      <point x="477.929" y="353.722"/>
    </contour>
    <contour>
      <point x="94.5" y="213.75" type="curve" smooth="yes"/>
      <point x="94.5" y="125"/>
      <point x="159.5" y="53.75"/>
      <point x="255.75" y="53.75" type="curve" smooth="yes"/>
      <point x="362" y="53.75"/>
      <point x="419.5" y="118.75"/>
      <point x="419.5" y="213.75" type="curve" smooth="yes"/>
      <point x="419.5" y="295"/>
      <point x="353.25" y="366.25"/>
      <point x="255.75" y="366.25" type="curve" smooth="yes"/>
      <point x="154.5" y="366.25"/>
      <point x="94.5" y="295.048"/>
    </contour>
  </outline>
=======
<glyph name="six" format="2">
	<unicode hex="0036"/>
	<advance width="465"/>
	<outline>
		<contour>
			<point x="412" y="169" type="curve" smooth="yes"/>
			<point x="414" y="70"/>
			<point x="345" y="-5"/>
			<point x="232" y="-5" type="curve" smooth="yes"/>
			<point x="115" y="-5"/>
			<point x="49" y="82"/>
			<point x="49" y="200" type="curve" smooth="yes"/>
			<point x="49" y="387"/>
			<point x="180" y="587"/>
			<point x="375" y="644" type="curve" smooth="yes"/>
			<point x="390" y="648"/>
			<point x="404" y="645"/>
			<point x="408" y="633" type="curve" smooth="yes"/>
			<point x="412" y="622"/>
			<point x="409" y="606"/>
			<point x="392" y="601" type="curve" smooth="yes"/>
			<point x="240" y="555"/>
			<point x="137" y="424"/>
			<point x="108" y="290" type="curve"/>
			<point x="130" y="322"/>
			<point x="184" y="341"/>
			<point x="234" y="341" type="curve" smooth="yes"/>
			<point x="327" y="341"/>
			<point x="410" y="283"/>
		</contour>
		<contour>
			<point x="103" y="171" type="curve" smooth="yes"/>
			<point x="103" y="100"/>
			<point x="155" y="43"/>
			<point x="232" y="43" type="curve" smooth="yes"/>
			<point x="317" y="43"/>
			<point x="363" y="95"/>
			<point x="363" y="171" type="curve" smooth="yes"/>
			<point x="363" y="236"/>
			<point x="310" y="293"/>
			<point x="232" y="293" type="curve" smooth="yes"/>
			<point x="151" y="293"/>
			<point x="103" y="236"/>
		</contour>
	</outline>
>>>>>>> origin/master
</glyph>
<<<<<<< HEAD
<glyph name="seven" format="1">
  <advance width="539" height="539"/>
  <unicode hex="0037"/>
  <outline>
    <contour>
      <point x="109.569" y="-241.25" type="curve" smooth="yes"/>
      <point x="94.7129" y="-266.017"/>
      <point x="76.7275" y="-270.529"/>
      <point x="60.8193" y="-261.25" type="curve" smooth="yes"/>
      <point x="45.8193" y="-252.5"/>
      <point x="45.3613" y="-232.847"/>
      <point x="54.5693" y="-217.5" type="curve" smooth="yes"/>
      <point x="137.069" y="-80"/>
      <point x="365.819" y="296.25"/>
      <point x="449.569" y="432.5" type="curve"/>
      <point x="449.569" y="432.5"/>
      <point x="153.319" y="432.5"/>
      <point x="58.3193" y="432.5" type="curve" smooth="yes"/>
      <point x="43.3193" y="432.5"/>
      <point x="27" y="443.75"/>
      <point x="27" y="462.5" type="curve" smooth="yes"/>
      <point x="27" y="481.867"/>
      <point x="42.0693" y="495"/>
      <point x="57.0693" y="495" type="curve" smooth="yes"/>
      <point x="454.569" y="495" type="line" smooth="yes"/>
      <point x="505.819" y="495"/>
      <point x="528.053" y="450.389"/>
      <point x="500.819" y="405" type="curve" smooth="yes"/>
      <point x="429.569" y="286.25"/>
      <point x="179.407" y="-124.833"/>
    </contour>
  </outline>
=======
<glyph name="seven" format="2">
	<unicode hex="0037"/>
	<advance width="505"/>
	<outline>
		<contour>
			<point x="119" y="-193" type="curve" smooth="yes"/>
			<point x="107" y="-213"/>
			<point x="93" y="-216"/>
			<point x="80" y="-209" type="curve" smooth="yes"/>
			<point x="68" y="-202"/>
			<point x="68" y="-186"/>
			<point x="75" y="-174" type="curve" smooth="yes"/>
			<point x="141" y="-64"/>
			<point x="324" y="237"/>
			<point x="391" y="346" type="curve"/>
			<point x="391" y="346"/>
			<point x="154" y="346"/>
			<point x="78" y="346" type="curve" smooth="yes"/>
			<point x="66" y="346"/>
			<point x="53" y="355"/>
			<point x="53" y="370" type="curve" smooth="yes"/>
			<point x="53" y="385"/>
			<point x="65" y="396"/>
			<point x="77" y="396" type="curve" smooth="yes"/>
			<point x="395" y="396" type="line" smooth="yes"/>
			<point x="436" y="396"/>
			<point x="454" y="360"/>
			<point x="432" y="324" type="curve" smooth="yes"/>
			<point x="375" y="229"/>
			<point x="175" y="-100"/>
		</contour>
	</outline>
>>>>>>> origin/master
</glyph>
<<<<<<< HEAD
<glyph name="eight" format="1">
  <advance width="521" height="521"/>
  <unicode hex="0038"/>
  <outline>
    <contour>
      <point x="261.853" y="403.75" type="curve"/>
      <point x="124.353" y="370"/>
      <point x="94.001" y="283.912"/>
      <point x="88.1025" y="225" type="curve" smooth="yes"/>
      <point x="78.043" y="124.526"/>
      <point x="145.603" y="47.5"/>
      <point x="260.603" y="47.5" type="curve" smooth="yes"/>
      <point x="363.109" y="47.5"/>
      <point x="442.369" y="122.789"/>
      <point x="434.353" y="225" type="curve" smooth="yes"/>
      <point x="429.353" y="288.75"/>
      <point x="394.353" y="372.455"/>
    </contour>
    <contour>
      <point x="260.603" y="757.5" type="curve" smooth="yes"/>
      <point x="177.903" y="757.5"/>
      <point x="115.603" y="700"/>
      <point x="125.403" y="616.25" type="curve" smooth="yes"/>
      <point x="133.01" y="551.25"/>
      <point x="189.353" y="487.5"/>
      <point x="261.853" y="476.25" type="curve"/>
      <point x="339.353" y="492.5"/>
      <point x="387.26" y="552.5"/>
      <point x="396.653" y="616.25" type="curve" smooth="yes"/>
      <point x="409.362" y="702.5"/>
      <point x="346.653" y="757.5"/>
    </contour>
    <contour>
      <point x="260.603" y="817.5" type="curve" smooth="yes"/>
      <point x="414.353" y="817.5"/>
      <point x="467.019" y="701.25"/>
      <point x="457.903" y="617.5" type="curve" smooth="yes"/>
      <point x="451.917" y="562.5"/>
      <point x="431.853" y="492.5"/>
      <point x="332.408" y="442.495" type="curve"/>
      <point x="451.853" y="390"/>
      <point x="487.885" y="322.5"/>
      <point x="494.353" y="230" type="curve" smooth="yes"/>
      <point x="502.171" y="118.172"/>
      <point x="430.896" y="-12.5"/>
      <point x="260.603" y="-12.5" type="curve" smooth="yes"/>
      <point x="95.6025" y="-12.5"/>
      <point x="16.5723" y="108.75"/>
      <point x="28.1025" y="230" type="curve" smooth="yes"/>
      <point x="36.2012" y="315.184"/>
      <point x="71.8525" y="387.5"/>
      <point x="191.653" y="442.231" type="curve"/>
      <point x="99.3525" y="481.25"/>
      <point x="70.749" y="558.75"/>
      <point x="64.1533" y="615" type="curve" smooth="yes"/>
      <point x="54.9209" y="693.75"/>
      <point x="110.603" y="817.5"/>
    </contour>
  </outline>
=======
<glyph name="eight" format="2">
	<unicode hex="0038"/>
	<advance width="481"/>
	<outline>
		<contour>
			<point x="238" y="323" type="curve"/>
			<point x="128" y="296"/>
			<point x="104" y="227"/>
			<point x="99" y="180" type="curve" smooth="yes"/>
			<point x="91" y="100"/>
			<point x="145" y="38"/>
			<point x="237" y="38" type="curve" smooth="yes"/>
			<point x="319" y="38"/>
			<point x="382" y="98"/>
			<point x="376" y="180" type="curve" smooth="yes"/>
			<point x="372" y="231"/>
			<point x="344" y="298"/>
		</contour>
		<contour>
			<point x="237" y="606" type="curve" smooth="yes"/>
			<point x="171" y="606"/>
			<point x="121" y="560"/>
			<point x="129" y="493" type="curve" smooth="yes"/>
			<point x="135" y="441"/>
			<point x="180" y="390"/>
			<point x="238" y="381" type="curve"/>
			<point x="300" y="394"/>
			<point x="338" y="442"/>
			<point x="346" y="493" type="curve" smooth="yes"/>
			<point x="356" y="562"/>
			<point x="306" y="606"/>
		</contour>
		<contour>
			<point x="237" y="654" type="curve" smooth="yes"/>
			<point x="360" y="654"/>
			<point x="402" y="561"/>
			<point x="395" y="494" type="curve" smooth="yes"/>
			<point x="390" y="450"/>
			<point x="374" y="394"/>
			<point x="294" y="354" type="curve"/>
			<point x="390" y="312"/>
			<point x="419" y="258"/>
			<point x="424" y="184" type="curve" smooth="yes"/>
			<point x="430" y="95"/>
			<point x="373" y="-10"/>
			<point x="237" y="-10" type="curve" smooth="yes"/>
			<point x="105" y="-10"/>
			<point x="42" y="87"/>
			<point x="51" y="184" type="curve" smooth="yes"/>
			<point x="57" y="252"/>
			<point x="86" y="310"/>
			<point x="182" y="354" type="curve"/>
			<point x="108" y="385"/>
			<point x="85" y="447"/>
			<point x="80" y="492" type="curve" smooth="yes"/>
			<point x="72" y="555"/>
			<point x="117" y="654"/>
		</contour>
	</outline>
>>>>>>> origin/master
</glyph>
<<<<<<< HEAD
<glyph name="nine" format="1">
  <advance width="507" height="507"/>
  <unicode hex="0039"/>
  <outline>
    <contour>
      <point x="27.0508" y="328.75" type="curve" smooth="yes"/>
      <point x="24.6016" y="452.5"/>
      <point x="110.801" y="546.25"/>
      <point x="252.051" y="546.25" type="curve" smooth="yes"/>
      <point x="398.301" y="546.25"/>
      <point x="480.801" y="437.505"/>
      <point x="480.801" y="290" type="curve" smooth="yes"/>
      <point x="480.801" y="56.25"/>
      <point x="317.41" y="-193.801"/>
      <point x="73.3008" y="-265" type="curve" smooth="yes"/>
      <point x="54.5508" y="-270.469"/>
      <point x="37.0508" y="-266.25"/>
      <point x="32.0508" y="-251.25" type="curve" smooth="yes"/>
      <point x="27.502" y="-237.602"/>
      <point x="30.3584" y="-217.814"/>
      <point x="52.0508" y="-211.25" type="curve" smooth="yes"/>
      <point x="242.051" y="-153.75"/>
      <point x="370.801" y="10"/>
      <point x="407.051" y="177.5" type="curve"/>
      <point x="379.551" y="137.5"/>
      <point x="312.051" y="113.75"/>
      <point x="249.551" y="113.75" type="curve" smooth="yes"/>
      <point x="133.301" y="113.75"/>
      <point x="29.8721" y="186.278"/>
    </contour>
    <contour>
      <point x="413.301" y="326.25" type="curve" smooth="yes"/>
      <point x="413.301" y="415"/>
      <point x="348.301" y="486.25"/>
      <point x="252.051" y="486.25" type="curve" smooth="yes"/>
      <point x="145.801" y="486.25"/>
      <point x="88.3008" y="421.25"/>
      <point x="88.3008" y="326.25" type="curve" smooth="yes"/>
      <point x="88.3008" y="245"/>
      <point x="154.551" y="173.75"/>
      <point x="252.051" y="173.75" type="curve" smooth="yes"/>
      <point x="353.301" y="173.75"/>
      <point x="413.301" y="244.952"/>
    </contour>
  </outline>
=======
<glyph name="nine" format="2">
	<unicode hex="0039"/>
	<advance width="493"/>
	<outline>
		<contour>
			<point x="69" y="263" type="curve" smooth="yes"/>
			<point x="67" y="362"/>
			<point x="136" y="437"/>
			<point x="249" y="437" type="curve" smooth="yes"/>
			<point x="366" y="437"/>
			<point x="432" y="350"/>
			<point x="432" y="232" type="curve" smooth="yes"/>
			<point x="432" y="45"/>
			<point x="301" y="-155"/>
			<point x="106" y="-212" type="curve" smooth="yes"/>
			<point x="91" y="-216"/>
			<point x="77" y="-213"/>
			<point x="73" y="-201" type="curve" smooth="yes"/>
			<point x="69" y="-190"/>
			<point x="72" y="-174"/>
			<point x="89" y="-169" type="curve" smooth="yes"/>
			<point x="241" y="-123"/>
			<point x="344" y="8"/>
			<point x="373" y="142" type="curve"/>
			<point x="351" y="110"/>
			<point x="297" y="91"/>
			<point x="247" y="91" type="curve" smooth="yes"/>
			<point x="154" y="91"/>
			<point x="71" y="149"/>
		</contour>
		<contour>
			<point x="378" y="261" type="curve" smooth="yes"/>
			<point x="378" y="332"/>
			<point x="326" y="389"/>
			<point x="249" y="389" type="curve" smooth="yes"/>
			<point x="164" y="389"/>
			<point x="118" y="337"/>
			<point x="118" y="261" type="curve" smooth="yes"/>
			<point x="118" y="196"/>
			<point x="171" y="139"/>
			<point x="249" y="139" type="curve" smooth="yes"/>
			<point x="330" y="139"/>
			<point x="378" y="196"/>
		</contour>
	</outline>
>>>>>>> origin/master
</glyph>
<<<<<<< HEAD
<glyph name="less" format="1">
  <advance width="462" height="462"/>
  <unicode hex="003C"/>
  <outline>
    <contour>
      <point x="393" y="108" type="curve" smooth="yes"/>
      <point x="50" y="242" type="line" smooth="yes"/>
      <point x="18" y="255"/>
      <point x="18" y="298"/>
      <point x="51" y="311" type="curve" smooth="yes"/>
      <point x="51" y="311"/>
      <point x="274" y="398"/>
      <point x="393" y="444" type="curve" smooth="yes"/>
      <point x="406" y="449"/>
      <point x="426" y="446"/>
      <point x="432" y="430" type="curve" smooth="yes"/>
      <point x="439" y="413"/>
      <point x="427" y="396"/>
      <point x="414" y="391" type="curve" smooth="yes"/>
      <point x="293" y="344"/>
      <point x="119" y="276"/>
      <point x="119" y="276" type="curve"/>
      <point x="414" y="161" type="line" smooth="yes"/>
      <point x="431" y="154"/>
      <point x="439" y="139"/>
      <point x="432" y="122" type="curve" smooth="yes"/>
      <point x="426" y="106"/>
      <point x="410" y="102"/>
    </contour>
  </outline>
=======
<glyph name="less" format="2">
	<unicode hex="003C"/>
	<advance width="599"/>
	<outline>
		<contour>
			<point x="449" y="108" type="curve" smooth="yes"/>
			<point x="106" y="242" type="line" smooth="yes"/>
			<point x="74" y="255"/>
			<point x="74" y="298"/>
			<point x="107" y="311" type="curve" smooth="yes"/>
			<point x="107" y="311"/>
			<point x="330" y="398"/>
			<point x="449" y="444" type="curve" smooth="yes"/>
			<point x="462" y="449"/>
			<point x="482" y="446"/>
			<point x="488" y="430" type="curve" smooth="yes"/>
			<point x="495" y="413"/>
			<point x="483" y="396"/>
			<point x="470" y="391" type="curve" smooth="yes"/>
			<point x="349" y="344"/>
			<point x="175" y="276"/>
			<point x="175" y="276" type="curve"/>
			<point x="470" y="161" type="line" smooth="yes"/>
			<point x="487" y="154"/>
			<point x="495" y="139"/>
			<point x="488" y="122" type="curve" smooth="yes"/>
			<point x="482" y="106"/>
			<point x="466" y="101"/>
		</contour>
	</outline>
>>>>>>> origin/master
</glyph>
<<<<<<< HEAD
<glyph name="equal" format="1">
  <advance width="396" height="396"/>
  <unicode hex="003D"/>
  <outline>
    <contour>
      <point x="57" y="212" type="curve" smooth="yes"/>
      <point x="339" y="212" type="line" smooth="yes"/>
      <point x="356" y="212"/>
      <point x="369" y="198"/>
      <point x="369" y="182" type="curve" smooth="yes"/>
      <point x="369" y="166"/>
      <point x="355" y="152"/>
      <point x="339" y="152" type="curve" smooth="yes"/>
      <point x="57" y="152" type="line" smooth="yes"/>
      <point x="41" y="152"/>
      <point x="27" y="166"/>
      <point x="27" y="182" type="curve" smooth="yes"/>
      <point x="27" y="198"/>
      <point x="40" y="212"/>
    </contour>
    <contour>
      <point x="57" y="382" type="curve" smooth="yes"/>
      <point x="339" y="382" type="line" smooth="yes"/>
      <point x="356" y="382"/>
      <point x="369" y="368"/>
      <point x="369" y="352" type="curve" smooth="yes"/>
      <point x="369" y="336"/>
      <point x="355" y="322"/>
      <point x="339" y="322" type="curve" smooth="yes"/>
      <point x="57" y="322" type="line" smooth="yes"/>
      <point x="41" y="322"/>
      <point x="27" y="336"/>
      <point x="27" y="352" type="curve" smooth="yes"/>
      <point x="27" y="368"/>
      <point x="40" y="382"/>
    </contour>
  </outline>
=======
<glyph name="equal" format="2">
	<unicode hex="003D"/>
	<advance width="592"/>
	<outline>
		<contour>
			<point x="158" y="212" type="curve" smooth="yes"/>
			<point x="440" y="212" type="line" smooth="yes"/>
			<point x="457" y="212"/>
			<point x="470" y="198"/>
			<point x="470" y="182" type="curve" smooth="yes"/>
			<point x="470" y="166"/>
			<point x="456" y="152"/>
			<point x="440" y="152" type="curve" smooth="yes"/>
			<point x="158" y="152" type="line" smooth="yes"/>
			<point x="142" y="152"/>
			<point x="128" y="166"/>
			<point x="128" y="182" type="curve" smooth="yes"/>
			<point x="128" y="198"/>
			<point x="141" y="212"/>
		</contour>
		<contour>
			<point x="158" y="382" type="curve" smooth="yes"/>
			<point x="440" y="382" type="line" smooth="yes"/>
			<point x="457" y="382"/>
			<point x="470" y="368"/>
			<point x="470" y="352" type="curve" smooth="yes"/>
			<point x="470" y="336"/>
			<point x="456" y="322"/>
			<point x="440" y="322" type="curve" smooth="yes"/>
			<point x="158" y="322" type="line" smooth="yes"/>
			<point x="142" y="322"/>
			<point x="128" y="336"/>
			<point x="128" y="352" type="curve" smooth="yes"/>
			<point x="128" y="368"/>
			<point x="141" y="382"/>
		</contour>
	</outline>
>>>>>>> origin/master
</glyph>
<<<<<<< HEAD
<glyph name="question" format="1">
  <advance width="535" height="535"/>
  <unicode hex="003F"/>
  <outline>
    <contour>
      <point x="418" y="550" type="curve" smooth="yes"/>
      <point x="418" y="631"/>
      <point x="358" y="689"/>
      <point x="276" y="689" type="curve" smooth="yes"/>
      <point x="179" y="689"/>
      <point x="134.43" y="635.542"/>
      <point x="112" y="568" type="curve" smooth="yes"/>
      <point x="105.69" y="549"/>
      <point x="95" y="541"/>
      <point x="81" y="541" type="curve" smooth="yes"/>
      <point x="55.8438" y="541"/>
      <point x="50.998" y="565"/>
      <point x="56" y="590" type="curve" smooth="yes"/>
      <point x="72.5745" y="672.839"/>
      <point x="146" y="748"/>
      <point x="276" y="748" type="curve" smooth="yes"/>
      <point x="397" y="748"/>
      <point x="481" y="672"/>
      <point x="481" y="550" type="curve" smooth="yes"/>
      <point x="481" y="372"/>
      <point x="266" y="324"/>
      <point x="266" y="183" type="curve" smooth="yes"/>
      <point x="266" y="156"/>
      <point x="255" y="142"/>
      <point x="236" y="142" type="curve" smooth="yes"/>
      <point x="216" y="142"/>
      <point x="203.856" y="157"/>
      <point x="204" y="183" type="curve" smooth="yes"/>
      <point x="205" y="364"/>
      <point x="418" y="402"/>
    </contour>
    <component base="period" xOffset="148" yOffset="-1"/>
  </outline>
=======
<glyph name="question" format="2">
	<unicode hex="003F"/>
	<advance width="613"/>
	<outline>
		<contour>
			<point x="114" y="542" type="curve" smooth="yes"/>
			<point x="89" y="542"/>
			<point x="82" y="569"/>
			<point x="88" y="590" type="curve" smooth="yes"/>
			<point x="112" y="671"/>
			<point x="178" y="748"/>
			<point x="308" y="748" type="curve" smooth="yes"/>
			<point x="427" y="748"/>
			<point x="512" y="664"/>
			<point x="513" y="556" type="curve" smooth="yes"/>
			<point x="514" y="368"/>
			<point x="298" y="329"/>
			<point x="298" y="183" type="curve" smooth="yes"/>
			<point x="298" y="156"/>
			<point x="287" y="142"/>
			<point x="268" y="142" type="curve" smooth="yes"/>
			<point x="248" y="142"/>
			<point x="236" y="157"/>
			<point x="236" y="183" type="curve" smooth="yes"/>
			<point x="237" y="356"/>
			<point x="452" y="398"/>
			<point x="450" y="548" type="curve" smooth="yes"/>
			<point x="449" y="622"/>
			<point x="393" y="689"/>
			<point x="309" y="689" type="curve" smooth="yes"/>
			<point x="212" y="689"/>
			<point x="167" y="636"/>
			<point x="146" y="568" type="curve" smooth="yes"/>
			<point x="141" y="553"/>
			<point x="128" y="542"/>
		</contour>
		<component base="period" xOffset="163" yOffset="-1"/>
	</outline>
>>>>>>> origin/master
</glyph>
<<<<<<< HEAD
<glyph name="bracketleft" format="1">
  <advance width="211" height="211"/>
  <unicode hex="005B"/>
  <outline>
    <contour>
      <point x="27" y="-290" type="curve" smooth="yes"/>
      <point x="27" y="830" type="line" smooth="yes"/>
      <point x="27" y="850"/>
      <point x="39" y="860"/>
      <point x="58" y="860" type="curve" smooth="yes"/>
      <point x="159" y="860" type="line" smooth="yes"/>
      <point x="172" y="860"/>
      <point x="184" y="848"/>
      <point x="184" y="832" type="curve" smooth="yes"/>
      <point x="184" y="816"/>
      <point x="174" y="805"/>
      <point x="159" y="805" type="curve" smooth="yes"/>
      <point x="84" y="805" type="line"/>
      <point x="84" y="-265" type="line"/>
      <point x="159" y="-265" type="line" smooth="yes"/>
      <point x="174" y="-265"/>
      <point x="184" y="-276"/>
      <point x="184" y="-292" type="curve" smooth="yes"/>
      <point x="184" y="-308"/>
      <point x="172" y="-320"/>
      <point x="159" y="-320" type="curve" smooth="yes"/>
      <point x="58" y="-320" type="line" smooth="yes"/>
      <point x="39" y="-320"/>
      <point x="27" y="-310"/>
    </contour>
  </outline>
=======
<glyph name="bracketleft" format="2">
	<unicode hex="005B"/>
	<advance width="340"/>
	<outline>
		<contour>
			<point x="87" y="-290" type="line"/>
			<point x="87" y="-310"/>
			<point x="99" y="-320"/>
			<point x="118" y="-320" type="curve" smooth="yes"/>
			<point x="118" y="-320"/>
			<point x="183" y="-320"/>
			<point x="219" y="-320" type="curve" smooth="yes"/>
			<point x="232" y="-320"/>
			<point x="244" y="-308"/>
			<point x="244" y="-292" type="curve" smooth="yes"/>
			<point x="244" y="-276"/>
			<point x="234" y="-265"/>
			<point x="219" y="-265" type="curve" smooth="yes"/>
			<point x="190" y="-265"/>
			<point x="144" y="-265"/>
			<point x="144" y="-265" type="curve"/>
			<point x="144" y="805" type="line"/>
			<point x="144" y="805"/>
			<point x="190" y="805"/>
			<point x="219" y="805" type="curve" smooth="yes"/>
			<point x="234" y="805"/>
			<point x="244" y="816"/>
			<point x="244" y="832" type="curve" smooth="yes"/>
			<point x="244" y="848"/>
			<point x="232" y="860"/>
			<point x="219" y="860" type="curve" smooth="yes"/>
			<point x="183" y="860"/>
			<point x="118" y="860"/>
			<point x="118" y="860" type="curve" smooth="yes"/>
			<point x="99" y="860"/>
			<point x="87" y="850"/>
			<point x="87" y="830" type="curve" smooth="yes"/>
		</contour>
	</outline>
>>>>>>> origin/master
</glyph>
<<<<<<< HEAD
<glyph name="backslash" format="1">
  <advance width="266" height="266"/>
  <unicode hex="005C"/>
  <outline>
    <contour>
      <point x="181" y="2" type="curve" smooth="yes"/>
      <point x="121" y="203"/>
      <point x="88" y="316"/>
      <point x="27" y="520" type="curve" smooth="yes"/>
      <point x="14" y="560"/>
      <point x="69" y="580"/>
      <point x="81" y="537" type="curve" smooth="yes"/>
      <point x="142" y="334"/>
      <point x="176" y="222"/>
      <point x="236" y="18" type="curve" smooth="yes"/>
      <point x="248" y="-19"/>
      <point x="194" y="-38"/>
    </contour>
  </outline>
=======
<glyph name="backslash" format="2">
	<unicode hex="005C"/>
	<advance width="352"/>
	<outline>
		<contour>
			<point x="217" y="2" type="curve" smooth="yes"/>
			<point x="157" y="203"/>
			<point x="124" y="316"/>
			<point x="63" y="520" type="curve" smooth="yes"/>
			<point x="50" y="560"/>
			<point x="105" y="580"/>
			<point x="117" y="537" type="curve" smooth="yes"/>
			<point x="178" y="334"/>
			<point x="212" y="222"/>
			<point x="272" y="18" type="curve" smooth="yes"/>
			<point x="284" y="-19"/>
			<point x="230" y="-38"/>
		</contour>
	</outline>
>>>>>>> origin/master
</glyph>
<<<<<<< HEAD
<glyph name="bracketright" format="1">
  <advance width="211" height="211"/>
  <unicode hex="005D"/>
  <outline>
    <contour>
      <point x="184" y="-290" type="line" smooth="yes"/>
      <point x="184" y="-310"/>
      <point x="172" y="-320"/>
      <point x="153" y="-320" type="curve" smooth="yes"/>
      <point x="52" y="-320" type="line" smooth="yes"/>
      <point x="39" y="-320"/>
      <point x="27" y="-308"/>
      <point x="27" y="-292" type="curve" smooth="yes"/>
      <point x="27" y="-276"/>
      <point x="37" y="-265"/>
      <point x="52" y="-265" type="curve" smooth="yes"/>
      <point x="127" y="-265" type="line"/>
      <point x="127" y="805" type="line"/>
      <point x="52" y="805" type="line" smooth="yes"/>
      <point x="37" y="805"/>
      <point x="27" y="816"/>
      <point x="27" y="832" type="curve" smooth="yes"/>
      <point x="27" y="848"/>
      <point x="39" y="860"/>
      <point x="52" y="860" type="curve" smooth="yes"/>
      <point x="153" y="860" type="line" smooth="yes"/>
      <point x="172" y="860"/>
      <point x="184" y="850"/>
      <point x="184" y="830" type="curve" smooth="yes"/>
    </contour>
  </outline>
=======
<glyph name="bracketright" format="2">
	<unicode hex="005D"/>
	<advance width="338"/>
	<outline>
		<contour>
			<point x="245" y="-290" type="line"/>
			<point x="245" y="-310"/>
			<point x="233" y="-320"/>
			<point x="214" y="-320" type="curve" smooth="yes"/>
			<point x="214" y="-320"/>
			<point x="149" y="-320"/>
			<point x="113" y="-320" type="curve" smooth="yes"/>
			<point x="100" y="-320"/>
			<point x="88" y="-308"/>
			<point x="88" y="-292" type="curve" smooth="yes"/>
			<point x="88" y="-276"/>
			<point x="98" y="-265"/>
			<point x="113" y="-265" type="curve" smooth="yes"/>
			<point x="142" y="-265"/>
			<point x="188" y="-265"/>
			<point x="188" y="-265" type="curve"/>
			<point x="188" y="805" type="line"/>
			<point x="188" y="805"/>
			<point x="142" y="805"/>
			<point x="113" y="805" type="curve" smooth="yes"/>
			<point x="98" y="805"/>
			<point x="88" y="816"/>
			<point x="88" y="832" type="curve" smooth="yes"/>
			<point x="88" y="848"/>
			<point x="100" y="860"/>
			<point x="113" y="860" type="curve" smooth="yes"/>
			<point x="149" y="860"/>
			<point x="214" y="860"/>
			<point x="214" y="860" type="curve" smooth="yes"/>
			<point x="233" y="860"/>
			<point x="245" y="850"/>
			<point x="245" y="830" type="curve" smooth="yes"/>
		</contour>
	</outline>
>>>>>>> origin/master
</glyph>
<<<<<<< HEAD
<glyph name="asciicircum" format="1">
  <advance width="400" height="400"/>
  <unicode hex="005E"/>
  <outline>
    <contour>
      <point x="374" y="723" type="curve" smooth="yes"/>
      <point x="374" y="709.229"/>
      <point x="362.963" y="696"/>
      <point x="348" y="696" type="curve" smooth="yes"/>
      <point x="338" y="696"/>
      <point x="328" y="702"/>
      <point x="321" y="711" type="curve" smooth="yes"/>
      <point x="200" y="875" type="line"/>
      <point x="200" y="875"/>
      <point x="124" y="772"/>
      <point x="79" y="711" type="curve" smooth="yes"/>
      <point x="72" y="702"/>
      <point x="62" y="696"/>
      <point x="52" y="696" type="curve" smooth="yes"/>
      <point x="37.0555" y="696"/>
      <point x="26" y="709.222"/>
      <point x="26" y="723" type="curve" smooth="yes"/>
      <point x="26" y="730"/>
      <point x="28" y="736"/>
      <point x="32" y="741" type="curve" smooth="yes"/>
      <point x="84" y="810"/>
      <point x="167" y="923"/>
      <point x="167" y="923" type="curve" smooth="yes"/>
      <point x="177" y="937"/>
      <point x="189" y="943"/>
      <point x="200" y="943" type="curve" smooth="yes"/>
      <point x="211" y="943"/>
      <point x="222" y="936"/>
      <point x="232" y="924" type="curve" smooth="yes"/>
      <point x="368" y="741" type="line" smooth="yes"/>
      <point x="372" y="736"/>
      <point x="374" y="730"/>
    </contour>
  </outline>
=======
<glyph name="asciicircum" format="2">
	<unicode hex="005E"/>
	<advance width="509"/>
	<outline>
		<contour>
			<point x="375" y="711" type="curve"/>
			<point x="254" y="875" type="line"/>
			<point x="254" y="875"/>
			<point x="178" y="772"/>
			<point x="133" y="711" type="curve" smooth="yes"/>
			<point x="123" y="698"/>
			<point x="105" y="691"/>
			<point x="91" y="701" type="curve" smooth="yes"/>
			<point x="78" y="710"/>
			<point x="78" y="730"/>
			<point x="86" y="741" type="curve" smooth="yes"/>
			<point x="138" y="810"/>
			<point x="221" y="923"/>
			<point x="221" y="923" type="curve" smooth="yes"/>
			<point x="231" y="937"/>
			<point x="243" y="943"/>
			<point x="254" y="943" type="curve" smooth="yes"/>
			<point x="265" y="943"/>
			<point x="276" y="936"/>
			<point x="286" y="924" type="curve" smooth="yes"/>
			<point x="422" y="741" type="line" smooth="yes"/>
			<point x="430" y="730"/>
			<point x="430" y="710"/>
			<point x="417" y="701" type="curve" smooth="yes"/>
			<point x="403" y="691"/>
			<point x="385" y="698"/>
		</contour>
	</outline>
>>>>>>> origin/master
</glyph>
<<<<<<< HEAD
<glyph name="underscore" format="1">
  <advance width="576" height="576"/>
  <unicode hex="005F"/>
  <outline>
    <contour>
      <point x="57" y="60" type="curve" smooth="yes"/>
      <point x="519" y="60" type="line" smooth="yes"/>
      <point x="536" y="60"/>
      <point x="549" y="46"/>
      <point x="549" y="30" type="curve" smooth="yes"/>
      <point x="549" y="14"/>
      <point x="535" y="0"/>
      <point x="519" y="0" type="curve" smooth="yes"/>
      <point x="57" y="0" type="line" smooth="yes"/>
      <point x="41" y="0"/>
      <point x="27" y="14"/>
      <point x="27" y="30" type="curve" smooth="yes"/>
      <point x="27" y="46"/>
      <point x="40" y="60"/>
    </contour>
  </outline>
=======
<glyph name="underscore" format="2">
	<unicode hex="005F"/>
	<advance width="580"/>
	<outline>
		<contour>
			<point x="61" y="60" type="curve" smooth="yes"/>
			<point x="61" y="60"/>
			<point x="418" y="60"/>
			<point x="523" y="60" type="curve" smooth="yes"/>
			<point x="540" y="60"/>
			<point x="553" y="46"/>
			<point x="553" y="30" type="curve" smooth="yes"/>
			<point x="553" y="14"/>
			<point x="539" y="0"/>
			<point x="523" y="0" type="curve" smooth="yes"/>
			<point x="415" y="0"/>
			<point x="61" y="0"/>
			<point x="61" y="0" type="curve" smooth="yes"/>
			<point x="45" y="0"/>
			<point x="31" y="14"/>
			<point x="31" y="30" type="curve" smooth="yes"/>
			<point x="31" y="46"/>
			<point x="44" y="60"/>
		</contour>
	</outline>
>>>>>>> origin/master
</glyph>
<<<<<<< HEAD
<glyph name="braceleft" format="1">
  <advance width="296" height="296"/>
  <unicode hex="007B"/>
  <outline>
    <contour>
      <point x="112" y="-290" type="line" smooth="yes"/>
      <point x="112" y="-310"/>
      <point x="124" y="-320"/>
      <point x="143" y="-320" type="curve" smooth="yes"/>
      <point x="244" y="-320" type="line" smooth="yes"/>
      <point x="257" y="-320"/>
      <point x="269" y="-308"/>
      <point x="269" y="-292" type="curve" smooth="yes"/>
      <point x="269" y="-276"/>
      <point x="259" y="-265"/>
      <point x="244" y="-265" type="curve" smooth="yes"/>
      <point x="169" y="-265" type="line"/>
      <point x="169" y="805" type="line"/>
      <point x="244" y="805" type="line" smooth="yes"/>
      <point x="259" y="805"/>
      <point x="269" y="816"/>
      <point x="269" y="832" type="curve" smooth="yes"/>
      <point x="269" y="848"/>
      <point x="257" y="860"/>
      <point x="244" y="860" type="curve" smooth="yes"/>
      <point x="143" y="860" type="line" smooth="yes"/>
      <point x="124" y="860"/>
      <point x="112" y="850"/>
      <point x="112" y="830" type="curve" smooth="yes"/>
      <point x="112" y="300" type="line"/>
      <point x="57" y="300" type="line" smooth="yes"/>
      <point x="37" y="300"/>
      <point x="27" y="285"/>
      <point x="27" y="269" type="curve" smooth="yes"/>
      <point x="27" y="253"/>
      <point x="37" y="239"/>
      <point x="57" y="239" type="curve" smooth="yes"/>
      <point x="112" y="239" type="line"/>
    </contour>
  </outline>
=======
<glyph name="braceleft" format="2">
	<unicode hex="007B"/>
	<advance width="415"/>
	<outline>
		<contour>
			<point x="157" y="-290" type="line" smooth="yes"/>
			<point x="157" y="-310"/>
			<point x="169" y="-320"/>
			<point x="188" y="-320" type="curve" smooth="yes"/>
			<point x="188" y="-320"/>
			<point x="253" y="-320"/>
			<point x="289" y="-320" type="curve" smooth="yes"/>
			<point x="302" y="-320"/>
			<point x="314" y="-308"/>
			<point x="314" y="-292" type="curve" smooth="yes"/>
			<point x="314" y="-276"/>
			<point x="304" y="-265"/>
			<point x="289" y="-265" type="curve" smooth="yes"/>
			<point x="260" y="-265"/>
			<point x="214" y="-265"/>
			<point x="214" y="-265" type="curve"/>
			<point x="214" y="805" type="line"/>
			<point x="214" y="805"/>
			<point x="260" y="805"/>
			<point x="289" y="805" type="curve" smooth="yes"/>
			<point x="304" y="805"/>
			<point x="314" y="816"/>
			<point x="314" y="832" type="curve" smooth="yes"/>
			<point x="314" y="848"/>
			<point x="302" y="860"/>
			<point x="289" y="860" type="curve" smooth="yes"/>
			<point x="253" y="860"/>
			<point x="188" y="860"/>
			<point x="188" y="860" type="curve" smooth="yes"/>
			<point x="169" y="860"/>
			<point x="157" y="850"/>
			<point x="157" y="830" type="curve" smooth="yes"/>
			<point x="157" y="300" type="line"/>
			<point x="157" y="300"/>
			<point x="123" y="300"/>
			<point x="102" y="300" type="curve" smooth="yes"/>
			<point x="82" y="300"/>
			<point x="72" y="285"/>
			<point x="72" y="269" type="curve" smooth="yes"/>
			<point x="72" y="253"/>
			<point x="82" y="239"/>
			<point x="102" y="239" type="curve" smooth="yes"/>
			<point x="122" y="239"/>
			<point x="157" y="239"/>
			<point x="157" y="239" type="curve"/>
		</contour>
	</outline>
>>>>>>> origin/master
</glyph>
<<<<<<< HEAD
<glyph name="asciitilde" format="1">
  <advance width="832" height="832"/>
  <unicode hex="007E"/>
  <outline>
    <contour>
      <point x="433" y="324" type="curve" smooth="yes"/>
      <point x="476" y="290"/>
      <point x="524" y="254"/>
      <point x="595" y="254" type="curve" smooth="yes"/>
      <point x="667" y="254"/>
      <point x="700" y="281"/>
      <point x="757" y="325" type="curve" smooth="yes"/>
      <point x="769" y="334"/>
      <point x="790" y="335"/>
      <point x="800" y="321" type="curve" smooth="yes"/>
      <point x="810" y="307"/>
      <point x="804" y="289"/>
      <point x="792" y="278" type="curve" smooth="yes"/>
      <point x="750" y="240"/>
      <point x="686" y="194"/>
      <point x="595" y="194" type="curve" smooth="yes"/>
      <point x="490" y="194"/>
      <point x="449" y="238"/>
      <point x="399" y="278" type="curve" smooth="yes"/>
      <point x="356" y="312"/>
      <point x="308" y="348"/>
      <point x="237" y="348" type="curve" smooth="yes"/>
      <point x="165" y="348"/>
      <point x="132" y="321"/>
      <point x="75" y="277" type="curve" smooth="yes"/>
      <point x="63" y="268"/>
      <point x="42" y="267"/>
      <point x="32" y="281" type="curve" smooth="yes"/>
      <point x="22" y="295"/>
      <point x="28" y="313"/>
      <point x="40" y="324" type="curve" smooth="yes"/>
      <point x="82" y="362"/>
      <point x="146" y="408"/>
      <point x="237" y="408" type="curve" smooth="yes"/>
      <point x="342" y="408"/>
      <point x="383" y="364"/>
    </contour>
  </outline>
=======
<glyph name="asciitilde" format="2">
	<unicode hex="007E"/>
	<advance width="900"/>
	<outline>
		<contour>
			<point x="466" y="324" type="curve"/>
			<point x="416" y="364"/>
			<point x="375" y="408"/>
			<point x="270" y="408" type="curve" smooth="yes"/>
			<point x="179" y="408"/>
			<point x="115" y="362"/>
			<point x="73" y="324" type="curve" smooth="yes"/>
			<point x="61" y="313"/>
			<point x="55" y="295"/>
			<point x="65" y="281" type="curve" smooth="yes"/>
			<point x="75" y="267"/>
			<point x="96" y="268"/>
			<point x="108" y="277" type="curve" smooth="yes"/>
			<point x="165" y="321"/>
			<point x="198" y="348"/>
			<point x="270" y="348" type="curve" smooth="yes"/>
			<point x="341" y="348"/>
			<point x="389" y="312"/>
			<point x="432" y="278" type="curve"/>
			<point x="482" y="238"/>
			<point x="523" y="194"/>
			<point x="628" y="194" type="curve" smooth="yes"/>
			<point x="719" y="194"/>
			<point x="783" y="240"/>
			<point x="825" y="278" type="curve" smooth="yes"/>
			<point x="837" y="289"/>
			<point x="843" y="307"/>
			<point x="833" y="321" type="curve" smooth="yes"/>
			<point x="823" y="335"/>
			<point x="802" y="334"/>
			<point x="790" y="325" type="curve" smooth="yes"/>
			<point x="733" y="281"/>
			<point x="700" y="254"/>
			<point x="628" y="254" type="curve" smooth="yes"/>
			<point x="557" y="254"/>
			<point x="509" y="290"/>
		</contour>
	</outline>
>>>>>>> origin/master
</glyph>
<<<<<<< HEAD
<glyph name="anusvara" format="1">
  <advance width="410" height="410"/>
  <unicode hex="0D82"/>
  <outline>
    <contour>
      <point x="383" y="176" type="curve" smooth="yes"/>
      <point x="383" y="77"/>
      <point x="303" y="-3"/>
      <point x="204" y="-3" type="curve" smooth="yes"/>
      <point x="107" y="-3"/>
      <point x="27" y="77"/>
      <point x="27" y="176" type="curve" smooth="yes"/>
      <point x="27" y="273"/>
      <point x="107" y="353"/>
      <point x="204" y="353" type="curve" smooth="yes"/>
      <point x="303" y="353"/>
      <point x="383" y="273"/>
    </contour>
    <contour>
      <point x="81" y="176" type="curve" smooth="yes"/>
      <point x="81" y="105"/>
      <point x="137" y="51"/>
      <point x="204" y="51" type="curve" smooth="yes"/>
      <point x="273" y="51"/>
      <point x="329" y="105"/>
      <point x="329" y="176" type="curve" smooth="yes"/>
      <point x="329" y="243"/>
      <point x="273" y="300"/>
      <point x="204" y="300" type="curve" smooth="yes"/>
      <point x="137" y="300"/>
      <point x="81" y="243"/>
    </contour>
  </outline>
=======
<glyph name="anusvara" format="2">
	<unicode hex="0D82"/>
	<advance width="333"/>
	<outline>
		<contour>
			<point x="258" y="77"/>
			<point x="320" y="139"/>
			<point x="320" y="215" type="curve" smooth="yes"/>
			<point x="320" y="291"/>
			<point x="258" y="352"/>
			<point x="182" y="352" type="curve" smooth="yes"/>
			<point x="107" y="352"/>
			<point x="45" y="291"/>
			<point x="45" y="215" type="curve" smooth="yes"/>
			<point x="45" y="139"/>
			<point x="107" y="77"/>
			<point x="182" y="77" type="curve" smooth="yes"/>
		</contour>
		<contour>
			<point x="131" y="121"/>
			<point x="89" y="163"/>
			<point x="89" y="215" type="curve" smooth="yes"/>
			<point x="89" y="266"/>
			<point x="131" y="307"/>
			<point x="182" y="307" type="curve" smooth="yes"/>
			<point x="234" y="307"/>
			<point x="276" y="266"/>
			<point x="276" y="215" type="curve" smooth="yes"/>
			<point x="276" y="163"/>
			<point x="234" y="121"/>
			<point x="182" y="121" type="curve" smooth="yes"/>
		</contour>
	</outline>
>>>>>>> origin/master
</glyph>
<<<<<<< HEAD
<glyph name="visarga" format="1">
  <advance width="272" height="272"/>
  <unicode hex="0D83"/>
  <outline>
    <contour>
      <point x="245" y="108" type="curve" smooth="yes"/>
      <point x="245" y="49"/>
      <point x="196" y="0"/>
      <point x="135" y="0" type="curve" smooth="yes"/>
      <point x="76" y="0"/>
      <point x="27" y="49"/>
      <point x="27" y="108" type="curve" smooth="yes"/>
      <point x="27" y="169"/>
      <point x="76" y="218"/>
      <point x="135" y="218" type="curve" smooth="yes"/>
      <point x="196" y="218"/>
      <point x="245" y="169"/>
    </contour>
    <contour>
      <point x="79" y="108" type="curve" smooth="yes"/>
      <point x="79" y="75"/>
      <point x="104" y="51"/>
      <point x="135" y="51" type="curve" smooth="yes"/>
      <point x="168" y="51"/>
      <point x="193" y="75"/>
      <point x="193" y="108" type="curve" smooth="yes"/>
      <point x="193" y="141"/>
      <point x="168" y="166"/>
      <point x="135" y="166" type="curve" smooth="yes"/>
      <point x="104" y="166"/>
      <point x="79" y="141"/>
    </contour>
    <contour>
      <point x="245" y="385" type="curve" smooth="yes"/>
      <point x="245" y="326"/>
      <point x="196" y="277"/>
      <point x="135" y="277" type="curve" smooth="yes"/>
      <point x="76" y="277"/>
      <point x="27" y="326"/>
      <point x="27" y="385" type="curve" smooth="yes"/>
      <point x="27" y="446"/>
      <point x="76" y="495"/>
      <point x="135" y="495" type="curve" smooth="yes"/>
      <point x="196" y="495"/>
      <point x="245" y="446"/>
    </contour>
    <contour>
      <point x="79" y="385" type="curve" smooth="yes"/>
      <point x="79" y="352"/>
      <point x="104" y="328"/>
      <point x="135" y="328" type="curve" smooth="yes"/>
      <point x="168" y="328"/>
      <point x="193" y="352"/>
      <point x="193" y="385" type="curve" smooth="yes"/>
      <point x="193" y="418"/>
      <point x="168" y="443"/>
      <point x="135" y="443" type="curve" smooth="yes"/>
      <point x="104" y="443"/>
      <point x="79" y="418"/>
    </contour>
  </outline>
=======
<glyph name="visarga" format="2">
	<unicode hex="0D83"/>
	<advance width="342"/>
	<outline>
		<contour>
			<point x="279" y="108" type="curve" smooth="yes"/>
			<point x="279" y="49"/>
			<point x="230" y="0"/>
			<point x="169" y="0" type="curve" smooth="yes"/>
			<point x="110" y="0"/>
			<point x="61" y="49"/>
			<point x="61" y="108" type="curve" smooth="yes"/>
			<point x="61" y="169"/>
			<point x="110" y="218"/>
			<point x="169" y="218" type="curve" smooth="yes"/>
			<point x="230" y="218"/>
			<point x="279" y="169"/>
		</contour>
		<contour>
			<point x="113" y="108" type="curve" smooth="yes"/>
			<point x="113" y="75"/>
			<point x="138" y="51"/>
			<point x="169" y="51" type="curve" smooth="yes"/>
			<point x="202" y="51"/>
			<point x="227" y="75"/>
			<point x="227" y="108" type="curve" smooth="yes"/>
			<point x="227" y="141"/>
			<point x="202" y="166"/>
			<point x="169" y="166" type="curve" smooth="yes"/>
			<point x="138" y="166"/>
			<point x="113" y="141"/>
		</contour>
		<contour>
			<point x="279" y="385" type="curve" smooth="yes"/>
			<point x="279" y="326"/>
			<point x="230" y="277"/>
			<point x="169" y="277" type="curve" smooth="yes"/>
			<point x="110" y="277"/>
			<point x="61" y="326"/>
			<point x="61" y="385" type="curve" smooth="yes"/>
			<point x="61" y="446"/>
			<point x="110" y="495"/>
			<point x="169" y="495" type="curve" smooth="yes"/>
			<point x="230" y="495"/>
			<point x="279" y="446"/>
		</contour>
		<contour>
			<point x="113" y="385" type="curve" smooth="yes"/>
			<point x="113" y="352"/>
			<point x="138" y="328"/>
			<point x="169" y="328" type="curve" smooth="yes"/>
			<point x="202" y="328"/>
			<point x="227" y="352"/>
			<point x="227" y="385" type="curve" smooth="yes"/>
			<point x="227" y="418"/>
			<point x="202" y="443"/>
			<point x="169" y="443" type="curve" smooth="yes"/>
			<point x="138" y="443"/>
			<point x="113" y="418"/>
		</contour>
	</outline>
>>>>>>> origin/master
</glyph>
<<<<<<< HEAD
<glyph name="sinA" format="1">
  <advance width="826" height="826"/>
  <unicode hex="0D85"/>
  <outline>
    <contour>
      <point x="454" y="382" type="curve" smooth="yes"/>
      <point x="354" y="382"/>
      <point x="331" y="431"/>
      <point x="224" y="431" type="curve" smooth="yes"/>
      <point x="162" y="431"/>
      <point x="80" y="381"/>
      <point x="80" y="255" type="curve" smooth="yes"/>
      <point x="80" y="104.248"/>
      <point x="173.164" y="-1"/>
      <point x="343" y="-1" type="curve" smooth="yes"/>
      <point x="447" y="-1"/>
      <point x="510" y="52"/>
      <point x="547" y="95" type="curve"/>
      <point x="547" y="160"/>
      <point x="548" y="214"/>
      <point x="548" y="259" type="curve" smooth="yes"/>
      <point x="548" y="323"/>
      <point x="547" y="372"/>
      <point x="546" y="416" type="curve"/>
      <point x="530" y="399"/>
      <point x="502" y="382"/>
    </contour>
    <contour>
      <point x="565" y="540" type="curve" smooth="yes"/>
      <point x="587" y="540"/>
      <point x="595" y="520"/>
      <point x="595" y="494" type="curve"/>
      <point x="603" y="488"/>
      <point x="611" y="486"/>
      <point x="621" y="486" type="curve" smooth="yes"/>
      <point x="662" y="486"/>
      <point x="682" y="510"/>
      <point x="719" y="510" type="curve" smooth="yes"/>
      <point x="755" y="510"/>
      <point x="799" y="482"/>
      <point x="799" y="419" type="curve" smooth="yes"/>
      <point x="799" y="341"/>
      <point x="746" y="278"/>
      <point x="674" y="278" type="curve" smooth="yes"/>
      <point x="639" y="278"/>
      <point x="613" y="290"/>
      <point x="592" y="305" type="curve"/>
      <point x="592" y="211" type="line" smooth="yes"/>
      <point x="592" y="32"/>
      <point x="608" y="-110"/>
      <point x="608" y="-289" type="curve" smooth="yes"/>
      <point x="608" y="-303"/>
      <point x="599" y="-324"/>
      <point x="579" y="-324" type="curve" smooth="yes"/>
      <point x="564" y="-324"/>
      <point x="552" y="-305"/>
      <point x="552" y="-290" type="curve" smooth="yes"/>
      <point x="549" y="-168"/>
      <point x="550" y="-94"/>
      <point x="549" y="27" type="curve"/>
      <point x="525" y="-2"/>
      <point x="463" y="-51"/>
      <point x="350" y="-51" type="curve" smooth="yes"/>
      <point x="143.389" y="-51"/>
      <point x="27" y="70.6387"/>
      <point x="27" y="260" type="curve" smooth="yes"/>
      <point x="27" y="415"/>
      <point x="142" y="483"/>
      <point x="236" y="483" type="curve" smooth="yes"/>
      <point x="263" y="483"/>
      <point x="304" y="471"/>
      <point x="328" y="456" type="curve"/>
      <point x="320" y="467"/>
      <point x="314" y="490"/>
      <point x="314" y="502" type="curve" smooth="yes"/>
      <point x="314" y="533"/>
      <point x="337" y="549"/>
      <point x="368" y="549" type="curve" smooth="yes"/>
      <point x="402" y="549"/>
      <point x="426" y="528"/>
      <point x="473" y="528" type="curve" smooth="yes"/>
      <point x="491" y="528"/>
      <point x="500" y="515"/>
      <point x="500" y="501" type="curve" smooth="yes"/>
      <point x="500" y="487"/>
      <point x="491" y="473"/>
      <point x="470" y="473" type="curve" smooth="yes"/>
      <point x="437" y="473"/>
      <point x="412" y="495"/>
      <point x="387" y="495" type="curve" smooth="yes"/>
      <point x="375" y="495"/>
      <point x="370" y="490"/>
      <point x="370" y="483" type="curve" smooth="yes"/>
      <point x="370" y="472"/>
      <point x="382" y="457"/>
      <point x="389" y="451" type="curve" smooth="yes"/>
      <point x="407" y="438"/>
      <point x="434" y="430"/>
      <point x="461" y="430" type="curve" smooth="yes"/>
      <point x="488" y="430"/>
      <point x="515" y="438"/>
      <point x="532" y="461" type="curve" smooth="yes"/>
      <point x="551" y="487"/>
      <point x="529" y="540"/>
    </contour>
    <contour>
      <point x="705" y="462" type="curve" smooth="yes"/>
      <point x="673" y="462"/>
      <point x="657" y="442"/>
      <point x="625" y="442" type="curve" smooth="yes"/>
      <point x="611" y="442"/>
      <point x="601" y="446"/>
      <point x="594" y="450" type="curve"/>
      <point x="593" y="419"/>
      <point x="593" y="387"/>
      <point x="593" y="355" type="curve"/>
      <point x="608" y="340"/>
      <point x="633" y="324"/>
      <point x="668" y="324" type="curve" smooth="yes"/>
      <point x="718" y="324"/>
      <point x="748" y="362"/>
      <point x="748" y="412" type="curve" smooth="yes"/>
      <point x="748" y="451"/>
      <point x="727" y="462"/>
    </contour>
  </outline>
=======
<glyph name="sinA" format="2">
	<unicode hex="0D85"/>
	<advance width="565"/>
	<outline>
		<contour>
			<point x="423" y="-345"/>
			<point x="428" y="-343"/>
			<point x="437" y="-335" type="curve" smooth="yes"/>
			<point x="462" y="-307"/>
			<point x="481" y="-245"/>
			<point x="481" y="-128" type="curve" smooth="yes"/>
			<point x="481" y="233" type="line" smooth="yes"/>
			<point x="481" y="275"/>
			<point x="492" y="299"/>
			<point x="515" y="324" type="curve"/>
			<point x="521" y="327"/>
			<point x="523" y="333"/>
			<point x="523" y="338" type="curve" smooth="yes"/>
			<point x="523" y="351"/>
			<point x="521" y="352"/>
			<point x="503" y="360" type="curve" smooth="yes"/>
			<point x="459" y="379"/>
			<point x="455" y="393"/>
			<point x="450" y="418" type="curve" smooth="yes"/>
			<point x="448" y="424"/>
			<point x="448" y="428"/>
			<point x="448" y="432" type="curve" smooth="yes"/>
			<point x="448" y="445"/>
			<point x="451" y="452"/>
			<point x="459" y="452" type="curve" smooth="yes"/>
			<point x="462" y="452"/>
			<point x="464" y="451"/>
			<point x="468" y="448" type="curve" smooth="yes"/>
			<point x="481" y="441"/>
			<point x="498" y="425"/>
			<point x="519" y="425" type="curve" smooth="yes"/>
			<point x="536" y="425"/>
			<point x="539" y="435"/>
			<point x="539" y="453" type="curve" smooth="yes"/>
			<point x="539" y="461"/>
			<point x="538" y="464"/>
			<point x="518" y="473" type="curve" smooth="yes"/>
			<point x="496" y="484"/>
			<point x="450" y="501"/>
			<point x="442" y="501" type="curve" smooth="yes"/>
			<point x="435" y="501"/>
			<point x="403" y="485"/>
			<point x="403" y="452" type="curve" smooth="yes"/>
			<point x="403" y="448"/>
			<point x="403" y="441"/>
			<point x="405" y="437" type="curve"/>
			<point x="339" y="499"/>
			<point x="285" y="501"/>
			<point x="267" y="501" type="curve" smooth="yes"/>
			<point x="105" y="501"/>
			<point x="27" y="370"/>
			<point x="27" y="244" type="curve" smooth="yes"/>
			<point x="27" y="94"/>
			<point x="136" y="-12"/>
			<point x="299" y="-12" type="curve" smooth="yes"/>
			<point x="372" y="-12"/>
			<point x="421" y="10"/>
			<point x="437" y="21" type="curve"/>
			<point x="437" y="-128" type="line" smooth="yes"/>
			<point x="437" y="-220"/>
			<point x="433" y="-264"/>
			<point x="410" y="-295" type="curve" smooth="yes"/>
			<point x="406" y="-301"/>
			<point x="397" y="-312"/>
			<point x="397" y="-324" type="curve" smooth="yes"/>
			<point x="397" y="-337"/>
			<point x="405" y="-345"/>
			<point x="417" y="-345" type="curve" smooth="yes"/>
		</contour>
		<contour>
			<point x="163" y="32"/>
			<point x="71" y="117"/>
			<point x="71" y="241" type="curve" smooth="yes"/>
			<point x="71" y="349"/>
			<point x="140" y="457"/>
			<point x="257" y="457" type="curve" smooth="yes"/>
			<point x="327" y="457"/>
			<point x="380" y="419"/>
			<point x="424" y="372" type="curve" smooth="yes"/>
			<point x="442" y="352"/>
			<point x="453" y="341"/>
			<point x="471" y="333" type="curve"/>
			<point x="442" y="302"/>
			<point x="437" y="261"/>
			<point x="437" y="192" type="curve" smooth="yes"/>
			<point x="437" y="72" type="line"/>
			<point x="411" y="52"/>
			<point x="357" y="32"/>
			<point x="293" y="32" type="curve" smooth="yes"/>
		</contour>
	</outline>
>>>>>>> origin/master
</glyph>
<<<<<<< HEAD
<glyph name="sinAa" format="1">
  <advance width="1143" height="1143"/>
  <unicode hex="0D86"/>
  <outline>
    <component base="sinMatraAa" xOffset="820" yOffset="-16"/>
    <component base="sinA"/>
  </outline>
=======
<glyph name="sinAa" format="2">
	<unicode hex="0D86"/>
	<advance width="827"/>
	<outline>
		<contour>
			<point x="423" y="-345"/>
			<point x="430" y="-342"/>
			<point x="437" y="-335" type="curve" smooth="yes"/>
			<point x="462" y="-305"/>
			<point x="481" y="-246"/>
			<point x="481" y="-128" type="curve" smooth="yes"/>
			<point x="481" y="233" type="line" smooth="yes"/>
			<point x="481" y="275"/>
			<point x="492" y="299"/>
			<point x="515" y="324" type="curve"/>
			<point x="521" y="326"/>
			<point x="523" y="331"/>
			<point x="523" y="337" type="curve" smooth="yes"/>
			<point x="523" y="348"/>
			<point x="515" y="360"/>
			<point x="503" y="360" type="curve" smooth="yes"/>
			<point x="481" y="360"/>
			<point x="454" y="394"/>
			<point x="450" y="418" type="curve" smooth="yes"/>
			<point x="449" y="423"/>
			<point x="448" y="428"/>
			<point x="448" y="434" type="curve" smooth="yes"/>
			<point x="448" y="445"/>
			<point x="451" y="452"/>
			<point x="459" y="452" type="curve" smooth="yes"/>
			<point x="461" y="452"/>
			<point x="465" y="451"/>
			<point x="468" y="448" type="curve" smooth="yes"/>
			<point x="481" y="441"/>
			<point x="497" y="425"/>
			<point x="520" y="425" type="curve" smooth="yes"/>
			<point x="533" y="425"/>
			<point x="539" y="435"/>
			<point x="539" y="446" type="curve" smooth="yes"/>
			<point x="539" y="459"/>
			<point x="531" y="473"/>
			<point x="518" y="473" type="curve" smooth="yes"/>
			<point x="492" y="473"/>
			<point x="477" y="501"/>
			<point x="448" y="501" type="curve" smooth="yes"/>
			<point x="425" y="501"/>
			<point x="403" y="479"/>
			<point x="403" y="452" type="curve" smooth="yes"/>
			<point x="403" y="447"/>
			<point x="403" y="442"/>
			<point x="405" y="437" type="curve"/>
			<point x="389" y="451"/>
			<point x="338" y="501"/>
			<point x="265" y="501" type="curve" smooth="yes"/>
			<point x="105" y="501"/>
			<point x="27" y="370"/>
			<point x="27" y="246" type="curve" smooth="yes"/>
			<point x="27" y="94"/>
			<point x="140" y="-12"/>
			<point x="290" y="-12" type="curve" smooth="yes"/>
			<point x="380" y="-12"/>
			<point x="419" y="10"/>
			<point x="437" y="21" type="curve"/>
			<point x="437" y="-128" type="line" smooth="yes"/>
			<point x="437" y="-202"/>
			<point x="434" y="-267"/>
			<point x="410" y="-295" type="curve" smooth="yes"/>
			<point x="400" y="-306"/>
			<point x="397" y="-316"/>
			<point x="397" y="-324" type="curve" smooth="yes"/>
			<point x="397" y="-337"/>
			<point x="406" y="-345"/>
			<point x="416" y="-345" type="curve" smooth="yes"/>
		</contour>
		<contour>
			<point x="162" y="32"/>
			<point x="71" y="116"/>
			<point x="71" y="246" type="curve" smooth="yes"/>
			<point x="71" y="330"/>
			<point x="123" y="457"/>
			<point x="265" y="457" type="curve" smooth="yes"/>
			<point x="318" y="457"/>
			<point x="379" y="421"/>
			<point x="424" y="372" type="curve" smooth="yes"/>
			<point x="441" y="354"/>
			<point x="453" y="341"/>
			<point x="471" y="333" type="curve"/>
			<point x="442" y="302"/>
			<point x="437" y="261"/>
			<point x="437" y="192" type="curve" smooth="yes"/>
			<point x="437" y="72" type="line"/>
			<point x="410" y="52"/>
			<point x="359" y="32"/>
			<point x="290" y="32" type="curve" smooth="yes"/>
		</contour>
		<contour>
			<point x="678" y="8"/>
			<point x="682" y="8"/>
			<point x="685" y="10" type="curve" smooth="yes"/>
			<point x="757" y="35"/>
			<point x="799" y="96"/>
			<point x="799" y="218" type="curve" smooth="yes"/>
			<point x="799" y="289" type="line" smooth="yes"/>
			<point x="799" y="410"/>
			<point x="771" y="497"/>
			<point x="678" y="497" type="curve" smooth="yes"/>
			<point x="597" y="497"/>
			<point x="566" y="451"/>
			<point x="566" y="368" type="curve" smooth="yes"/>
			<point x="566" y="359"/>
			<point x="566" y="350"/>
			<point x="566" y="341" type="curve" smooth="yes"/>
			<point x="567" y="327"/>
			<point x="579" y="320"/>
			<point x="591" y="320" type="curve" smooth="yes"/>
			<point x="601" y="320"/>
			<point x="611" y="326"/>
			<point x="611" y="339" type="curve" smooth="yes"/>
			<point x="611" y="347"/>
			<point x="610" y="355"/>
			<point x="610" y="362" type="curve" smooth="yes"/>
			<point x="610" y="426"/>
			<point x="633" y="453"/>
			<point x="678" y="453" type="curve" smooth="yes"/>
			<point x="725" y="453"/>
			<point x="755" y="424"/>
			<point x="755" y="289" type="curve" smooth="yes"/>
			<point x="755" y="218" type="line" smooth="yes"/>
			<point x="755" y="133"/>
			<point x="729" y="74"/>
			<point x="671" y="52" type="curve" smooth="yes"/>
			<point x="658" y="46"/>
			<point x="653" y="38"/>
			<point x="653" y="29" type="curve" smooth="yes"/>
			<point x="653" y="18"/>
			<point x="663" y="8"/>
			<point x="676" y="8" type="curve" smooth="yes"/>
		</contour>
	</outline>
>>>>>>> origin/master
</glyph>
<<<<<<< HEAD
<glyph name="sinAe" format="1">
  <advance width="1300" height="1300"/>
  <unicode hex="0D87"/>
  <outline>
    <component base="sinMatraAe" xOffset="698"/>
    <component base="sinA"/>
  </outline>
=======
<glyph name="sinAe" format="2">
	<unicode hex="0D87"/>
	<advance width="901"/>
	<outline>
		<contour>
			<point x="422" y="-345"/>
			<point x="430" y="-342"/>
			<point x="437" y="-335" type="curve" smooth="yes"/>
			<point x="462" y="-305"/>
			<point x="481" y="-246"/>
			<point x="481" y="-128" type="curve" smooth="yes"/>
			<point x="481" y="233" type="line" smooth="yes"/>
			<point x="481" y="275"/>
			<point x="492" y="299"/>
			<point x="515" y="324" type="curve"/>
			<point x="524" y="330"/>
			<point x="529" y="334"/>
			<point x="529" y="342" type="curve" smooth="yes"/>
			<point x="529" y="353"/>
			<point x="524" y="370"/>
			<point x="515" y="370" type="curve" smooth="yes"/>
			<point x="514" y="370"/>
			<point x="513" y="370"/>
			<point x="512" y="369" type="curve"/>
			<point x="510" y="368"/>
			<point x="507" y="366"/>
			<point x="504" y="366" type="curve" smooth="yes"/>
			<point x="483" y="366"/>
			<point x="453" y="400"/>
			<point x="450" y="418" type="curve" smooth="yes"/>
			<point x="448" y="424"/>
			<point x="448" y="429"/>
			<point x="448" y="434" type="curve" smooth="yes"/>
			<point x="448" y="445"/>
			<point x="451" y="452"/>
			<point x="458" y="452" type="curve" smooth="yes"/>
			<point x="461" y="452"/>
			<point x="465" y="451"/>
			<point x="468" y="448" type="curve" smooth="yes"/>
			<point x="481" y="441"/>
			<point x="497" y="425"/>
			<point x="520" y="425" type="curve" smooth="yes"/>
			<point x="533" y="425"/>
			<point x="538" y="435"/>
			<point x="538" y="446" type="curve" smooth="yes"/>
			<point x="538" y="459"/>
			<point x="531" y="473"/>
			<point x="518" y="473" type="curve" smooth="yes"/>
			<point x="492" y="473"/>
			<point x="476" y="501"/>
			<point x="448" y="501" type="curve" smooth="yes"/>
			<point x="425" y="501"/>
			<point x="403" y="479"/>
			<point x="403" y="452" type="curve" smooth="yes"/>
			<point x="403" y="447"/>
			<point x="403" y="442"/>
			<point x="405" y="437" type="curve"/>
			<point x="389" y="451"/>
			<point x="338" y="501"/>
			<point x="265" y="501" type="curve" smooth="yes"/>
			<point x="105" y="501"/>
			<point x="27" y="370"/>
			<point x="27" y="246" type="curve" smooth="yes"/>
			<point x="27" y="94"/>
			<point x="140" y="-12"/>
			<point x="290" y="-12" type="curve" smooth="yes"/>
			<point x="380" y="-12"/>
			<point x="419" y="10"/>
			<point x="437" y="21" type="curve"/>
			<point x="437" y="-128" type="line" smooth="yes"/>
			<point x="437" y="-202"/>
			<point x="434" y="-267"/>
			<point x="410" y="-295" type="curve" smooth="yes"/>
			<point x="400" y="-306"/>
			<point x="397" y="-316"/>
			<point x="397" y="-324" type="curve" smooth="yes"/>
			<point x="397" y="-337"/>
			<point x="406" y="-345"/>
			<point x="416" y="-345" type="curve" smooth="yes"/>
		</contour>
		<contour>
			<point x="162" y="32"/>
			<point x="71" y="116"/>
			<point x="71" y="246" type="curve" smooth="yes"/>
			<point x="71" y="330"/>
			<point x="122" y="457"/>
			<point x="265" y="457" type="curve" smooth="yes"/>
			<point x="317" y="457"/>
			<point x="379" y="421"/>
			<point x="424" y="372" type="curve" smooth="yes"/>
			<point x="440" y="354"/>
			<point x="453" y="341"/>
			<point x="471" y="333" type="curve"/>
			<point x="442" y="302"/>
			<point x="437" y="261"/>
			<point x="437" y="192" type="curve" smooth="yes"/>
			<point x="437" y="72" type="line"/>
			<point x="410" y="52"/>
			<point x="359" y="32"/>
			<point x="290" y="32" type="curve" smooth="yes"/>
		</contour>
		<contour>
			<point x="779" y="0"/>
			<point x="853" y="83"/>
			<point x="872" y="162" type="curve" smooth="yes"/>
			<point x="874" y="169"/>
			<point x="875" y="175"/>
			<point x="875" y="182" type="curve" smooth="yes"/>
			<point x="875" y="187"/>
			<point x="874" y="192"/>
			<point x="869" y="196" type="curve" smooth="yes"/>
			<point x="864" y="198"/>
			<point x="859" y="201"/>
			<point x="855" y="201" type="curve" smooth="yes"/>
			<point x="845" y="201"/>
			<point x="837" y="192"/>
			<point x="832" y="177" type="curve" smooth="yes"/>
			<point x="808" y="103"/>
			<point x="751" y="44"/>
			<point x="686" y="44" type="curve" smooth="yes"/>
			<point x="652" y="44"/>
			<point x="600" y="55"/>
			<point x="600" y="113" type="curve" smooth="yes"/>
			<point x="600" y="159"/>
			<point x="656" y="209"/>
			<point x="656" y="264" type="curve" smooth="yes"/>
			<point x="656" y="338"/>
			<point x="613" y="382"/>
			<point x="554" y="382" type="curve" smooth="yes"/>
			<point x="531" y="382"/>
			<point x="510" y="369"/>
			<point x="493" y="355" type="curve"/>
			<point x="487" y="327" type="line"/>
			<point x="515" y="324" type="line"/>
			<point x="524" y="333"/>
			<point x="543" y="340"/>
			<point x="552" y="340" type="curve" smooth="yes"/>
			<point x="602" y="340"/>
			<point x="616" y="302"/>
			<point x="616" y="265" type="curve" smooth="yes"/>
			<point x="616" y="218"/>
			<point x="556" y="171"/>
			<point x="556" y="113" type="curve" smooth="yes"/>
			<point x="556" y="32"/>
			<point x="625" y="0"/>
			<point x="686" y="0" type="curve" smooth="yes"/>
		</contour>
	</outline>
>>>>>>> origin/master
</glyph>
<<<<<<< HEAD
<glyph name="sinAae" format="1">
  <advance width="1451" height="1451"/>
  <unicode hex="0D88"/>
  <outline>
    <component base="sinMatraAae" xOffset="735"/>
    <component base="sinA"/>
  </outline>
=======
<glyph name="sinAae" format="2">
	<unicode hex="0D88"/>
	<advance width="901"/>
	<outline>
		<contour>
			<point x="422" y="-345"/>
			<point x="430" y="-342"/>
			<point x="437" y="-335" type="curve" smooth="yes"/>
			<point x="462" y="-305"/>
			<point x="481" y="-246"/>
			<point x="481" y="-128" type="curve" smooth="yes"/>
			<point x="481" y="233" type="line" smooth="yes"/>
			<point x="481" y="275"/>
			<point x="492" y="299"/>
			<point x="515" y="324" type="curve"/>
			<point x="518" y="326"/>
			<point x="521" y="328"/>
			<point x="523" y="330" type="curve"/>
			<point x="549" y="349"/>
			<point x="570" y="355"/>
			<point x="597" y="361" type="curve"/>
			<point x="559" y="333"/>
			<point x="552" y="288"/>
			<point x="535" y="233" type="curve" smooth="yes"/>
			<point x="534" y="230"/>
			<point x="533" y="228"/>
			<point x="533" y="225" type="curve" smooth="yes"/>
			<point x="533" y="211"/>
			<point x="545" y="198"/>
			<point x="552" y="202" type="curve" smooth="yes"/>
			<point x="566" y="209"/>
			<point x="611" y="244"/>
			<point x="634" y="244" type="curve" smooth="yes"/>
			<point x="642" y="244"/>
			<point x="647" y="240"/>
			<point x="647" y="228" type="curve" smooth="yes"/>
			<point x="647" y="180"/>
			<point x="547" y="184"/>
			<point x="547" y="100" type="curve" smooth="yes"/>
			<point x="547" y="29"/>
			<point x="625" y="0"/>
			<point x="686" y="0" type="curve" smooth="yes"/>
			<point x="779" y="0"/>
			<point x="853" y="83"/>
			<point x="872" y="162" type="curve" smooth="yes"/>
			<point x="874" y="169"/>
			<point x="875" y="175"/>
			<point x="875" y="182" type="curve" smooth="yes"/>
			<point x="875" y="187"/>
			<point x="874" y="192"/>
			<point x="869" y="196" type="curve" smooth="yes"/>
			<point x="864" y="198"/>
			<point x="859" y="201"/>
			<point x="855" y="201" type="curve" smooth="yes"/>
			<point x="845" y="201"/>
			<point x="837" y="192"/>
			<point x="832" y="177" type="curve" smooth="yes"/>
			<point x="808" y="103"/>
			<point x="751" y="44"/>
			<point x="686" y="44" type="curve" smooth="yes"/>
			<point x="652" y="44"/>
			<point x="591" y="53"/>
			<point x="591" y="100" type="curve" smooth="yes"/>
			<point x="591" y="165"/>
			<point x="688" y="158"/>
			<point x="688" y="227" type="curve" smooth="yes"/>
			<point x="688" y="260"/>
			<point x="656" y="278"/>
			<point x="627" y="278" type="curve" smooth="yes"/>
			<point x="610" y="278"/>
			<point x="594" y="272"/>
			<point x="583" y="260" type="curve"/>
			<point x="598" y="322"/>
			<point x="618" y="338"/>
			<point x="644" y="365" type="curve" smooth="yes"/>
			<point x="648" y="369"/>
			<point x="650" y="374"/>
			<point x="650" y="379" type="curve" smooth="yes"/>
			<point x="650" y="397"/>
			<point x="625" y="417"/>
			<point x="605" y="417" type="curve" smooth="yes"/>
			<point x="600" y="417"/>
			<point x="596" y="417"/>
			<point x="592" y="413" type="curve" smooth="yes"/>
			<point x="568" y="394"/>
			<point x="553" y="392"/>
			<point x="512" y="369" type="curve" smooth="yes"/>
			<point x="510" y="368"/>
			<point x="507" y="366"/>
			<point x="504" y="366" type="curve" smooth="yes"/>
			<point x="483" y="366"/>
			<point x="453" y="400"/>
			<point x="450" y="418" type="curve" smooth="yes"/>
			<point x="448" y="424"/>
			<point x="448" y="429"/>
			<point x="448" y="434" type="curve" smooth="yes"/>
			<point x="448" y="445"/>
			<point x="451" y="452"/>
			<point x="458" y="452" type="curve" smooth="yes"/>
			<point x="461" y="452"/>
			<point x="465" y="451"/>
			<point x="468" y="448" type="curve" smooth="yes"/>
			<point x="481" y="441"/>
			<point x="497" y="425"/>
			<point x="520" y="425" type="curve" smooth="yes"/>
			<point x="533" y="425"/>
			<point x="538" y="435"/>
			<point x="538" y="446" type="curve" smooth="yes"/>
			<point x="538" y="459"/>
			<point x="531" y="473"/>
			<point x="518" y="473" type="curve" smooth="yes"/>
			<point x="492" y="473"/>
			<point x="476" y="501"/>
			<point x="448" y="501" type="curve" smooth="yes"/>
			<point x="425" y="501"/>
			<point x="403" y="479"/>
			<point x="403" y="452" type="curve" smooth="yes"/>
			<point x="403" y="447"/>
			<point x="403" y="442"/>
			<point x="405" y="437" type="curve"/>
			<point x="389" y="451"/>
			<point x="338" y="501"/>
			<point x="265" y="501" type="curve" smooth="yes"/>
			<point x="105" y="501"/>
			<point x="27" y="370"/>
			<point x="27" y="246" type="curve" smooth="yes"/>
			<point x="27" y="94"/>
			<point x="140" y="-12"/>
			<point x="290" y="-12" type="curve" smooth="yes"/>
			<point x="380" y="-12"/>
			<point x="419" y="10"/>
			<point x="437" y="21" type="curve"/>
			<point x="437" y="-128" type="line" smooth="yes"/>
			<point x="437" y="-202"/>
			<point x="434" y="-267"/>
			<point x="410" y="-295" type="curve" smooth="yes"/>
			<point x="400" y="-306"/>
			<point x="397" y="-316"/>
			<point x="397" y="-324" type="curve" smooth="yes"/>
			<point x="397" y="-337"/>
			<point x="406" y="-345"/>
			<point x="416" y="-345" type="curve" smooth="yes"/>
		</contour>
		<contour>
			<point x="162" y="32"/>
			<point x="71" y="116"/>
			<point x="71" y="246" type="curve" smooth="yes"/>
			<point x="71" y="330"/>
			<point x="122" y="457"/>
			<point x="265" y="457" type="curve" smooth="yes"/>
			<point x="317" y="457"/>
			<point x="379" y="421"/>
			<point x="424" y="372" type="curve" smooth="yes"/>
			<point x="440" y="354"/>
			<point x="453" y="341"/>
			<point x="471" y="333" type="curve"/>
			<point x="442" y="302"/>
			<point x="437" y="261"/>
			<point x="437" y="192" type="curve" smooth="yes"/>
			<point x="437" y="72" type="line"/>
			<point x="410" y="52"/>
			<point x="359" y="32"/>
			<point x="290" y="32" type="curve" smooth="yes"/>
		</contour>
	</outline>
>>>>>>> origin/master
</glyph>
<<<<<<< HEAD
<glyph name="sinI" format="1">
  <advance width="713" height="713"/>
  <unicode hex="0D89"/>
  <outline>
    <contour>
      <point x="226.761" y="-93.6084" type="curve" smooth="yes"/>
      <point x="246.064" y="-93.6084"/>
      <point x="265" y="-96"/>
      <point x="284" y="-96" type="curve" smooth="yes"/>
      <point x="491" y="-96"/>
      <point x="637" y="51"/>
      <point x="637" y="242" type="curve" smooth="yes"/>
      <point x="637" y="403"/>
      <point x="532" y="523"/>
      <point x="343" y="523" type="curve" smooth="yes"/>
      <point x="214" y="523"/>
      <point x="79" y="441"/>
      <point x="79" y="273" type="curve" smooth="yes"/>
      <point x="79" y="157"/>
      <point x="152" y="50"/>
      <point x="284" y="50" type="curve" smooth="yes"/>
      <point x="384" y="50"/>
      <point x="444" y="121"/>
      <point x="444" y="190" type="curve" smooth="yes"/>
      <point x="444" y="276"/>
      <point x="396" y="318"/>
      <point x="333" y="318" type="curve" smooth="yes"/>
      <point x="320" y="318"/>
      <point x="308" y="313"/>
      <point x="299" y="302" type="curve"/>
      <point x="315" y="301"/>
      <point x="324" y="285"/>
      <point x="324" y="269" type="curve" smooth="yes"/>
      <point x="324" y="251"/>
      <point x="312" y="232"/>
      <point x="284" y="232" type="curve" smooth="yes"/>
      <point x="256" y="232"/>
      <point x="238" y="257"/>
      <point x="238" y="285" type="curve" smooth="yes"/>
      <point x="238" y="335"/>
      <point x="288" y="366"/>
      <point x="333" y="366" type="curve" smooth="yes"/>
      <point x="448" y="366"/>
      <point x="498" y="285"/>
      <point x="498" y="190" type="curve" smooth="yes"/>
      <point x="498" y="100"/>
      <point x="426" y="-1"/>
      <point x="287" y="-1" type="curve" smooth="yes"/>
      <point x="122" y="-1"/>
      <point x="27" y="125"/>
      <point x="27" y="275" type="curve" smooth="yes"/>
      <point x="27" y="465"/>
      <point x="170" y="573"/>
      <point x="343" y="573" type="curve" smooth="yes"/>
      <point x="564" y="573"/>
      <point x="686" y="424"/>
      <point x="686" y="243" type="curve" smooth="yes"/>
      <point x="686" y="82"/>
      <point x="605" y="-99"/>
      <point x="370" y="-141" type="curve"/>
      <point x="434" y="-176"/>
      <point x="446" y="-224"/>
      <point x="446" y="-296" type="curve" smooth="yes"/>
      <point x="446" y="-313"/>
      <point x="431" y="-324"/>
      <point x="418" y="-324" type="curve" smooth="yes"/>
      <point x="409" y="-324"/>
      <point x="393" y="-315"/>
      <point x="393" y="-294" type="curve" smooth="yes"/>
      <point x="393" y="-222"/>
      <point x="363" y="-160"/>
      <point x="229" y="-143" type="curve" smooth="yes"/>
      <point x="215" y="-141"/>
      <point x="203" y="-130"/>
      <point x="203" y="-117" type="curve" smooth="yes"/>
      <point x="203" y="-103"/>
      <point x="214.348" y="-93.6084"/>
    </contour>
  </outline>
=======
<glyph name="sinI" format="2">
	<unicode hex="0D89"/>
	<advance width="666"/>
	<outline>
		<contour>
			<point x="434" y="-333"/>
			<point x="448" y="-324"/>
			<point x="448" y="-307" type="curve" smooth="yes"/>
			<point x="448" y="-226"/>
			<point x="431" y="-171"/>
			<point x="347" y="-132" type="curve"/>
			<point x="565" y="-92"/>
			<point x="640" y="55"/>
			<point x="640" y="205" type="curve" smooth="yes"/>
			<point x="640" y="373"/>
			<point x="532" y="534"/>
			<point x="317" y="534" type="curve" smooth="yes"/>
			<point x="156" y="534"/>
			<point x="27" y="432"/>
			<point x="27" y="255" type="curve" smooth="yes"/>
			<point x="27" y="115"/>
			<point x="115" y="-1"/>
			<point x="269" y="-1" type="curve" smooth="yes"/>
			<point x="399" y="-1"/>
			<point x="466" y="94"/>
			<point x="466" y="177" type="curve" smooth="yes"/>
			<point x="466" y="265"/>
			<point x="420" y="341"/>
			<point x="312" y="341" type="curve" smooth="yes"/>
			<point x="271" y="341"/>
			<point x="224" y="313"/>
			<point x="224" y="265" type="curve" smooth="yes"/>
			<point x="224" y="240"/>
			<point x="240" y="216"/>
			<point x="267" y="216" type="curve" smooth="yes"/>
			<point x="293" y="216"/>
			<point x="303" y="234"/>
			<point x="303" y="251" type="curve" smooth="yes"/>
			<point x="303" y="265"/>
			<point x="295" y="279"/>
			<point x="279" y="282" type="curve"/>
			<point x="289" y="291"/>
			<point x="300" y="296"/>
			<point x="312" y="296" type="curve" smooth="yes"/>
			<point x="371" y="296"/>
			<point x="416" y="257"/>
			<point x="416" y="177" type="curve" smooth="yes"/>
			<point x="416" y="113"/>
			<point x="361" y="47"/>
			<point x="267" y="47" type="curve" smooth="yes"/>
			<point x="145" y="47"/>
			<point x="74" y="146"/>
			<point x="74" y="254" type="curve" smooth="yes"/>
			<point x="74" y="411"/>
			<point x="197" y="487"/>
			<point x="317" y="487" type="curve" smooth="yes"/>
			<point x="501" y="487"/>
			<point x="595" y="353"/>
			<point x="595" y="204" type="curve" smooth="yes"/>
			<point x="595" y="26"/>
			<point x="459" y="-90"/>
			<point x="266" y="-90" type="curve" smooth="yes"/>
			<point x="250" y="-90"/>
			<point x="233" y="-89"/>
			<point x="215" y="-88" type="curve" smooth="yes"/>
			<point x="203" y="-86"/>
			<point x="190" y="-96"/>
			<point x="190" y="-109" type="curve" smooth="yes"/>
			<point x="190" y="-122"/>
			<point x="202" y="-131"/>
			<point x="215" y="-133" type="curve" smooth="yes"/>
			<point x="365" y="-152"/>
			<point x="397" y="-223"/>
			<point x="397" y="-305" type="curve" smooth="yes"/>
			<point x="397" y="-324"/>
			<point x="413" y="-333"/>
			<point x="422" y="-333" type="curve" smooth="yes"/>
		</contour>
	</outline>
>>>>>>> origin/master
</glyph>
<<<<<<< HEAD
<glyph name="sinIi" format="1">
  <advance width="638" height="638"/>
  <unicode hex="0D8A"/>
  <outline>
    <contour>
      <point x="611" y="682" type="curve" smooth="yes"/>
      <point x="611" y="623"/>
      <point x="562" y="574"/>
      <point x="501" y="574" type="curve" smooth="yes"/>
      <point x="442" y="574"/>
      <point x="393" y="623"/>
      <point x="393" y="682" type="curve" smooth="yes"/>
      <point x="393" y="743"/>
      <point x="442" y="792"/>
      <point x="501" y="792" type="curve" smooth="yes"/>
      <point x="562" y="792"/>
      <point x="611" y="743"/>
    </contour>
    <contour>
      <point x="445" y="682" type="curve" smooth="yes"/>
      <point x="445" y="649"/>
      <point x="470" y="624"/>
      <point x="501" y="624" type="curve" smooth="yes"/>
      <point x="534" y="624"/>
      <point x="559" y="649"/>
      <point x="559" y="682" type="curve" smooth="yes"/>
      <point x="559" y="715"/>
      <point x="534" y="740"/>
      <point x="501" y="740" type="curve" smooth="yes"/>
      <point x="470" y="740"/>
      <point x="445" y="715"/>
    </contour>
    <contour>
      <point x="265" y="812" type="curve" smooth="yes"/>
      <point x="265" y="753"/>
      <point x="216" y="704"/>
      <point x="155" y="704" type="curve" smooth="yes"/>
      <point x="96" y="704"/>
      <point x="47" y="753"/>
      <point x="47" y="812" type="curve" smooth="yes"/>
      <point x="47" y="873"/>
      <point x="96" y="922"/>
      <point x="155" y="922" type="curve" smooth="yes"/>
      <point x="216" y="922"/>
      <point x="265" y="873"/>
    </contour>
    <contour>
      <point x="99" y="812" type="curve" smooth="yes"/>
      <point x="99" y="779"/>
      <point x="124" y="755"/>
      <point x="155" y="755" type="curve" smooth="yes"/>
      <point x="188" y="755"/>
      <point x="213" y="779"/>
      <point x="213" y="812" type="curve" smooth="yes"/>
      <point x="213" y="845"/>
      <point x="188" y="870"/>
      <point x="155" y="870" type="curve" smooth="yes"/>
      <point x="124" y="870"/>
      <point x="99" y="845"/>
    </contour>
    <contour>
      <point x="317" y="-12" type="curve" smooth="yes"/>
      <point x="477.513" y="-12"/>
      <point x="605.056" y="118.991"/>
      <point x="605.056" y="282.248" type="curve" smooth="yes"/>
      <point x="605.056" y="447.017"/>
      <point x="487.848" y="566"/>
      <point x="317" y="566" type="curve" smooth="yes"/>
      <point x="238" y="566"/>
      <point x="193" y="540"/>
      <point x="164" y="510" type="curve"/>
      <point x="216.666" y="592.206"/>
      <point x="341.7" y="752.144"/>
      <point x="506.772" y="893.628" type="curve" smooth="yes"/>
      <point x="514.543" y="900.288"/>
      <point x="516" y="906.104"/>
      <point x="516" y="914" type="curve" smooth="yes"/>
      <point x="516" y="927.767"/>
      <point x="504.976" y="936.202"/>
      <point x="492.259" y="936.202" type="curve" smooth="yes"/>
      <point x="484.471" y="936.202"/>
      <point x="476.137" y="933.388"/>
      <point x="469.772" y="927.628" type="curve" smooth="yes"/>
      <point x="314.072" y="786.715"/>
      <point x="185.849" y="636.272"/>
      <point x="119" y="536" type="curve" smooth="yes"/>
      <point x="61" y="449"/>
      <point x="27" y="380"/>
      <point x="27" y="276" type="curve" smooth="yes"/>
      <point x="27" y="117"/>
      <point x="156" y="-12"/>
    </contour>
    <contour>
      <point x="317" y="40" type="curve" smooth="yes"/>
      <point x="184.584" y="40"/>
      <point x="79.9922" y="143.598"/>
      <point x="79.9922" y="277.917" type="curve" smooth="yes"/>
      <point x="79.9922" y="406.088"/>
      <point x="179.685" y="515"/>
      <point x="317" y="515" type="curve" smooth="yes"/>
      <point x="450.71" y="515"/>
      <point x="553.028" y="415.921"/>
      <point x="553.028" y="279.946" type="curve" smooth="yes"/>
      <point x="553.028" y="145.253"/>
      <point x="450.87" y="40"/>
    </contour>
  </outline>
=======
<glyph name="sinIi" format="2">
	<unicode hex="0D8A"/>
	<advance width="571"/>
	<outline>
		<contour>
			<point x="428" y="-12"/>
			<point x="545" y="105"/>
			<point x="545" y="247" type="curve" smooth="yes"/>
			<point x="545" y="390"/>
			<point x="435" y="507"/>
			<point x="286" y="507" type="curve" smooth="yes"/>
			<point x="226" y="507"/>
			<point x="173" y="479"/>
			<point x="134" y="442" type="curve"/>
			<point x="180" y="527"/>
			<point x="337" y="705"/>
			<point x="493" y="832" type="curve" smooth="yes"/>
			<point x="501" y="839"/>
			<point x="505" y="846"/>
			<point x="505" y="853" type="curve" smooth="yes"/>
			<point x="505" y="864"/>
			<point x="495" y="873"/>
			<point x="483" y="873" type="curve" smooth="yes"/>
			<point x="476" y="873"/>
			<point x="469" y="871"/>
			<point x="462" y="865" type="curve" smooth="yes"/>
			<point x="306" y="727"/>
			<point x="175" y="577"/>
			<point x="109" y="479" type="curve" smooth="yes"/>
			<point x="58" y="402"/>
			<point x="27" y="340"/>
			<point x="27" y="247" type="curve" smooth="yes"/>
			<point x="27" y="105"/>
			<point x="143" y="-12"/>
			<point x="286" y="-12" type="curve" smooth="yes"/>
		</contour>
		<contour>
			<point x="167" y="32"/>
			<point x="71" y="126"/>
			<point x="71" y="247" type="curve" smooth="yes"/>
			<point x="71" y="353"/>
			<point x="169" y="463"/>
			<point x="286" y="463" type="curve" smooth="yes"/>
			<point x="401" y="463"/>
			<point x="501" y="364"/>
			<point x="501" y="247" type="curve" smooth="yes"/>
			<point x="501" y="128"/>
			<point x="406" y="32"/>
			<point x="286" y="32" type="curve" smooth="yes"/>
		</contour>
		<contour>
			<point x="139" y="563"/>
			<point x="171" y="594"/>
			<point x="171" y="634" type="curve" smooth="yes"/>
			<point x="171" y="675"/>
			<point x="139" y="707"/>
			<point x="99" y="707" type="curve" smooth="yes"/>
			<point x="59" y="707"/>
			<point x="27" y="675"/>
			<point x="27" y="634" type="curve" smooth="yes"/>
			<point x="27" y="594"/>
			<point x="59" y="563"/>
			<point x="99" y="563" type="curve" smooth="yes"/>
		</contour>
		<contour>
			<point x="77" y="597"/>
			<point x="60" y="614"/>
			<point x="60" y="636" type="curve" smooth="yes"/>
			<point x="60" y="658"/>
			<point x="77" y="674"/>
			<point x="98" y="674" type="curve" smooth="yes"/>
			<point x="120" y="674"/>
			<point x="136" y="658"/>
			<point x="136" y="636" type="curve" smooth="yes"/>
			<point x="136" y="614"/>
			<point x="120" y="597"/>
			<point x="98" y="597" type="curve" smooth="yes"/>
		</contour>
		<contour>
			<point x="487" y="563"/>
			<point x="519" y="596"/>
			<point x="519" y="636" type="curve" smooth="yes"/>
			<point x="519" y="675"/>
			<point x="487" y="708"/>
			<point x="447" y="708" type="curve" smooth="yes"/>
			<point x="406" y="708"/>
			<point x="375" y="675"/>
			<point x="375" y="636" type="curve" smooth="yes"/>
			<point x="375" y="596"/>
			<point x="406" y="563"/>
			<point x="447" y="563" type="curve" smooth="yes"/>
		</contour>
		<contour>
			<point x="425" y="599"/>
			<point x="408" y="616"/>
			<point x="408" y="637" type="curve" smooth="yes"/>
			<point x="408" y="658"/>
			<point x="425" y="675"/>
			<point x="446" y="675" type="curve" smooth="yes"/>
			<point x="467" y="675"/>
			<point x="484" y="658"/>
			<point x="484" y="637" type="curve" smooth="yes"/>
			<point x="484" y="616"/>
			<point x="467" y="599"/>
			<point x="446" y="599" type="curve" smooth="yes"/>
		</contour>
	</outline>
>>>>>>> origin/master
</glyph>
<<<<<<< HEAD
<glyph name="sinU" format="1">
  <advance width="649" height="649"/>
  <unicode hex="0D8B"/>
  <outline>
    <contour>
      <point x="295.006" y="482" type="curve" smooth="yes"/>
      <point x="322.006" y="482"/>
      <point x="374.006" y="471"/>
      <point x="398.006" y="456" type="curve"/>
      <point x="390.006" y="467"/>
      <point x="384.006" y="490"/>
      <point x="384.006" y="502" type="curve" smooth="yes"/>
      <point x="384.006" y="533"/>
      <point x="407.006" y="549"/>
      <point x="438.006" y="549" type="curve" smooth="yes"/>
      <point x="472.006" y="549"/>
      <point x="496.006" y="528"/>
      <point x="543.006" y="528" type="curve" smooth="yes"/>
      <point x="561.006" y="528"/>
      <point x="570.006" y="515"/>
      <point x="570.006" y="501" type="curve" smooth="yes"/>
      <point x="570.006" y="487"/>
      <point x="561.006" y="473"/>
      <point x="540.006" y="473" type="curve" smooth="yes"/>
      <point x="507.006" y="473"/>
      <point x="482.006" y="495"/>
      <point x="457.006" y="495" type="curve" smooth="yes"/>
      <point x="445.006" y="495"/>
      <point x="440.006" y="490"/>
      <point x="440.006" y="483" type="curve" smooth="yes"/>
      <point x="440.006" y="472"/>
      <point x="451.532" y="456.398"/>
      <point x="459.006" y="451" type="curve" smooth="yes"/>
      <point x="477.006" y="438"/>
      <point x="504.006" y="430"/>
      <point x="531.006" y="430" type="curve" smooth="yes"/>
      <point x="551.006" y="430"/>
      <point x="568.006" y="439"/>
      <point x="576.006" y="423" type="curve" smooth="yes"/>
      <point x="586.507" y="402"/>
      <point x="567.907" y="382"/>
      <point x="524.006" y="382" type="curve" smooth="yes"/>
      <point x="424.006" y="382"/>
      <point x="402.006" y="431"/>
      <point x="295.006" y="431" type="curve" smooth="yes"/>
      <point x="153.871" y="431"/>
      <point x="83.9258" y="330.229"/>
      <point x="83.0322" y="164" type="curve" smooth="yes"/>
      <point x="82.0811" y="-37.7139"/>
      <point x="218.825" y="-189"/>
      <point x="428.006" y="-189" type="curve" smooth="yes"/>
      <point x="490.006" y="-189"/>
      <point x="545.077" y="-180.687"/>
      <point x="584.032" y="-169" type="curve" smooth="yes"/>
      <point x="604.032" y="-163"/>
      <point x="622.032" y="-172"/>
      <point x="622.032" y="-192" type="curve" smooth="yes"/>
      <point x="622.032" y="-205"/>
      <point x="611.164" y="-215.415"/>
      <point x="596.032" y="-220" type="curve" smooth="yes"/>
      <point x="563.032" y="-230"/>
      <point x="492.006" y="-242"/>
      <point x="428.006" y="-242" type="curve" smooth="yes"/>
      <point x="175.006" y="-242"/>
      <point x="29.0654" y="-48.4648"/>
      <point x="27.0322" y="164" type="curve" smooth="yes"/>
      <point x="24.9736" y="356.406"/>
      <point x="121.006" y="482"/>
    </contour>
  </outline>
=======
<glyph name="sinU" format="2">
	<unicode hex="0D8B"/>
	<advance width="759"/>
	<outline>
		<contour>
			<point x="554" y="-333"/>
			<point x="652" y="-304"/>
			<point x="707" y="-268" type="curve" smooth="yes"/>
			<point x="725" y="-258"/>
			<point x="733" y="-248"/>
			<point x="733" y="-238" type="curve" smooth="yes"/>
			<point x="733" y="-235"/>
			<point x="731" y="-233"/>
			<point x="731" y="-229" type="curve" smooth="yes"/>
			<point x="727" y="-224"/>
			<point x="718" y="-218"/>
			<point x="707" y="-218" type="curve" smooth="yes"/>
			<point x="700" y="-218"/>
			<point x="694" y="-220"/>
			<point x="686" y="-225" type="curve" smooth="yes"/>
			<point x="621" y="-264"/>
			<point x="552" y="-288"/>
			<point x="464" y="-288" type="curve" smooth="yes"/>
			<point x="239" y="-288"/>
			<point x="71" y="-124"/>
			<point x="71" y="88" type="curve" smooth="yes"/>
			<point x="71" y="291"/>
			<point x="189" y="457"/>
			<point x="383" y="457" type="curve" smooth="yes"/>
			<point x="544" y="457"/>
			<point x="597" y="335"/>
			<point x="682" y="335" type="curve" smooth="yes"/>
			<point x="695" y="335"/>
			<point x="701" y="345"/>
			<point x="701" y="356" type="curve" smooth="yes"/>
			<point x="701" y="366"/>
			<point x="695" y="378"/>
			<point x="684" y="378" type="curve" smooth="yes"/>
			<point x="664" y="378"/>
			<point x="630" y="393"/>
			<point x="616" y="418" type="curve" smooth="yes"/>
			<point x="613" y="424"/>
			<point x="611" y="430"/>
			<point x="611" y="435" type="curve" smooth="yes"/>
			<point x="611" y="445"/>
			<point x="616" y="452"/>
			<point x="625" y="452" type="curve" smooth="yes"/>
			<point x="627" y="452"/>
			<point x="631" y="451"/>
			<point x="635" y="448" type="curve" smooth="yes"/>
			<point x="647" y="441"/>
			<point x="664" y="425"/>
			<point x="686" y="425" type="curve" smooth="yes"/>
			<point x="700" y="425"/>
			<point x="705" y="435"/>
			<point x="705" y="446" type="curve" smooth="yes"/>
			<point x="705" y="459"/>
			<point x="698" y="473"/>
			<point x="684" y="473" type="curve" smooth="yes"/>
			<point x="658" y="473"/>
			<point x="643" y="501"/>
			<point x="613" y="501" type="curve" smooth="yes"/>
			<point x="592" y="501"/>
			<point x="569" y="479"/>
			<point x="569" y="452" type="curve" smooth="yes"/>
			<point x="569" y="447"/>
			<point x="570" y="442"/>
			<point x="571" y="437" type="curve"/>
			<point x="549" y="451"/>
			<point x="476" y="501"/>
			<point x="383" y="501" type="curve" smooth="yes"/>
			<point x="159" y="501"/>
			<point x="27" y="304"/>
			<point x="27" y="88" type="curve" smooth="yes"/>
			<point x="27" y="-137"/>
			<point x="193" y="-333"/>
			<point x="464" y="-333" type="curve" smooth="yes"/>
		</contour>
	</outline>
>>>>>>> origin/master
</glyph>
<<<<<<< HEAD
<glyph name="sinUu" format="1">
  <advance width="1066" height="1066"/>
  <unicode hex="0D8C"/>
  <outline>
    <component base="sinU" xOffset="0.000305435"/>
    <component base="sinMatraL" xOffset="637"/>
  </outline>
=======
<glyph name="sinUu" format="2">
	<unicode hex="0D8C"/>
	<advance width="759"/>
	<outline>
		<contour>
			<point x="554" y="-333"/>
			<point x="652" y="-304"/>
			<point x="708" y="-268" type="curve" smooth="yes"/>
			<point x="725" y="-258"/>
			<point x="733" y="-248"/>
			<point x="733" y="-238" type="curve" smooth="yes"/>
			<point x="733" y="-235"/>
			<point x="731" y="-233"/>
			<point x="731" y="-229" type="curve" smooth="yes"/>
			<point x="727" y="-224"/>
			<point x="719" y="-218"/>
			<point x="707" y="-218" type="curve" smooth="yes"/>
			<point x="700" y="-218"/>
			<point x="694" y="-220"/>
			<point x="686" y="-225" type="curve" smooth="yes"/>
			<point x="621" y="-264"/>
			<point x="552" y="-288"/>
			<point x="465" y="-288" type="curve" smooth="yes"/>
			<point x="239" y="-288"/>
			<point x="72" y="-124"/>
			<point x="72" y="88" type="curve" smooth="yes"/>
			<point x="72" y="291"/>
			<point x="189" y="457"/>
			<point x="383" y="457" type="curve" smooth="yes"/>
			<point x="545" y="457"/>
			<point x="598" y="335"/>
			<point x="683" y="335" type="curve" smooth="yes"/>
			<point x="695" y="335"/>
			<point x="702" y="345"/>
			<point x="702" y="356" type="curve" smooth="yes"/>
			<point x="702" y="366"/>
			<point x="695" y="378"/>
			<point x="684" y="378" type="curve" smooth="yes"/>
			<point x="664" y="378"/>
			<point x="631" y="393"/>
			<point x="616" y="418" type="curve" smooth="yes"/>
			<point x="613" y="424"/>
			<point x="611" y="430"/>
			<point x="611" y="435" type="curve" smooth="yes"/>
			<point x="611" y="445"/>
			<point x="616" y="452"/>
			<point x="625" y="452" type="curve" smooth="yes"/>
			<point x="627" y="452"/>
			<point x="631" y="451"/>
			<point x="636" y="448" type="curve" smooth="yes"/>
			<point x="648" y="441"/>
			<point x="664" y="425"/>
			<point x="686" y="425" type="curve" smooth="yes"/>
			<point x="700" y="425"/>
			<point x="705" y="435"/>
			<point x="705" y="446" type="curve" smooth="yes"/>
			<point x="705" y="459"/>
			<point x="698" y="473"/>
			<point x="685" y="473" type="curve" smooth="yes"/>
			<point x="658" y="473"/>
			<point x="643" y="501"/>
			<point x="614" y="501" type="curve" smooth="yes"/>
			<point x="592" y="501"/>
			<point x="569" y="479"/>
			<point x="569" y="452" type="curve" smooth="yes"/>
			<point x="569" y="447"/>
			<point x="570" y="442"/>
			<point x="571" y="437" type="curve"/>
			<point x="549" y="451"/>
			<point x="476" y="501"/>
			<point x="383" y="501" type="curve" smooth="yes"/>
			<point x="160" y="501"/>
			<point x="27" y="304"/>
			<point x="27" y="88" type="curve" smooth="yes"/>
			<point x="27" y="-137"/>
			<point x="193" y="-333"/>
			<point x="465" y="-333" type="curve" smooth="yes"/>
		</contour>
	</outline>
>>>>>>> origin/master
</glyph>
<<<<<<< HEAD
<glyph name="sinvocalicRr" format="1">
  <advance width="1532" height="1532"/>
  <unicode hex="0D8E"/>
  <outline>
    <contour>
      <point x="408.479" y="103.24" type="curve"/>
      <point x="426.96" y="38.5596"/>
      <point x="507.479" y="-5"/>
      <point x="586.68" y="-5" type="curve" smooth="yes"/>
      <point x="694.92" y="-5"/>
      <point x="789.96" y="67.5996"/>
      <point x="789.96" y="206.2" type="curve" smooth="yes"/>
      <point x="789.96" y="308.78"/>
      <point x="728.96" y="417.52"/>
      <point x="623.64" y="417.52" type="curve" smooth="yes"/>
      <point x="611.76" y="417.52" type="line"/>
      <point x="623.64" y="429.4"/>
      <point x="628.92" y="447.88"/>
      <point x="628.92" y="466.36" type="curve" smooth="yes"/>
      <point x="628.92" y="482.2"/>
      <point x="626.28" y="498.04"/>
      <point x="619.68" y="511.24" type="curve" smooth="yes"/>
      <point x="615.72" y="519.16"/>
      <point x="611.76" y="525.76"/>
      <point x="595.92" y="525.76" type="curve" smooth="yes"/>
      <point x="582.72" y="525.76"/>
      <point x="573.479" y="516.52"/>
      <point x="573.479" y="505.96" type="curve" smooth="yes"/>
      <point x="573.479" y="503.32"/>
      <point x="573.704" y="502.101"/>
      <point x="574.8" y="499.36" type="curve" smooth="yes"/>
      <point x="580.08" y="486.16"/>
      <point x="581.4" y="475.6"/>
      <point x="581.4" y="466.36" type="curve" smooth="yes"/>
      <point x="581.4" y="447.88"/>
      <point x="572.159" y="436.001"/>
      <point x="561.6" y="429.4" type="curve" smooth="yes"/>
      <point x="551.04" y="422.8"/>
      <point x="531.058" y="417.072"/>
      <point x="510.12" y="412.24" type="curve" smooth="yes"/>
      <point x="489.603" y="407.506"/>
      <point x="481.786" y="396.514"/>
      <point x="485.04" y="380.24" type="curve" smooth="yes"/>
      <point x="487.688" y="367"/>
      <point x="499.695" y="361.94"/>
      <point x="515.4" y="364.08" type="curve" smooth="yes"/>
      <point x="544.44" y="368.04"/>
      <point x="555" y="376.6"/>
      <point x="595.92" y="376.6" type="curve" smooth="yes"/>
      <point x="685.68" y="376.6"/>
      <point x="742.44" y="301.627"/>
      <point x="742.44" y="206.2" type="curve" smooth="yes"/>
      <point x="742.44" y="101.92"/>
      <point x="669.84" y="42.5195"/>
      <point x="586.68" y="42.5195" type="curve" smooth="yes"/>
      <point x="487.68" y="42.5195"/>
      <point x="432.24" y="109.219"/>
      <point x="432.24" y="206.12" type="curve" smooth="yes"/>
      <point x="432.24" y="222.235"/>
      <point x="428.28" y="236.56"/>
      <point x="408.479" y="236.56" type="curve" smooth="yes"/>
      <point x="390" y="236.56"/>
      <point x="384.72" y="222.235"/>
      <point x="384.72" y="206.12" type="curve" smooth="yes"/>
      <point x="384.72" y="109.219"/>
      <point x="329.28" y="42.5195"/>
      <point x="230.28" y="42.5195" type="curve" smooth="yes"/>
      <point x="147.12" y="42.5195"/>
      <point x="74.5195" y="101.92"/>
      <point x="74.5195" y="206.2" type="curve" smooth="yes"/>
      <point x="74.5195" y="301.627"/>
      <point x="132.6" y="374.6"/>
      <point x="221.04" y="374.6" type="curve" smooth="yes"/>
      <point x="255.96" y="374.6"/>
      <point x="278.96" y="371"/>
      <point x="301.56" y="363.08" type="curve" smooth="yes"/>
      <point x="314.04" y="358.706"/>
      <point x="325.633" y="365.884"/>
      <point x="329.96" y="378" type="curve" smooth="yes"/>
      <point x="334.96" y="392"/>
      <point x="325.38" y="403.342"/>
      <point x="306.84" y="410.24" type="curve" smooth="yes"/>
      <point x="250.08" y="431.36"/>
      <point x="230.28" y="443.24"/>
      <point x="230.28" y="468.32" type="curve" smooth="yes"/>
      <point x="230.28" y="484.16"/>
      <point x="246.12" y="494.72"/>
      <point x="263.28" y="494.72" type="curve" smooth="yes"/>
      <point x="265.92" y="494.72"/>
      <point x="269.931" y="493.918"/>
      <point x="272.52" y="493.4" type="curve" smooth="yes"/>
      <point x="305.52" y="486.8"/>
      <point x="319.96" y="462.48"/>
      <point x="360.28" y="462.48" type="curve" smooth="yes"/>
      <point x="373.479" y="462.48"/>
      <point x="382.08" y="473.04"/>
      <point x="382.08" y="484.92" type="curve" smooth="yes"/>
      <point x="382.08" y="497.48"/>
      <point x="372.16" y="507.36"/>
      <point x="360.28" y="507.36" type="curve" smooth="yes"/>
      <point x="327.28" y="507.36"/>
      <point x="312.12" y="538.28"/>
      <point x="260.64" y="538.28" type="curve" smooth="yes"/>
      <point x="210.479" y="538.28"/>
      <point x="184.08" y="506.6"/>
      <point x="184.08" y="473.6" type="curve" smooth="yes"/>
      <point x="184.08" y="447.2"/>
      <point x="197.28" y="427.4"/>
      <point x="211.8" y="415.52" type="curve"/>
      <point x="198.6" y="415.52" type="line" smooth="yes"/>
      <point x="95.6396" y="415.52"/>
      <point x="27" y="321.257"/>
      <point x="27" y="206.2" type="curve" smooth="yes"/>
      <point x="27" y="67.5996"/>
      <point x="122.04" y="-5"/>
      <point x="230.28" y="-5" type="curve" smooth="yes"/>
      <point x="316.08" y="-5"/>
      <point x="386.04" y="39.8799"/>
    </contour>
    <component base="sinMatraRr" xOffset="772.96"/>
  </outline>
=======
<glyph name="sinvocalicRr" format="2">
	<unicode hex="0D8E"/>
	<advance width="1300"/>
	<outline>
		<contour>
			<point x="296" y="0"/>
			<point x="362" y="42"/>
			<point x="382" y="100" type="curve"/>
			<point x="400" y="41"/>
			<point x="475" y="0"/>
			<point x="548" y="0" type="curve" smooth="yes"/>
			<point x="649" y="0"/>
			<point x="738" y="68"/>
			<point x="738" y="196" type="curve" smooth="yes"/>
			<point x="738" y="287"/>
			<point x="678" y="382"/>
			<point x="583" y="382" type="curve" smooth="yes"/>
			<point x="579" y="382"/>
			<point x="574" y="382"/>
			<point x="571" y="382" type="curve"/>
			<point x="583" y="393"/>
			<point x="588" y="411"/>
			<point x="588" y="428" type="curve" smooth="yes"/>
			<point x="588" y="443"/>
			<point x="585" y="457"/>
			<point x="579" y="470" type="curve" smooth="yes"/>
			<point x="576" y="476"/>
			<point x="571" y="483"/>
			<point x="557" y="483" type="curve" smooth="yes"/>
			<point x="545" y="483"/>
			<point x="536" y="474"/>
			<point x="536" y="465" type="curve" smooth="yes"/>
			<point x="536" y="462"/>
			<point x="536" y="461"/>
			<point x="537" y="459" type="curve" smooth="yes"/>
			<point x="542" y="446"/>
			<point x="543" y="437"/>
			<point x="543" y="428" type="curve" smooth="yes"/>
			<point x="543" y="410"/>
			<point x="535" y="400"/>
			<point x="525" y="393" type="curve" smooth="yes"/>
			<point x="515" y="386"/>
			<point x="497" y="381"/>
			<point x="477" y="377" type="curve" smooth="yes"/>
			<point x="461" y="373"/>
			<point x="452" y="364"/>
			<point x="452" y="352" type="curve" smooth="yes"/>
			<point x="452" y="350"/>
			<point x="453" y="348"/>
			<point x="453" y="346" type="curve" smooth="yes"/>
			<point x="456" y="335"/>
			<point x="464" y="329"/>
			<point x="475" y="329" type="curve" smooth="yes"/>
			<point x="477" y="329"/>
			<point x="479" y="330"/>
			<point x="482" y="330" type="curve" smooth="yes"/>
			<point x="508" y="335"/>
			<point x="518" y="344"/>
			<point x="557" y="344" type="curve" smooth="yes"/>
			<point x="640" y="344"/>
			<point x="694" y="279"/>
			<point x="694" y="196" type="curve" smooth="yes"/>
			<point x="694" y="99"/>
			<point x="625" y="44"/>
			<point x="548" y="44" type="curve" smooth="yes"/>
			<point x="456" y="44"/>
			<point x="404" y="110"/>
			<point x="404" y="204" type="curve" smooth="yes"/>
			<point x="404" y="215"/>
			<point x="400" y="225"/>
			<point x="382" y="225" type="curve" smooth="yes"/>
			<point x="364" y="225"/>
			<point x="360" y="215"/>
			<point x="360" y="204" type="curve" smooth="yes"/>
			<point x="360" y="110"/>
			<point x="308" y="44"/>
			<point x="216" y="44" type="curve" smooth="yes"/>
			<point x="139" y="44"/>
			<point x="71" y="99"/>
			<point x="71" y="196" type="curve" smooth="yes"/>
			<point x="71" y="279"/>
			<point x="125" y="344"/>
			<point x="208" y="344" type="curve" smooth="yes"/>
			<point x="246" y="344"/>
			<point x="256" y="335"/>
			<point x="282" y="330" type="curve" smooth="yes"/>
			<point x="285" y="330"/>
			<point x="287" y="329"/>
			<point x="290" y="329" type="curve" smooth="yes"/>
			<point x="301" y="329"/>
			<point x="309" y="335"/>
			<point x="311" y="346" type="curve" smooth="yes"/>
			<point x="312" y="348"/>
			<point x="313" y="350"/>
			<point x="313" y="352" type="curve" smooth="yes"/>
			<point x="313" y="363"/>
			<point x="305" y="371"/>
			<point x="288" y="377" type="curve" smooth="yes"/>
			<point x="234" y="397"/>
			<point x="216" y="408"/>
			<point x="216" y="431" type="curve" smooth="yes"/>
			<point x="216" y="445"/>
			<point x="231" y="456"/>
			<point x="247" y="456" type="curve" smooth="yes"/>
			<point x="249" y="456"/>
			<point x="253" y="455"/>
			<point x="255" y="455" type="curve" smooth="yes"/>
			<point x="286" y="448"/>
			<point x="298" y="417"/>
			<point x="339" y="417" type="curve" smooth="yes"/>
			<point x="351" y="417"/>
			<point x="357" y="427"/>
			<point x="357" y="437" type="curve" smooth="yes"/>
			<point x="357" y="448"/>
			<point x="351" y="459"/>
			<point x="339" y="459" type="curve" smooth="yes"/>
			<point x="308" y="459"/>
			<point x="293" y="497"/>
			<point x="245" y="497" type="curve" smooth="yes"/>
			<point x="198" y="497"/>
			<point x="173" y="467"/>
			<point x="173" y="437" type="curve" smooth="yes"/>
			<point x="173" y="412"/>
			<point x="186" y="393"/>
			<point x="199" y="382" type="curve"/>
			<point x="195" y="383"/>
			<point x="191" y="383"/>
			<point x="187" y="383" type="curve" smooth="yes"/>
			<point x="91" y="383"/>
			<point x="27" y="299"/>
			<point x="27" y="196" type="curve" smooth="yes"/>
			<point x="27" y="68"/>
			<point x="116" y="0"/>
			<point x="216" y="0" type="curve" smooth="yes"/>
		</contour>
		<contour>
			<point x="855" y="51"/>
			<point x="857" y="69"/>
			<point x="857" y="90" type="curve" smooth="yes"/>
			<point x="857" y="110"/>
			<point x="855" y="133"/>
			<point x="855" y="153" type="curve" smooth="yes"/>
			<point x="855" y="189"/>
			<point x="861" y="220"/>
			<point x="898" y="220" type="curve" smooth="yes"/>
			<point x="914" y="220"/>
			<point x="931" y="214"/>
			<point x="944" y="204" type="curve"/>
			<point x="941" y="137"/>
			<point x="915" y="65"/>
			<point x="846" y="38" type="curve"/>
		</contour>
		<contour>
			<point x="911" y="-12"/>
			<point x="988" y="100"/>
			<point x="988" y="215" type="curve" smooth="yes"/>
			<point x="988" y="287" type="line" smooth="yes"/>
			<point x="988" y="408"/>
			<point x="961" y="495"/>
			<point x="866" y="495" type="curve" smooth="yes"/>
			<point x="785" y="495"/>
			<point x="754" y="449"/>
			<point x="754" y="366" type="curve" smooth="yes"/>
			<point x="754" y="357"/>
			<point x="754" y="348"/>
			<point x="755" y="338" type="curve" smooth="yes"/>
			<point x="756" y="324"/>
			<point x="768" y="318"/>
			<point x="779" y="318" type="curve" smooth="yes"/>
			<point x="790" y="318"/>
			<point x="799" y="324"/>
			<point x="799" y="337" type="curve" smooth="yes"/>
			<point x="799" y="344"/>
			<point x="799" y="352"/>
			<point x="799" y="360" type="curve" smooth="yes"/>
			<point x="799" y="424"/>
			<point x="821" y="451"/>
			<point x="866" y="451" type="curve" smooth="yes"/>
			<point x="914" y="451"/>
			<point x="944" y="422"/>
			<point x="944" y="287" type="curve" smooth="yes"/>
			<point x="944" y="251" type="line"/>
			<point x="931" y="258"/>
			<point x="916" y="262"/>
			<point x="901" y="262" type="curve" smooth="yes"/>
			<point x="827" y="262"/>
			<point x="816" y="214"/>
			<point x="816" y="161" type="curve" smooth="yes"/>
			<point x="816" y="140"/>
			<point x="818" y="118"/>
			<point x="818" y="98" type="curve" smooth="yes"/>
			<point x="818" y="63"/>
			<point x="813" y="35"/>
			<point x="782" y="29" type="curve"/>
			<point x="769" y="29"/>
			<point x="765" y="18"/>
			<point x="765" y="10" type="curve" smooth="yes"/>
			<point x="765" y="-1"/>
			<point x="773" y="-12"/>
			<point x="787" y="-12" type="curve" smooth="yes"/>
		</contour>
		<contour>
			<point x="1141" y="51"/>
			<point x="1143" y="69"/>
			<point x="1143" y="90" type="curve" smooth="yes"/>
			<point x="1143" y="110"/>
			<point x="1141" y="133"/>
			<point x="1141" y="153" type="curve" smooth="yes"/>
			<point x="1141" y="189"/>
			<point x="1147" y="220"/>
			<point x="1184" y="220" type="curve" smooth="yes"/>
			<point x="1200" y="220"/>
			<point x="1217" y="214"/>
			<point x="1229" y="204" type="curve"/>
			<point x="1227" y="137"/>
			<point x="1200" y="65"/>
			<point x="1132" y="38" type="curve"/>
		</contour>
		<contour>
			<point x="1197" y="-12"/>
			<point x="1273" y="100"/>
			<point x="1273" y="215" type="curve" smooth="yes"/>
			<point x="1273" y="287" type="line" smooth="yes"/>
			<point x="1273" y="408"/>
			<point x="1246" y="495"/>
			<point x="1152" y="495" type="curve" smooth="yes"/>
			<point x="1071" y="495"/>
			<point x="1040" y="449"/>
			<point x="1040" y="366" type="curve" smooth="yes"/>
			<point x="1040" y="357"/>
			<point x="1040" y="348"/>
			<point x="1041" y="338" type="curve" smooth="yes"/>
			<point x="1042" y="324"/>
			<point x="1054" y="318"/>
			<point x="1065" y="318" type="curve" smooth="yes"/>
			<point x="1076" y="318"/>
			<point x="1085" y="324"/>
			<point x="1085" y="337" type="curve" smooth="yes"/>
			<point x="1085" y="344"/>
			<point x="1085" y="352"/>
			<point x="1085" y="360" type="curve" smooth="yes"/>
			<point x="1085" y="424"/>
			<point x="1107" y="451"/>
			<point x="1152" y="451" type="curve" smooth="yes"/>
			<point x="1200" y="451"/>
			<point x="1229" y="422"/>
			<point x="1229" y="287" type="curve" smooth="yes"/>
			<point x="1229" y="251" type="line"/>
			<point x="1216" y="258"/>
			<point x="1202" y="262"/>
			<point x="1186" y="262" type="curve" smooth="yes"/>
			<point x="1112" y="262"/>
			<point x="1102" y="214"/>
			<point x="1102" y="161" type="curve" smooth="yes"/>
			<point x="1102" y="140"/>
			<point x="1103" y="118"/>
			<point x="1103" y="98" type="curve" smooth="yes"/>
			<point x="1103" y="63"/>
			<point x="1098" y="35"/>
			<point x="1068" y="29" type="curve"/>
			<point x="1054" y="29"/>
			<point x="1050" y="18"/>
			<point x="1050" y="10" type="curve" smooth="yes"/>
			<point x="1050" y="-1"/>
			<point x="1060" y="-12"/>
			<point x="1072" y="-12" type="curve" smooth="yes"/>
		</contour>
	</outline>
>>>>>>> origin/master
</glyph>
<<<<<<< HEAD
<glyph name="sinvocalicL" format="1">
  <advance width="961" height="961"/>
  <unicode hex="0D8F"/>
  <outline>
    <contour>
      <point x="27" y="235" type="curve" smooth="yes"/>
      <point x="27" y="420.047"/>
      <point x="135.699" y="542.52"/>
      <point x="314.8" y="542.52" type="curve" smooth="yes"/>
      <point x="324.565" y="542.52"/>
      <point x="334.601" y="542.206"/>
      <point x="344.84" y="541" type="curve" smooth="yes"/>
      <point x="390.679" y="535.6"/>
      <point x="405.646" y="514"/>
      <point x="431.84" y="514" type="curve" smooth="yes"/>
      <point x="444.84" y="514"/>
      <point x="451.84" y="503"/>
      <point x="451.84" y="492" type="curve" smooth="yes"/>
      <point x="451.84" y="480"/>
      <point x="444.84" y="469"/>
      <point x="431.84" y="469" type="curve" smooth="yes"/>
      <point x="396.726" y="469"/>
      <point x="383.409" y="496"/>
      <point x="353.84" y="496" type="curve" smooth="yes"/>
      <point x="334.84" y="496"/>
      <point x="321.84" y="488"/>
      <point x="321.84" y="472" type="curve" smooth="yes"/>
      <point x="321.84" y="457"/>
      <point x="327.84" y="451"/>
      <point x="339.84" y="442" type="curve" smooth="yes"/>
      <point x="347.02" y="436.615"/>
      <point x="365.84" y="427"/>
      <point x="386.84" y="427" type="curve" smooth="yes"/>
      <point x="397.84" y="427"/>
      <point x="405.84" y="419.227"/>
      <point x="405.84" y="406" type="curve" smooth="yes"/>
      <point x="405.84" y="389.023"/>
      <point x="393.84" y="383"/>
      <point x="383.84" y="383" type="curve" smooth="yes"/>
      <point x="368.077" y="383"/>
      <point x="341.222" y="385"/>
      <point x="324.84" y="385" type="curve" smooth="yes"/>
      <point x="318.84" y="385" type="line" smooth="yes"/>
      <point x="251.84" y="385"/>
      <point x="218.84" y="315.152"/>
      <point x="218.84" y="232" type="curve" smooth="yes"/>
      <point x="218.84" y="105"/>
      <point x="331.84" y="38"/>
      <point x="479.84" y="38" type="curve" smooth="yes"/>
      <point x="627.84" y="38"/>
      <point x="740.84" y="105"/>
      <point x="740.84" y="232" type="curve" smooth="yes"/>
      <point x="740.84" y="315.938"/>
      <point x="706.84" y="385"/>
      <point x="640.84" y="385" type="curve" smooth="yes"/>
      <point x="634.84" y="385" type="line" smooth="yes"/>
      <point x="617.729" y="385"/>
      <point x="602.173" y="380"/>
      <point x="585.84" y="380" type="curve" smooth="yes"/>
      <point x="574.84" y="380"/>
      <point x="561.84" y="390"/>
      <point x="561.84" y="404" type="curve" smooth="yes"/>
      <point x="561.84" y="413"/>
      <point x="568.78" y="424.143"/>
      <point x="575.84" y="427" type="curve" smooth="yes"/>
      <point x="593.594" y="434.187"/>
      <point x="619.882" y="439.124"/>
      <point x="619.882" y="466.271" type="curve" smooth="yes"/>
      <point x="619.882" y="482.933"/>
      <point x="604.798" y="492.592"/>
      <point x="604.798" y="512.479" type="curve" smooth="yes"/>
      <point x="604.798" y="538.54"/>
      <point x="645.202" y="539.461"/>
      <point x="670.034" y="539.541" type="curve" smooth="yes"/>
      <point x="811.84" y="540"/>
      <point x="934.119" y="425.988"/>
      <point x="934.119" y="235" type="curve" smooth="yes"/>
      <point x="934.119" y="67.5186"/>
      <point x="825.531" y="-0.0947266"/>
      <point x="758.438" y="-0.0947266" type="curve" smooth="yes"/>
      <point x="746.946" y="-0.0947266"/>
      <point x="738.034" y="6.05957"/>
      <point x="736.84" y="18" type="curve" smooth="yes"/>
      <point x="735.84" y="28"/>
      <point x="741.674" y="38.9443"/>
      <point x="756.84" y="43" type="curve" smooth="yes"/>
      <point x="842.84" y="66"/>
      <point x="884.924" y="137.463"/>
      <point x="884.924" y="235" type="curve" smooth="yes"/>
      <point x="884.924" y="383.753"/>
      <point x="785.631" y="507.692"/>
      <point x="661.615" y="488.242" type="curve"/>
      <point x="667.585" y="475.016"/>
      <point x="666.08" y="471.237"/>
      <point x="666.08" y="458.695" type="curve" smooth="yes"/>
      <point x="666.08" y="444.32"/>
      <point x="658.328" y="432.054"/>
      <point x="651.84" y="427" type="curve"/>
      <point x="739.84" y="427"/>
      <point x="790.84" y="330.549"/>
      <point x="790.84" y="232" type="curve" smooth="yes"/>
      <point x="790.84" y="79"/>
      <point x="655.84" y="-12"/>
      <point x="479.84" y="-12" type="curve" smooth="yes"/>
      <point x="303.84" y="-12"/>
      <point x="168.84" y="79"/>
      <point x="168.84" y="232" type="curve" smooth="yes"/>
      <point x="168.84" y="331.326"/>
      <point x="205.84" y="402"/>
      <point x="300.84" y="426" type="curve"/>
      <point x="290.26" y="432.03"/>
      <point x="277.743" y="446.676"/>
      <point x="274.84" y="467" type="curve" smooth="yes"/>
      <point x="273.269" y="478"/>
      <point x="275.84" y="486"/>
      <point x="277.736" y="489.479" type="curve"/>
      <point x="274.173" y="489.825"/>
      <point x="273.535" y="490"/>
      <point x="269.84" y="490" type="curve" smooth="yes"/>
      <point x="183.84" y="490"/>
      <point x="76.8809" y="404.683"/>
      <point x="76.8809" y="235" type="curve" smooth="yes"/>
      <point x="76.8809" y="120.816"/>
      <point x="135.84" y="58"/>
      <point x="201.84" y="44" type="curve" smooth="yes"/>
      <point x="218.212" y="40.5273"/>
      <point x="221.981" y="28.2666"/>
      <point x="221.981" y="19.6934" type="curve" smooth="yes"/>
      <point x="221.981" y="7.6709"/>
      <point x="213.769" y="0"/>
      <point x="199.84" y="0" type="curve" smooth="yes"/>
      <point x="131.461" y="0"/>
      <point x="27" y="74.1377"/>
    </contour>
  </outline>
=======
<glyph name="sinvocalicL" format="2">
	<unicode hex="0D8F"/>
	<advance width="901"/>
	<outline>
		<contour>
			<point x="614" y="-12"/>
			<point x="740" y="74"/>
			<point x="740" y="216" type="curve" smooth="yes"/>
			<point x="740" y="301"/>
			<point x="693" y="383"/>
			<point x="611" y="383" type="curve"/>
			<point x="639" y="402"/>
			<point x="648" y="456"/>
			<point x="709" y="456" type="curve" smooth="yes"/>
			<point x="790" y="456"/>
			<point x="831" y="341"/>
			<point x="831" y="233" type="curve" smooth="yes"/>
			<point x="831" y="136"/>
			<point x="808" y="65"/>
			<point x="775" y="48" type="curve"/>
			<point x="775" y="52" type="line"/>
			<point x="775" y="73"/>
			<point x="758" y="79"/>
			<point x="744" y="79" type="curve" smooth="yes"/>
			<point x="727" y="79"/>
			<point x="710" y="68"/>
			<point x="710" y="44" type="curve" smooth="yes"/>
			<point x="710" y="17"/>
			<point x="734" y="0"/>
			<point x="759" y="0" type="curve" smooth="yes"/>
			<point x="815" y="0"/>
			<point x="875" y="69"/>
			<point x="875" y="233" type="curve" smooth="yes"/>
			<point x="875" y="373"/>
			<point x="818" y="497"/>
			<point x="709" y="497" type="curve" smooth="yes"/>
			<point x="678" y="497"/>
			<point x="638" y="472"/>
			<point x="622" y="451" type="curve"/>
			<point x="619" y="470"/>
			<point x="614" y="485"/>
			<point x="594" y="485" type="curve" smooth="yes"/>
			<point x="583" y="485"/>
			<point x="574" y="476"/>
			<point x="574" y="466" type="curve" smooth="yes"/>
			<point x="574" y="464"/>
			<point x="574" y="462"/>
			<point x="574" y="460" type="curve"/>
			<point x="580" y="448"/>
			<point x="581" y="438"/>
			<point x="581" y="430" type="curve" smooth="yes"/>
			<point x="581" y="412"/>
			<point x="572" y="402"/>
			<point x="563" y="395" type="curve" smooth="yes"/>
			<point x="548" y="386"/>
			<point x="541" y="383"/>
			<point x="528" y="379" type="curve" smooth="yes"/>
			<point x="521" y="376"/>
			<point x="514" y="366"/>
			<point x="514" y="357" type="curve" smooth="yes"/>
			<point x="514" y="355"/>
			<point x="515" y="354"/>
			<point x="515" y="352" type="curve"/>
			<point x="518" y="341"/>
			<point x="526" y="335"/>
			<point x="536" y="335" type="curve" smooth="yes"/>
			<point x="539" y="335"/>
			<point x="541" y="335"/>
			<point x="544" y="336" type="curve" smooth="yes"/>
			<point x="561" y="340"/>
			<point x="578" y="344"/>
			<point x="594" y="344" type="curve" smooth="yes"/>
			<point x="600" y="344" type="line"/>
			<point x="663" y="340"/>
			<point x="696" y="286"/>
			<point x="696" y="216" type="curve" smooth="yes"/>
			<point x="696" y="98"/>
			<point x="589" y="32"/>
			<point x="451" y="32" type="curve" smooth="yes"/>
			<point x="313" y="32"/>
			<point x="206" y="98"/>
			<point x="206" y="216" type="curve" smooth="yes"/>
			<point x="206" y="286"/>
			<point x="238" y="340"/>
			<point x="302" y="344" type="curve"/>
			<point x="307" y="344" type="line" smooth="yes"/>
			<point x="324" y="344"/>
			<point x="341" y="340"/>
			<point x="358" y="336" type="curve"/>
			<point x="360" y="335"/>
			<point x="363" y="335"/>
			<point x="365" y="335" type="curve" smooth="yes"/>
			<point x="376" y="335"/>
			<point x="383" y="341"/>
			<point x="386" y="352" type="curve" smooth="yes"/>
			<point x="387" y="354"/>
			<point x="387" y="356"/>
			<point x="387" y="358" type="curve" smooth="yes"/>
			<point x="387" y="369"/>
			<point x="379" y="378"/>
			<point x="362" y="384" type="curve" smooth="yes"/>
			<point x="326" y="397"/>
			<point x="308" y="410"/>
			<point x="308" y="431" type="curve" smooth="yes"/>
			<point x="308" y="445"/>
			<point x="322" y="456"/>
			<point x="338" y="456" type="curve" smooth="yes"/>
			<point x="341" y="456"/>
			<point x="344" y="455"/>
			<point x="347" y="455" type="curve" smooth="yes"/>
			<point x="378" y="448"/>
			<point x="389" y="417"/>
			<point x="431" y="417" type="curve" smooth="yes"/>
			<point x="443" y="417"/>
			<point x="448" y="427"/>
			<point x="448" y="437" type="curve" smooth="yes"/>
			<point x="448" y="448"/>
			<point x="442" y="459"/>
			<point x="431" y="459" type="curve" smooth="yes"/>
			<point x="400" y="459"/>
			<point x="384" y="497"/>
			<point x="336" y="497" type="curve" smooth="yes"/>
			<point x="306" y="497"/>
			<point x="284" y="481"/>
			<point x="274" y="459" type="curve"/>
			<point x="258" y="476"/>
			<point x="222" y="497"/>
			<point x="192" y="497" type="curve" smooth="yes"/>
			<point x="83" y="497"/>
			<point x="27" y="373"/>
			<point x="27" y="233" type="curve" smooth="yes"/>
			<point x="27" y="69"/>
			<point x="87" y="0"/>
			<point x="142" y="0" type="curve" smooth="yes"/>
			<point x="168" y="0"/>
			<point x="192" y="17"/>
			<point x="192" y="44" type="curve" smooth="yes"/>
			<point x="192" y="68"/>
			<point x="174" y="79"/>
			<point x="158" y="79" type="curve" smooth="yes"/>
			<point x="143" y="79"/>
			<point x="127" y="73"/>
			<point x="127" y="52" type="curve"/>
			<point x="127" y="48" type="line"/>
			<point x="94" y="65"/>
			<point x="71" y="136"/>
			<point x="71" y="233" type="curve" smooth="yes"/>
			<point x="71" y="341"/>
			<point x="111" y="456"/>
			<point x="192" y="456" type="curve" smooth="yes"/>
			<point x="221" y="456"/>
			<point x="254" y="442"/>
			<point x="271" y="409" type="curve" smooth="yes"/>
			<point x="277" y="400"/>
			<point x="282" y="391"/>
			<point x="293" y="383" type="curve"/>
			<point x="291" y="383" type="line" smooth="yes"/>
			<point x="208" y="383"/>
			<point x="161" y="301"/>
			<point x="161" y="216" type="curve" smooth="yes"/>
			<point x="161" y="74"/>
			<point x="287" y="-12"/>
			<point x="451" y="-12" type="curve" smooth="yes"/>
		</contour>
	</outline>
>>>>>>> origin/master
</glyph>
<<<<<<< HEAD
<glyph name="sinvocalicLL" format="1">
  <advance width="1336" height="1336"/>
  <unicode hex="0D90"/>
  <outline>
    <component base="sinvocalicL" xOffset="0.000242593"/>
    <component base="sinMatraL" xOffset="907"/>
  </outline>
=======
<glyph name="sinvocalicLL" format="2">
	<unicode hex="0D90"/>
	<advance width="1211"/>
	<outline>
		<contour>
			<point x="614" y="-12"/>
			<point x="740" y="74"/>
			<point x="740" y="216" type="curve" smooth="yes"/>
			<point x="740" y="301"/>
			<point x="693" y="383"/>
			<point x="611" y="383" type="curve"/>
			<point x="639" y="402"/>
			<point x="648" y="456"/>
			<point x="709" y="456" type="curve" smooth="yes"/>
			<point x="790" y="456"/>
			<point x="831" y="341"/>
			<point x="831" y="233" type="curve" smooth="yes"/>
			<point x="831" y="136"/>
			<point x="808" y="65"/>
			<point x="775" y="48" type="curve"/>
			<point x="775" y="52" type="line"/>
			<point x="775" y="73"/>
			<point x="758" y="79"/>
			<point x="744" y="79" type="curve" smooth="yes"/>
			<point x="727" y="79"/>
			<point x="710" y="68"/>
			<point x="710" y="44" type="curve" smooth="yes"/>
			<point x="710" y="17"/>
			<point x="734" y="0"/>
			<point x="759" y="0" type="curve" smooth="yes"/>
			<point x="815" y="0"/>
			<point x="875" y="69"/>
			<point x="875" y="233" type="curve" smooth="yes"/>
			<point x="875" y="373"/>
			<point x="818" y="497"/>
			<point x="709" y="497" type="curve" smooth="yes"/>
			<point x="678" y="497"/>
			<point x="638" y="472"/>
			<point x="622" y="451" type="curve"/>
			<point x="619" y="470"/>
			<point x="614" y="485"/>
			<point x="594" y="485" type="curve" smooth="yes"/>
			<point x="583" y="485"/>
			<point x="574" y="476"/>
			<point x="574" y="466" type="curve" smooth="yes"/>
			<point x="574" y="464"/>
			<point x="574" y="462"/>
			<point x="574" y="460" type="curve"/>
			<point x="580" y="448"/>
			<point x="581" y="438"/>
			<point x="581" y="430" type="curve" smooth="yes"/>
			<point x="581" y="412"/>
			<point x="572" y="402"/>
			<point x="563" y="395" type="curve" smooth="yes"/>
			<point x="548" y="386"/>
			<point x="541" y="383"/>
			<point x="528" y="379" type="curve" smooth="yes"/>
			<point x="521" y="376"/>
			<point x="514" y="366"/>
			<point x="514" y="357" type="curve" smooth="yes"/>
			<point x="514" y="355"/>
			<point x="515" y="354"/>
			<point x="515" y="352" type="curve"/>
			<point x="518" y="341"/>
			<point x="526" y="335"/>
			<point x="536" y="335" type="curve" smooth="yes"/>
			<point x="539" y="335"/>
			<point x="541" y="335"/>
			<point x="544" y="336" type="curve" smooth="yes"/>
			<point x="561" y="340"/>
			<point x="578" y="344"/>
			<point x="594" y="344" type="curve" smooth="yes"/>
			<point x="600" y="344" type="line"/>
			<point x="663" y="340"/>
			<point x="696" y="286"/>
			<point x="696" y="216" type="curve" smooth="yes"/>
			<point x="696" y="98"/>
			<point x="589" y="32"/>
			<point x="451" y="32" type="curve" smooth="yes"/>
			<point x="313" y="32"/>
			<point x="206" y="98"/>
			<point x="206" y="216" type="curve" smooth="yes"/>
			<point x="206" y="286"/>
			<point x="238" y="340"/>
			<point x="302" y="344" type="curve"/>
			<point x="307" y="344" type="line" smooth="yes"/>
			<point x="324" y="344"/>
			<point x="341" y="340"/>
			<point x="358" y="336" type="curve"/>
			<point x="360" y="335"/>
			<point x="363" y="335"/>
			<point x="365" y="335" type="curve" smooth="yes"/>
			<point x="376" y="335"/>
			<point x="383" y="341"/>
			<point x="386" y="352" type="curve" smooth="yes"/>
			<point x="387" y="354"/>
			<point x="387" y="356"/>
			<point x="387" y="358" type="curve" smooth="yes"/>
			<point x="387" y="369"/>
			<point x="379" y="378"/>
			<point x="362" y="384" type="curve" smooth="yes"/>
			<point x="326" y="397"/>
			<point x="308" y="410"/>
			<point x="308" y="431" type="curve" smooth="yes"/>
			<point x="308" y="445"/>
			<point x="322" y="456"/>
			<point x="338" y="456" type="curve" smooth="yes"/>
			<point x="341" y="456"/>
			<point x="344" y="455"/>
			<point x="347" y="455" type="curve" smooth="yes"/>
			<point x="378" y="448"/>
			<point x="389" y="417"/>
			<point x="431" y="417" type="curve" smooth="yes"/>
			<point x="443" y="417"/>
			<point x="448" y="427"/>
			<point x="448" y="437" type="curve" smooth="yes"/>
			<point x="448" y="448"/>
			<point x="442" y="459"/>
			<point x="431" y="459" type="curve" smooth="yes"/>
			<point x="400" y="459"/>
			<point x="384" y="497"/>
			<point x="336" y="497" type="curve" smooth="yes"/>
			<point x="306" y="497"/>
			<point x="284" y="481"/>
			<point x="274" y="459" type="curve"/>
			<point x="258" y="476"/>
			<point x="222" y="497"/>
			<point x="192" y="497" type="curve" smooth="yes"/>
			<point x="83" y="497"/>
			<point x="27" y="373"/>
			<point x="27" y="233" type="curve" smooth="yes"/>
			<point x="27" y="69"/>
			<point x="87" y="0"/>
			<point x="142" y="0" type="curve" smooth="yes"/>
			<point x="168" y="0"/>
			<point x="192" y="17"/>
			<point x="192" y="44" type="curve" smooth="yes"/>
			<point x="192" y="68"/>
			<point x="174" y="79"/>
			<point x="158" y="79" type="curve" smooth="yes"/>
			<point x="143" y="79"/>
			<point x="127" y="73"/>
			<point x="127" y="52" type="curve"/>
			<point x="127" y="48" type="line"/>
			<point x="94" y="65"/>
			<point x="71" y="136"/>
			<point x="71" y="233" type="curve" smooth="yes"/>
			<point x="71" y="341"/>
			<point x="111" y="456"/>
			<point x="192" y="456" type="curve" smooth="yes"/>
			<point x="221" y="456"/>
			<point x="254" y="442"/>
			<point x="271" y="409" type="curve" smooth="yes"/>
			<point x="277" y="400"/>
			<point x="282" y="391"/>
			<point x="293" y="383" type="curve"/>
			<point x="291" y="383" type="line" smooth="yes"/>
			<point x="208" y="383"/>
			<point x="161" y="301"/>
			<point x="161" y="216" type="curve" smooth="yes"/>
			<point x="161" y="74"/>
			<point x="287" y="-12"/>
			<point x="451" y="-12" type="curve" smooth="yes"/>
		</contour>
		<contour>
			<point x="1148" y="0"/>
			<point x="1185" y="70"/>
			<point x="1185" y="160" type="curve" smooth="yes"/>
			<point x="1185" y="229"/>
			<point x="1156" y="308"/>
			<point x="1091" y="308" type="curve" smooth="yes"/>
			<point x="1034" y="308"/>
			<point x="1037" y="250"/>
			<point x="1007" y="250" type="curve" smooth="yes"/>
			<point x="988" y="250"/>
			<point x="970" y="291"/>
			<point x="970" y="348" type="curve" smooth="yes"/>
			<point x="970" y="414"/>
			<point x="990" y="442"/>
			<point x="1027" y="442" type="curve" smooth="yes"/>
			<point x="1054" y="442"/>
			<point x="1077" y="423"/>
			<point x="1077" y="392" type="curve" smooth="yes"/>
			<point x="1077" y="388"/>
			<point x="1077" y="384"/>
			<point x="1077" y="380" type="curve" smooth="yes"/>
			<point x="1077" y="369"/>
			<point x="1086" y="364"/>
			<point x="1096" y="364" type="curve" smooth="yes"/>
			<point x="1107" y="364"/>
			<point x="1119" y="369"/>
			<point x="1120" y="382" type="curve" smooth="yes"/>
			<point x="1120" y="386"/>
			<point x="1121" y="391"/>
			<point x="1121" y="395" type="curve" smooth="yes"/>
			<point x="1121" y="451"/>
			<point x="1075" y="485"/>
			<point x="1027" y="485" type="curve" smooth="yes"/>
			<point x="977" y="485"/>
			<point x="929" y="446"/>
			<point x="929" y="347" type="curve" smooth="yes"/>
			<point x="929" y="271"/>
			<point x="958" y="209"/>
			<point x="1007" y="209" type="curve" smooth="yes"/>
			<point x="1057" y="209"/>
			<point x="1066" y="268"/>
			<point x="1091" y="268" type="curve" smooth="yes"/>
			<point x="1131" y="268"/>
			<point x="1141" y="203"/>
			<point x="1141" y="160" type="curve" smooth="yes"/>
			<point x="1141" y="94"/>
			<point x="1120" y="44"/>
			<point x="1061" y="44" type="curve" smooth="yes"/>
			<point x="1030" y="44"/>
			<point x="996" y="63"/>
			<point x="996" y="107" type="curve" smooth="yes"/>
			<point x="996" y="123"/>
			<point x="985" y="131"/>
			<point x="974" y="131" type="curve" smooth="yes"/>
			<point x="963" y="131"/>
			<point x="952" y="123"/>
			<point x="952" y="107" type="curve" smooth="yes"/>
			<point x="952" y="50"/>
			<point x="987" y="0"/>
			<point x="1061" y="0" type="curve" smooth="yes"/>
		</contour>
	</outline>
>>>>>>> origin/master
</glyph>
<<<<<<< HEAD
<glyph name="sinE" format="1">
  <advance width="687" height="687"/>
  <unicode hex="0D91"/>
  <outline>
    <contour>
      <point x="507" y="621.272" type="line"/>
      <point x="476.605" y="589.429"/>
      <point x="431.128" y="564"/>
      <point x="379" y="564" type="curve" smooth="yes"/>
      <point x="319.073" y="564"/>
      <point x="262" y="602.95"/>
      <point x="262" y="678" type="curve" smooth="yes"/>
      <point x="262" y="706"/>
      <point x="269.258" y="736"/>
      <point x="287" y="765" type="curve" smooth="yes"/>
      <point x="307.095" y="795.599"/>
      <point x="323.529" y="811.226"/>
      <point x="343.33" y="830" type="curve"/>
      <point x="373.574" y="794" type="line"/>
      <point x="339.139" y="768.987"/>
      <point x="306" y="726.934"/>
      <point x="306" y="678" type="curve" smooth="yes"/>
      <point x="306" y="628.102"/>
      <point x="341.15" y="605"/>
      <point x="380" y="605" type="curve" smooth="yes"/>
      <point x="417.942" y="605"/>
      <point x="455.646" y="628.91"/>
      <point x="477" y="657.211" type="curve"/>
    </contour>
    <contour>
      <point x="334" y="821" type="curve" smooth="yes"/>
      <point x="329.779" y="826.139"/>
      <point x="309.564" y="845.804"/>
      <point x="329" y="862" type="curve" smooth="yes"/>
      <point x="337.759" y="869.299"/>
      <point x="352.438" y="868.372"/>
      <point x="360" y="859" type="curve" smooth="yes"/>
      <point x="431" y="771"/>
      <point x="660" y="509"/>
      <point x="660" y="279" type="curve" smooth="yes"/>
      <point x="660" y="107.589"/>
      <point x="554" y="-12"/>
      <point x="366" y="-12" type="curve" smooth="yes"/>
      <point x="190" y="-12"/>
      <point x="79" y="67.1426"/>
      <point x="79" y="201" type="curve" smooth="yes"/>
      <point x="79" y="318.413"/>
      <point x="142.204" y="368.88"/>
      <point x="172" y="373" type="curve"/>
      <point x="159" y="376"/>
      <point x="148" y="375"/>
      <point x="137" y="375" type="curve" smooth="yes"/>
      <point x="103" y="375"/>
      <point x="83" y="368"/>
      <point x="63" y="363" type="curve" smooth="yes"/>
      <point x="59" y="362"/>
      <point x="56" y="362"/>
      <point x="53" y="362" type="curve" smooth="yes"/>
      <point x="36" y="362"/>
      <point x="27" y="375"/>
      <point x="27" y="388" type="curve" smooth="yes"/>
      <point x="27" y="417.638"/>
      <point x="75.4033" y="419"/>
      <point x="108" y="419" type="curve" smooth="yes"/>
      <point x="144" y="419"/>
      <point x="180" y="413"/>
      <point x="208" y="400" type="curve"/>
      <point x="196" y="415"/>
      <point x="191" y="430"/>
      <point x="191" y="445" type="curve" smooth="yes"/>
      <point x="191" y="476.403"/>
      <point x="214.637" y="504"/>
      <point x="256" y="504" type="curve" smooth="yes"/>
      <point x="306" y="504"/>
      <point x="324" y="469"/>
      <point x="347" y="469" type="curve" smooth="yes"/>
      <point x="359" y="469"/>
      <point x="367" y="457"/>
      <point x="366" y="447" type="curve" smooth="yes"/>
      <point x="364.706" y="434.064"/>
      <point x="357" y="427"/>
      <point x="341" y="427" type="curve" smooth="yes"/>
      <point x="307" y="427"/>
      <point x="297" y="459"/>
      <point x="268" y="459" type="curve" smooth="yes"/>
      <point x="250.581" y="459"/>
      <point x="238" y="451.08"/>
      <point x="238" y="437" type="curve" smooth="yes"/>
      <point x="238" y="415"/>
      <point x="262" y="398.999"/>
      <point x="302" y="384" type="curve" smooth="yes"/>
      <point x="315.92" y="378.78"/>
      <point x="323" y="371"/>
      <point x="323" y="359" type="curve" smooth="yes"/>
      <point x="323" y="343"/>
      <point x="312" y="339"/>
      <point x="299" y="339" type="curve" smooth="yes"/>
      <point x="276" y="339"/>
      <point x="258" y="346"/>
      <point x="237" y="346" type="curve" smooth="yes"/>
      <point x="230" y="346" type="line" smooth="yes"/>
      <point x="168.93" y="346"/>
      <point x="127" y="278.679"/>
      <point x="127" y="201" type="curve" smooth="yes"/>
      <point x="127" y="101.047"/>
      <point x="218" y="37"/>
      <point x="366" y="37" type="curve" smooth="yes"/>
      <point x="517" y="37"/>
      <point x="613" y="143.56"/>
      <point x="613" y="279" type="curve" smooth="yes"/>
      <point x="613" y="479"/>
      <point x="403" y="737"/>
    </contour>
  </outline>
=======
<glyph name="sinE" format="2">
	<unicode hex="0D91"/>
	<advance width="639"/>
	<outline>
		<contour>
			<point x="525" y="-12"/>
			<point x="612" y="94"/>
			<point x="612" y="254" type="curve" smooth="yes"/>
			<point x="612" y="441"/>
			<point x="477" y="605"/>
			<point x="390" y="703" type="curve" smooth="yes"/>
			<point x="370" y="727"/>
			<point x="351" y="746"/>
			<point x="338" y="762" type="curve"/>
			<point x="324" y="738"/>
			<point x="311" y="717"/>
			<point x="299" y="698" type="curve" smooth="yes"/>
			<point x="269" y="651"/>
			<point x="229" y="594"/>
			<point x="229" y="545" type="curve" smooth="yes"/>
			<point x="229" y="470"/>
			<point x="285" y="432"/>
			<point x="344" y="432" type="curve" smooth="yes"/>
			<point x="391" y="432"/>
			<point x="457" y="472"/>
			<point x="486" y="515" type="curve"/>
			<point x="518" y="470"/>
			<point x="567" y="383"/>
			<point x="567" y="254" type="curve" smooth="yes"/>
			<point x="567" y="127"/>
			<point x="494" y="35"/>
			<point x="333" y="35" type="curve" smooth="yes"/>
			<point x="195" y="35"/>
			<point x="111" y="105"/>
			<point x="111" y="216" type="curve" smooth="yes"/>
			<point x="111" y="286"/>
			<point x="154" y="341"/>
			<point x="217" y="346" type="curve"/>
			<point x="222" y="346" type="line" smooth="yes"/>
			<point x="240" y="346"/>
			<point x="256" y="341"/>
			<point x="273" y="337" type="curve"/>
			<point x="276" y="337"/>
			<point x="278" y="336"/>
			<point x="280" y="336" type="curve" smooth="yes"/>
			<point x="291" y="336"/>
			<point x="299" y="342"/>
			<point x="302" y="353" type="curve" smooth="yes"/>
			<point x="302" y="355"/>
			<point x="303" y="357"/>
			<point x="303" y="359" type="curve" smooth="yes"/>
			<point x="303" y="370"/>
			<point x="294" y="379"/>
			<point x="277" y="385" type="curve" smooth="yes"/>
			<point x="241" y="398"/>
			<point x="223" y="411"/>
			<point x="223" y="432" type="curve" smooth="yes"/>
			<point x="223" y="446"/>
			<point x="237" y="456"/>
			<point x="254" y="456" type="curve" smooth="yes"/>
			<point x="257" y="456"/>
			<point x="260" y="456"/>
			<point x="262" y="456" type="curve" smooth="yes"/>
			<point x="283" y="451"/>
			<point x="298" y="432"/>
			<point x="344" y="432" type="curve" smooth="yes"/>
			<point x="357" y="432"/>
			<point x="363" y="439"/>
			<point x="363" y="445" type="curve" smooth="yes"/>
			<point x="363" y="453"/>
			<point x="357" y="459"/>
			<point x="346" y="459" type="curve" smooth="yes"/>
			<point x="314" y="459"/>
			<point x="299" y="497"/>
			<point x="248" y="497" type="curve" smooth="yes"/>
			<point x="204" y="497"/>
			<point x="179" y="470"/>
			<point x="179" y="439" type="curve" smooth="yes"/>
			<point x="179" y="425"/>
			<point x="184" y="410"/>
			<point x="195" y="397" type="curve"/>
			<point x="170" y="408"/>
			<point x="136" y="414"/>
			<point x="102" y="414" type="curve" smooth="yes"/>
			<point x="84" y="414"/>
			<point x="66" y="413"/>
			<point x="50" y="410" type="curve" smooth="yes"/>
			<point x="34" y="406"/>
			<point x="27" y="396"/>
			<point x="27" y="386" type="curve" smooth="yes"/>
			<point x="27" y="373"/>
			<point x="36" y="362"/>
			<point x="52" y="362" type="curve" smooth="yes"/>
			<point x="55" y="362"/>
			<point x="57" y="362"/>
			<point x="60" y="363" type="curve" smooth="yes"/>
			<point x="79" y="367"/>
			<point x="97" y="374"/>
			<point x="129" y="374" type="curve" smooth="yes"/>
			<point x="139" y="374"/>
			<point x="150" y="373"/>
			<point x="163" y="372" type="curve"/>
			<point x="131" y="367"/>
			<point x="66" y="322"/>
			<point x="66" y="216" type="curve" smooth="yes"/>
			<point x="66" y="74"/>
			<point x="170" y="-12"/>
			<point x="333" y="-12" type="curve" smooth="yes"/>
		</contour>
		<contour>
			<point x="306" y="471"/>
			<point x="270" y="494"/>
			<point x="270" y="545" type="curve" smooth="yes"/>
			<point x="270" y="589"/>
			<point x="321" y="654"/>
			<point x="347" y="689" type="curve"/>
			<point x="377" y="656"/>
			<point x="428" y="599"/>
			<point x="456" y="552" type="curve"/>
			<point x="444" y="512"/>
			<point x="384" y="471"/>
			<point x="345" y="471" type="curve" smooth="yes"/>
		</contour>
	</outline>
>>>>>>> origin/master
</glyph>
<<<<<<< HEAD
<glyph name="sinEe" format="1">
  <advance width="756" height="756"/>
  <unicode hex="0D92"/>
  <outline>
    <contour>
      <point x="475.87" y="936" type="curve" smooth="yes"/>
      <point x="475.87" y="955.08"/>
      <point x="481.186" y="971.38"/>
      <point x="500.984" y="971.38" type="curve" smooth="yes"/>
      <point x="517.302" y="971.38"/>
      <point x="525" y="958.232"/>
      <point x="525" y="941" type="curve"/>
      <point x="533" y="935"/>
      <point x="541" y="933"/>
      <point x="551" y="933" type="curve" smooth="yes"/>
      <point x="592" y="933"/>
      <point x="612" y="957"/>
      <point x="649" y="957" type="curve" smooth="yes"/>
      <point x="685" y="957"/>
      <point x="729" y="929"/>
      <point x="729" y="866" type="curve" smooth="yes"/>
      <point x="729" y="788"/>
      <point x="676" y="725"/>
      <point x="604" y="725" type="curve" smooth="yes"/>
      <point x="569" y="725"/>
      <point x="543" y="737"/>
      <point x="522" y="752" type="curve"/>
      <point x="522" y="752"/>
      <point x="522" y="730.036"/>
      <point x="522" y="716" type="curve" smooth="yes"/>
      <point x="522" y="635.898"/>
      <point x="541.581" y="620.277"/>
      <point x="561" y="577" type="curve" smooth="yes"/>
      <point x="573.115" y="550"/>
      <point x="489.121" y="607"/>
      <point x="484" y="622" type="curve" smooth="yes"/>
      <point x="480.632" y="631.866"/>
      <point x="476" y="727.835"/>
      <point x="476" y="796" type="curve" smooth="yes"/>
      <point x="476" y="823.312"/>
      <point x="476" y="844.223"/>
      <point x="476" y="863" type="curve"/>
      <point x="475.935" y="888.623"/>
      <point x="475.87" y="910"/>
    </contour>
    <contour>
      <point x="635" y="909" type="curve" smooth="yes"/>
      <point x="602.79" y="909"/>
      <point x="587.296" y="888.562"/>
      <point x="555.219" y="888.562" type="curve" smooth="yes"/>
      <point x="540.875" y="888.562"/>
      <point x="530.75" y="892.5"/>
      <point x="524" y="897" type="curve"/>
      <point x="523" y="866"/>
      <point x="523" y="834"/>
      <point x="523" y="802" type="curve"/>
      <point x="538" y="787"/>
      <point x="563" y="771"/>
      <point x="598" y="771" type="curve" smooth="yes"/>
      <point x="648" y="771"/>
      <point x="678" y="809"/>
      <point x="678" y="859" type="curve" smooth="yes"/>
      <point x="678" y="898"/>
      <point x="657" y="909"/>
    </contour>
    <component base="sinE"/>
  </outline>
=======
<glyph name="sinEe" format="2">
	<unicode hex="0D92"/>
	<advance width="639"/>
	<outline>
		<contour>
			<point x="524" y="-12"/>
			<point x="612" y="94"/>
			<point x="612" y="254" type="curve" smooth="yes"/>
			<point x="612" y="441"/>
			<point x="477" y="605"/>
			<point x="390" y="703" type="curve" smooth="yes"/>
			<point x="369" y="727"/>
			<point x="351" y="746"/>
			<point x="338" y="762" type="curve"/>
			<point x="324" y="738"/>
			<point x="311" y="717"/>
			<point x="299" y="698" type="curve" smooth="yes"/>
			<point x="269" y="651"/>
			<point x="229" y="594"/>
			<point x="229" y="545" type="curve" smooth="yes"/>
			<point x="229" y="470"/>
			<point x="285" y="432"/>
			<point x="344" y="432" type="curve" smooth="yes"/>
			<point x="391" y="432"/>
			<point x="457" y="472"/>
			<point x="486" y="515" type="curve"/>
			<point x="518" y="470"/>
			<point x="567" y="383"/>
			<point x="567" y="254" type="curve" smooth="yes"/>
			<point x="567" y="127"/>
			<point x="494" y="35"/>
			<point x="333" y="35" type="curve" smooth="yes"/>
			<point x="195" y="35"/>
			<point x="111" y="105"/>
			<point x="111" y="216" type="curve" smooth="yes"/>
			<point x="111" y="286"/>
			<point x="154" y="341"/>
			<point x="217" y="346" type="curve"/>
			<point x="222" y="346" type="line" smooth="yes"/>
			<point x="239" y="346"/>
			<point x="256" y="341"/>
			<point x="273" y="337" type="curve"/>
			<point x="276" y="337"/>
			<point x="278" y="336"/>
			<point x="280" y="336" type="curve" smooth="yes"/>
			<point x="291" y="336"/>
			<point x="299" y="342"/>
			<point x="302" y="353" type="curve" smooth="yes"/>
			<point x="302" y="355"/>
			<point x="302" y="357"/>
			<point x="302" y="359" type="curve" smooth="yes"/>
			<point x="302" y="370"/>
			<point x="293" y="379"/>
			<point x="277" y="385" type="curve" smooth="yes"/>
			<point x="241" y="398"/>
			<point x="223" y="411"/>
			<point x="223" y="432" type="curve" smooth="yes"/>
			<point x="223" y="446"/>
			<point x="237" y="456"/>
			<point x="254" y="456" type="curve" smooth="yes"/>
			<point x="257" y="456"/>
			<point x="260" y="456"/>
			<point x="262" y="456" type="curve" smooth="yes"/>
			<point x="283" y="451"/>
			<point x="298" y="432"/>
			<point x="344" y="432" type="curve" smooth="yes"/>
			<point x="357" y="432"/>
			<point x="363" y="439"/>
			<point x="363" y="445" type="curve" smooth="yes"/>
			<point x="363" y="453"/>
			<point x="357" y="459"/>
			<point x="346" y="459" type="curve" smooth="yes"/>
			<point x="314" y="459"/>
			<point x="299" y="497"/>
			<point x="248" y="497" type="curve" smooth="yes"/>
			<point x="204" y="497"/>
			<point x="178" y="470"/>
			<point x="178" y="439" type="curve" smooth="yes"/>
			<point x="178" y="425"/>
			<point x="184" y="410"/>
			<point x="195" y="397" type="curve"/>
			<point x="170" y="408"/>
			<point x="136" y="414"/>
			<point x="102" y="414" type="curve" smooth="yes"/>
			<point x="83" y="414"/>
			<point x="66" y="413"/>
			<point x="50" y="410" type="curve" smooth="yes"/>
			<point x="34" y="406"/>
			<point x="27" y="396"/>
			<point x="27" y="386" type="curve" smooth="yes"/>
			<point x="27" y="373"/>
			<point x="36" y="362"/>
			<point x="52" y="362" type="curve" smooth="yes"/>
			<point x="54" y="362"/>
			<point x="57" y="362"/>
			<point x="60" y="363" type="curve" smooth="yes"/>
			<point x="79" y="367"/>
			<point x="97" y="374"/>
			<point x="129" y="374" type="curve" smooth="yes"/>
			<point x="139" y="374"/>
			<point x="150" y="373"/>
			<point x="163" y="372" type="curve"/>
			<point x="131" y="367"/>
			<point x="66" y="322"/>
			<point x="66" y="216" type="curve" smooth="yes"/>
			<point x="66" y="74"/>
			<point x="170" y="-12"/>
			<point x="333" y="-12" type="curve" smooth="yes"/>
		</contour>
		<contour>
			<point x="306" y="471"/>
			<point x="270" y="494"/>
			<point x="270" y="545" type="curve" smooth="yes"/>
			<point x="270" y="589"/>
			<point x="321" y="654"/>
			<point x="347" y="689" type="curve"/>
			<point x="377" y="656"/>
			<point x="428" y="599"/>
			<point x="456" y="552" type="curve"/>
			<point x="444" y="512"/>
			<point x="384" y="471"/>
			<point x="345" y="471" type="curve" smooth="yes"/>
		</contour>
		<contour>
			<point x="526" y="796" type="line"/>
			<point x="535" y="782"/>
			<point x="568" y="763"/>
			<point x="568" y="740" type="curve" smooth="yes"/>
			<point x="568" y="733"/>
			<point x="563" y="715"/>
			<point x="542" y="715" type="curve" smooth="yes"/>
			<point x="535" y="715"/>
			<point x="526" y="717"/>
			<point x="515" y="722" type="curve" smooth="yes"/>
			<point x="510" y="724"/>
			<point x="507" y="725"/>
			<point x="504" y="725" type="curve" smooth="yes"/>
			<point x="495" y="725"/>
			<point x="490" y="720"/>
			<point x="490" y="714" type="curve" smooth="yes"/>
			<point x="490" y="706"/>
			<point x="498" y="695"/>
			<point x="517" y="688" type="curve" smooth="yes"/>
			<point x="530" y="683"/>
			<point x="543" y="681"/>
			<point x="554" y="681" type="curve" smooth="yes"/>
			<point x="590" y="681"/>
			<point x="612" y="706"/>
			<point x="612" y="729" type="curve" smooth="yes"/>
			<point x="612" y="790"/>
			<point x="526" y="802"/>
			<point x="526" y="855" type="curve" smooth="yes"/>
			<point x="526" y="875"/>
			<point x="515" y="884"/>
			<point x="504" y="884" type="curve" smooth="yes"/>
			<point x="493" y="884"/>
			<point x="481" y="875"/>
			<point x="481" y="859" type="curve" smooth="yes"/>
			<point x="481" y="540" type="line"/>
			<point x="526" y="470" type="line"/>
		</contour>
	</outline>
>>>>>>> origin/master
</glyph>
<<<<<<< HEAD
<glyph name="sinAi" format="1">
  <advance width="1128" height="1128"/>
  <unicode hex="0D93"/>
  <outline>
    <component base="sinE" xOffset="441"/>
    <component base="sinMatraE" xOffset="1"/>
  </outline>
=======
<glyph name="sinAi" format="2">
	<unicode hex="0D93"/>
	<advance width="1299"/>
	<outline>
		<contour>
			<point x="1185" y="-12"/>
			<point x="1272" y="94"/>
			<point x="1272" y="254" type="curve" smooth="yes"/>
			<point x="1272" y="441"/>
			<point x="1137" y="605"/>
			<point x="1050" y="703" type="curve" smooth="yes"/>
			<point x="1030" y="727"/>
			<point x="1012" y="746"/>
			<point x="998" y="762" type="curve"/>
			<point x="985" y="738"/>
			<point x="971" y="717"/>
			<point x="959" y="698" type="curve" smooth="yes"/>
			<point x="930" y="651"/>
			<point x="890" y="594"/>
			<point x="890" y="545" type="curve" smooth="yes"/>
			<point x="890" y="470"/>
			<point x="945" y="432"/>
			<point x="1005" y="432" type="curve" smooth="yes"/>
			<point x="1051" y="432"/>
			<point x="1117" y="472"/>
			<point x="1147" y="515" type="curve"/>
			<point x="1178" y="470"/>
			<point x="1227" y="383"/>
			<point x="1227" y="254" type="curve" smooth="yes"/>
			<point x="1227" y="127"/>
			<point x="1154" y="35"/>
			<point x="994" y="35" type="curve" smooth="yes"/>
			<point x="855" y="35"/>
			<point x="771" y="105"/>
			<point x="771" y="216" type="curve" smooth="yes"/>
			<point x="771" y="286"/>
			<point x="814" y="341"/>
			<point x="877" y="346" type="curve"/>
			<point x="882" y="346" type="line" smooth="yes"/>
			<point x="900" y="346"/>
			<point x="917" y="341"/>
			<point x="933" y="337" type="curve"/>
			<point x="936" y="337"/>
			<point x="939" y="336"/>
			<point x="941" y="336" type="curve" smooth="yes"/>
			<point x="952" y="336"/>
			<point x="959" y="342"/>
			<point x="962" y="353" type="curve" smooth="yes"/>
			<point x="963" y="355"/>
			<point x="963" y="357"/>
			<point x="963" y="359" type="curve" smooth="yes"/>
			<point x="963" y="370"/>
			<point x="954" y="379"/>
			<point x="937" y="385" type="curve" smooth="yes"/>
			<point x="901" y="398"/>
			<point x="883" y="411"/>
			<point x="883" y="432" type="curve" smooth="yes"/>
			<point x="883" y="446"/>
			<point x="897" y="456"/>
			<point x="914" y="456" type="curve" smooth="yes"/>
			<point x="917" y="456"/>
			<point x="919" y="456"/>
			<point x="922" y="456" type="curve" smooth="yes"/>
			<point x="943" y="451"/>
			<point x="959" y="432"/>
			<point x="1005" y="432" type="curve" smooth="yes"/>
			<point x="1017" y="432"/>
			<point x="1023" y="439"/>
			<point x="1023" y="445" type="curve" smooth="yes"/>
			<point x="1023" y="453"/>
			<point x="1017" y="459"/>
			<point x="1006" y="459" type="curve" smooth="yes"/>
			<point x="974" y="459"/>
			<point x="959" y="497"/>
			<point x="908" y="497" type="curve" smooth="yes"/>
			<point x="864" y="497"/>
			<point x="839" y="470"/>
			<point x="839" y="439" type="curve" smooth="yes"/>
			<point x="839" y="425"/>
			<point x="844" y="410"/>
			<point x="855" y="397" type="curve"/>
			<point x="830" y="408"/>
			<point x="796" y="414"/>
			<point x="762" y="414" type="curve" smooth="yes"/>
			<point x="744" y="414"/>
			<point x="726" y="413"/>
			<point x="710" y="410" type="curve" smooth="yes"/>
			<point x="694" y="406"/>
			<point x="686" y="396"/>
			<point x="686" y="386" type="curve" smooth="yes"/>
			<point x="686" y="373"/>
			<point x="696" y="362"/>
			<point x="712" y="362" type="curve" smooth="yes"/>
			<point x="714" y="362"/>
			<point x="717" y="362"/>
			<point x="720" y="363" type="curve" smooth="yes"/>
			<point x="739" y="367"/>
			<point x="757" y="374"/>
			<point x="789" y="374" type="curve" smooth="yes"/>
			<point x="799" y="374"/>
			<point x="810" y="373"/>
			<point x="823" y="372" type="curve"/>
			<point x="791" y="367"/>
			<point x="726" y="322"/>
			<point x="726" y="216" type="curve" smooth="yes"/>
			<point x="726" y="74"/>
			<point x="830" y="-12"/>
			<point x="994" y="-12" type="curve" smooth="yes"/>
		</contour>
		<contour>
			<point x="494" y="-12"/>
			<point x="603" y="94"/>
			<point x="603" y="247" type="curve" smooth="yes"/>
			<point x="603" y="404"/>
			<point x="506" y="483"/>
			<point x="390" y="483" type="curve" smooth="yes"/>
			<point x="305" y="483"/>
			<point x="213" y="425"/>
			<point x="213" y="324" type="curve" smooth="yes"/>
			<point x="213" y="250"/>
			<point x="264" y="195"/>
			<point x="341" y="195" type="curve" smooth="yes"/>
			<point x="390" y="195"/>
			<point x="425" y="222"/>
			<point x="425" y="262" type="curve" smooth="yes"/>
			<point x="425" y="291"/>
			<point x="407" y="310"/>
			<point x="382" y="310" type="curve" smooth="yes"/>
			<point x="358" y="310"/>
			<point x="346" y="292"/>
			<point x="346" y="274" type="curve" smooth="yes"/>
			<point x="346" y="264"/>
			<point x="350" y="255"/>
			<point x="358" y="248" type="curve"/>
			<point x="352" y="245"/>
			<point x="343" y="242"/>
			<point x="329" y="242" type="curve" smooth="yes"/>
			<point x="287" y="242"/>
			<point x="257" y="280"/>
			<point x="257" y="324" type="curve" smooth="yes"/>
			<point x="257" y="394"/>
			<point x="324" y="439"/>
			<point x="390" y="439" type="curve" smooth="yes"/>
			<point x="483" y="439"/>
			<point x="559" y="375"/>
			<point x="559" y="247" type="curve" smooth="yes"/>
			<point x="559" y="114"/>
			<point x="463" y="32"/>
			<point x="332" y="32" type="curve" smooth="yes"/>
			<point x="160" y="32"/>
			<point x="72" y="191"/>
			<point x="72" y="327" type="curve" smooth="yes"/>
			<point x="72" y="552"/>
			<point x="240" y="682"/>
			<point x="429" y="682" type="curve" smooth="yes"/>
			<point x="470" y="682"/>
			<point x="512" y="676"/>
			<point x="552" y="664" type="curve" smooth="yes"/>
			<point x="556" y="663"/>
			<point x="560" y="662"/>
			<point x="563" y="662" type="curve" smooth="yes"/>
			<point x="577" y="662"/>
			<point x="587" y="673"/>
			<point x="587" y="684" type="curve" smooth="yes"/>
			<point x="587" y="693"/>
			<point x="581" y="702"/>
			<point x="568" y="706" type="curve" smooth="yes"/>
			<point x="521" y="722"/>
			<point x="472" y="729"/>
			<point x="425" y="729" type="curve" smooth="yes"/>
			<point x="214" y="729"/>
			<point x="27" y="580"/>
			<point x="27" y="327" type="curve" smooth="yes"/>
			<point x="27" y="159"/>
			<point x="130" y="-12"/>
			<point x="332" y="-12" type="curve" smooth="yes"/>
		</contour>
		<contour>
			<point x="966" y="471"/>
			<point x="930" y="494"/>
			<point x="930" y="545" type="curve" smooth="yes"/>
			<point x="930" y="589"/>
			<point x="981" y="654"/>
			<point x="1007" y="689" type="curve"/>
			<point x="1037" y="656"/>
			<point x="1088" y="599"/>
			<point x="1116" y="552" type="curve"/>
			<point x="1105" y="512"/>
			<point x="1045" y="471"/>
			<point x="1005" y="471" type="curve" smooth="yes"/>
		</contour>
	</outline>
>>>>>>> origin/master
</glyph>
